<?xml version="1.0" encoding="UTF-8" standalone="no"?>
<svg
   xmlns:dc="http://purl.org/dc/elements/1.1/"
   xmlns:cc="http://creativecommons.org/ns#"
   xmlns:rdf="http://www.w3.org/1999/02/22-rdf-syntax-ns#"
   xmlns:svg="http://www.w3.org/2000/svg"
   xmlns="http://www.w3.org/2000/svg"
   xmlns:xlink="http://www.w3.org/1999/xlink"
   xmlns:sodipodi="http://sodipodi.sourceforge.net/DTD/sodipodi-0.dtd"
   xmlns:inkscape="http://www.inkscape.org/namespaces/inkscape"
   inkscape:export-ydpi="1000.13"
   inkscape:export-xdpi="1000.13"
   inkscape:export-filename="C:\Users\20176249\Desktop\overview_fig.png"
   inkscape:version="1.0 (4035a4fb49, 2020-05-01)"
   sodipodi:docname="overview_lumnet.svg"
   version="1.1"
   viewBox="0 0 1120.61 862.52"
   height="862.52"
   width="1120.61"
   data-name="Layer 1"
   id="740546cb-34ca-4331-8221-ac3d3fc9ee67">
  <metadata
     id="metadata1649">
    <rdf:RDF>
      <cc:Work
         rdf:about="">
        <dc:format>image/svg+xml</dc:format>
        <dc:type
           rdf:resource="http://purl.org/dc/dcmitype/StillImage" />
        <dc:title />
      </cc:Work>
    </rdf:RDF>
  </metadata>
  <sodipodi:namedview
     inkscape:document-rotation="0"
     inkscape:current-layer="740546cb-34ca-4331-8221-ac3d3fc9ee67"
     inkscape:window-maximized="1"
     inkscape:window-y="-9"
     inkscape:window-x="1911"
     inkscape:cy="294.79682"
     inkscape:cx="323.83086"
     inkscape:zoom="0.62491303"
     showgrid="false"
     id="namedview1647"
     inkscape:window-height="1271"
     inkscape:window-width="2400"
     inkscape:pageshadow="2"
     inkscape:pageopacity="0"
     guidetolerance="10"
     gridtolerance="10"
     objecttolerance="10"
     borderopacity="1"
     bordercolor="#666666"
     pagecolor="#ffffff" />
  <defs
     id="defs1276">
    <inkscape:path-effect
       lpeversion="1"
       is_visible="true"
       id="path-effect1852"
       effect="spiro" />
    <marker
       inkscape:isstock="true"
       style="overflow:visible"
       id="marker4508"
       refX="0.0"
       refY="0.0"
       orient="auto"
       inkscape:stockid="DotS">
      <path
         transform="scale(0.2) translate(7.4, 1)"
         style="fill-rule:evenodd;stroke:#000000;stroke-width:1pt;stroke-opacity:1;fill:#000000;fill-opacity:1"
         d="M -2.5,-1.0 C -2.5,1.7600000 -4.7400000,4.0 -7.5,4.0 C -10.260000,4.0 -12.5,1.7600000 -12.5,-1.0 C -12.5,-3.7600000 -10.260000,-6.0 -7.5,-6.0 C -4.7400000,-6.0 -2.5,-3.7600000 -2.5,-1.0 z "
         id="path4506" />
    </marker>
    <marker
       inkscape:isstock="true"
       style="overflow:visible"
       id="marker4504"
       refX="0.0"
       refY="0.0"
       orient="auto"
       inkscape:stockid="DotS">
      <path
         transform="scale(0.2) translate(7.4, 1)"
         style="fill-rule:evenodd;stroke:#000000;stroke-width:1pt;stroke-opacity:1;fill:#000000;fill-opacity:1"
         d="M -2.5,-1.0 C -2.5,1.7600000 -4.7400000,4.0 -7.5,4.0 C -10.260000,4.0 -12.5,1.7600000 -12.5,-1.0 C -12.5,-3.7600000 -10.260000,-6.0 -7.5,-6.0 C -4.7400000,-6.0 -2.5,-3.7600000 -2.5,-1.0 z "
         id="path4502" />
    </marker>
    <marker
       inkscape:isstock="true"
       style="overflow:visible"
       id="marker4471"
       refX="0.0"
       refY="0.0"
       orient="auto"
       inkscape:stockid="DotS">
      <path
         transform="scale(0.2) translate(7.4, 1)"
         style="fill-rule:evenodd;stroke:#000000;stroke-width:1pt;stroke-opacity:1;fill:#000000;fill-opacity:1"
         d="M -2.5,-1.0 C -2.5,1.7600000 -4.7400000,4.0 -7.5,4.0 C -10.260000,4.0 -12.5,1.7600000 -12.5,-1.0 C -12.5,-3.7600000 -10.260000,-6.0 -7.5,-6.0 C -4.7400000,-6.0 -2.5,-3.7600000 -2.5,-1.0 z "
         id="path4469" />
    </marker>
    <marker
       inkscape:isstock="true"
       style="overflow:visible"
       id="marker4467"
       refX="0.0"
       refY="0.0"
       orient="auto"
       inkscape:stockid="DotS">
      <path
         transform="scale(0.2) translate(7.4, 1)"
         style="fill-rule:evenodd;stroke:#000000;stroke-width:1pt;stroke-opacity:1;fill:#000000;fill-opacity:1"
         d="M -2.5,-1.0 C -2.5,1.7600000 -4.7400000,4.0 -7.5,4.0 C -10.260000,4.0 -12.5,1.7600000 -12.5,-1.0 C -12.5,-3.7600000 -10.260000,-6.0 -7.5,-6.0 C -4.7400000,-6.0 -2.5,-3.7600000 -2.5,-1.0 z "
         id="path4465" />
    </marker>
    <marker
       inkscape:isstock="true"
       style="overflow:visible"
       id="marker4321"
       refX="0.0"
       refY="0.0"
       orient="auto"
       inkscape:stockid="DotS">
      <path
         transform="scale(0.2) translate(7.4, 1)"
         style="fill-rule:evenodd;stroke:#000000;stroke-width:1pt;stroke-opacity:1;fill:#000000;fill-opacity:1"
         d="M -2.5,-1.0 C -2.5,1.7600000 -4.7400000,4.0 -7.5,4.0 C -10.260000,4.0 -12.5,1.7600000 -12.5,-1.0 C -12.5,-3.7600000 -10.260000,-6.0 -7.5,-6.0 C -4.7400000,-6.0 -2.5,-3.7600000 -2.5,-1.0 z "
         id="path4319" />
    </marker>
    <marker
       inkscape:isstock="true"
       style="overflow:visible"
       id="marker4317"
       refX="0.0"
       refY="0.0"
       orient="auto"
       inkscape:stockid="DotS">
      <path
         transform="scale(0.2) translate(7.4, 1)"
         style="fill-rule:evenodd;stroke:#000000;stroke-width:1pt;stroke-opacity:1;fill:#000000;fill-opacity:1"
         d="M -2.5,-1.0 C -2.5,1.7600000 -4.7400000,4.0 -7.5,4.0 C -10.260000,4.0 -12.5,1.7600000 -12.5,-1.0 C -12.5,-3.7600000 -10.260000,-6.0 -7.5,-6.0 C -4.7400000,-6.0 -2.5,-3.7600000 -2.5,-1.0 z "
         id="path4315" />
    </marker>
    <marker
       inkscape:isstock="true"
       style="overflow:visible"
       id="marker4313"
       refX="0.0"
       refY="0.0"
       orient="auto"
       inkscape:stockid="DotS">
      <path
         transform="scale(0.2) translate(7.4, 1)"
         style="fill-rule:evenodd;stroke:#000000;stroke-width:1pt;stroke-opacity:1;fill:#000000;fill-opacity:1"
         d="M -2.5,-1.0 C -2.5,1.7600000 -4.7400000,4.0 -7.5,4.0 C -10.260000,4.0 -12.5,1.7600000 -12.5,-1.0 C -12.5,-3.7600000 -10.260000,-6.0 -7.5,-6.0 C -4.7400000,-6.0 -2.5,-3.7600000 -2.5,-1.0 z "
         id="path4311" />
    </marker>
    <marker
       inkscape:isstock="true"
       style="overflow:visible"
       id="DotS"
       refX="0.0"
       refY="0.0"
       orient="auto"
       inkscape:stockid="DotS">
      <path
         transform="scale(0.2) translate(7.4, 1)"
         style="fill-rule:evenodd;stroke:#000000;stroke-width:1pt;stroke-opacity:1;fill:#000000;fill-opacity:1"
         d="M -2.5,-1.0 C -2.5,1.7600000 -4.7400000,4.0 -7.5,4.0 C -10.260000,4.0 -12.5,1.7600000 -12.5,-1.0 C -12.5,-3.7600000 -10.260000,-6.0 -7.5,-6.0 C -4.7400000,-6.0 -2.5,-3.7600000 -2.5,-1.0 z "
         id="path4114" />
    </marker>
    <linearGradient
       gradientUnits="userSpaceOnUse"
       gradientTransform="matrix(1, 0.09, -0.09, 1, 45.13, -84.62)"
       y2="199.47"
       x2="922.95"
       y1="714.28"
       x1="922.95"
       id="07a0b5f0-40d7-4714-acbe-80fa7c137a96">
      <stop
         id="stop1268"
         stop-opacity="0.25"
         stop-color="gray"
         offset="0" />
      <stop
         id="stop1270"
         stop-opacity="0.12"
         stop-color="gray"
         offset="0.54" />
      <stop
         id="stop1272"
         stop-opacity="0.1"
         stop-color="gray"
         offset="1" />
    </linearGradient>
    <linearGradient
       xlink:href="#07a0b5f0-40d7-4714-acbe-80fa7c137a96"
       gradientTransform="matrix(1, 0, 0, 1, 0, 0)"
       y2="197"
       x2="329.5"
       y1="708.38"
       x1="329.5"
       id="81276d2b-ddf3-474d-b794-9223ea4701e2" />
    <marker
       inkscape:isstock="true"
       style="overflow:visible"
       id="marker4467-9"
       refX="0"
       refY="0"
       orient="auto"
       inkscape:stockid="DotS">
      <path
         transform="matrix(0.2,0,0,0.2,1.48,0.2)"
         style="fill:#000000;fill-opacity:1;fill-rule:evenodd;stroke:#000000;stroke-width:1.00000003pt;stroke-opacity:1"
         d="m -2.5,-1 c 0,2.76 -2.24,5 -5,5 -2.76,0 -5,-2.24 -5,-5 0,-2.76 2.24,-5 5,-5 2.76,0 5,2.24 5,5 z"
         id="path4465-8"
         inkscape:connector-curvature="0" />
    </marker>
    <marker
       inkscape:isstock="true"
       style="overflow:visible"
       id="marker4471-3"
       refX="0"
       refY="0"
       orient="auto"
       inkscape:stockid="DotS">
      <path
         transform="matrix(0.2,0,0,0.2,1.48,0.2)"
         style="fill:#000000;fill-opacity:1;fill-rule:evenodd;stroke:#000000;stroke-width:1.00000003pt;stroke-opacity:1"
         d="m -2.5,-1 c 0,2.76 -2.24,5 -5,5 -2.76,0 -5,-2.24 -5,-5 0,-2.76 2.24,-5 5,-5 2.76,0 5,2.24 5,5 z"
         id="path4469-7"
         inkscape:connector-curvature="0" />
    </marker>
    <marker
       inkscape:isstock="true"
       style="overflow:visible"
       id="marker4504-5"
       refX="0"
       refY="0"
       orient="auto"
       inkscape:stockid="DotS">
      <path
         transform="matrix(0.2,0,0,0.2,1.48,0.2)"
         style="fill:#000000;fill-opacity:1;fill-rule:evenodd;stroke:#000000;stroke-width:1.00000003pt;stroke-opacity:1"
         d="m -2.5,-1 c 0,2.76 -2.24,5 -5,5 -2.76,0 -5,-2.24 -5,-5 0,-2.76 2.24,-5 5,-5 2.76,0 5,2.24 5,5 z"
         id="path4502-4"
         inkscape:connector-curvature="0" />
    </marker>
    <marker
       inkscape:isstock="true"
       style="overflow:visible"
       id="marker4508-9"
       refX="0"
       refY="0"
       orient="auto"
       inkscape:stockid="DotS">
      <path
         transform="matrix(0.2,0,0,0.2,1.48,0.2)"
         style="fill:#000000;fill-opacity:1;fill-rule:evenodd;stroke:#000000;stroke-width:1.00000003pt;stroke-opacity:1"
         d="m -2.5,-1 c 0,2.76 -2.24,5 -5,5 -2.76,0 -5,-2.24 -5,-5 0,-2.76 2.24,-5 5,-5 2.76,0 5,2.24 5,5 z"
         id="path4506-4"
         inkscape:connector-curvature="0" />
    </marker>
    <marker
       inkscape:isstock="true"
       style="overflow:visible"
       id="marker4467-4"
       refX="0"
       refY="0"
       orient="auto"
       inkscape:stockid="DotS">
      <path
         transform="matrix(0.2,0,0,0.2,1.48,0.2)"
         style="fill:#000000;fill-opacity:1;fill-rule:evenodd;stroke:#000000;stroke-width:1.00000003pt;stroke-opacity:1"
         d="m -2.5,-1 c 0,2.76 -2.24,5 -5,5 -2.76,0 -5,-2.24 -5,-5 0,-2.76 2.24,-5 5,-5 2.76,0 5,2.24 5,5 z"
         id="path4465-88"
         inkscape:connector-curvature="0" />
    </marker>
    <marker
       inkscape:isstock="true"
       style="overflow:visible"
       id="marker4471-5"
       refX="0"
       refY="0"
       orient="auto"
       inkscape:stockid="DotS">
      <path
         transform="matrix(0.2,0,0,0.2,1.48,0.2)"
         style="fill:#000000;fill-opacity:1;fill-rule:evenodd;stroke:#000000;stroke-width:1.00000003pt;stroke-opacity:1"
         d="m -2.5,-1 c 0,2.76 -2.24,5 -5,5 -2.76,0 -5,-2.24 -5,-5 0,-2.76 2.24,-5 5,-5 2.76,0 5,2.24 5,5 z"
         id="path4469-79"
         inkscape:connector-curvature="0" />
    </marker>
    <marker
       inkscape:isstock="true"
       style="overflow:visible"
       id="marker4467-1"
       refX="0"
       refY="0"
       orient="auto"
       inkscape:stockid="DotS">
      <path
         transform="matrix(0.2,0,0,0.2,1.48,0.2)"
         style="fill:#000000;fill-opacity:1;fill-rule:evenodd;stroke:#000000;stroke-width:1.00000003pt;stroke-opacity:1"
         d="m -2.5,-1 c 0,2.76 -2.24,5 -5,5 -2.76,0 -5,-2.24 -5,-5 0,-2.76 2.24,-5 5,-5 2.76,0 5,2.24 5,5 z"
         id="path4465-5"
         inkscape:connector-curvature="0" />
    </marker>
    <marker
       inkscape:isstock="true"
       style="overflow:visible"
       id="marker4471-8"
       refX="0"
       refY="0"
       orient="auto"
       inkscape:stockid="DotS">
      <path
         transform="matrix(0.2,0,0,0.2,1.48,0.2)"
         style="fill:#000000;fill-opacity:1;fill-rule:evenodd;stroke:#000000;stroke-width:1.00000003pt;stroke-opacity:1"
         d="m -2.5,-1 c 0,2.76 -2.24,5 -5,5 -2.76,0 -5,-2.24 -5,-5 0,-2.76 2.24,-5 5,-5 2.76,0 5,2.24 5,5 z"
         id="path4469-9"
         inkscape:connector-curvature="0" />
    </marker>
    <marker
       inkscape:stockid="DotS"
       orient="auto"
       refY="0"
       refX="0"
       id="marker4504-9"
       style="overflow:visible"
       inkscape:isstock="true">
      <path
         id="path4502-7"
         d="m -2.5,-1 c 0,2.76 -2.24,5 -5,5 -2.76,0 -5,-2.24 -5,-5 0,-2.76 2.24,-5 5,-5 2.76,0 5,2.24 5,5 z"
         style="fill:#000000;fill-opacity:1;fill-rule:evenodd;stroke:#000000;stroke-width:1pt;stroke-opacity:1"
         transform="matrix(0.2,0,0,0.2,1.48,0.2)" />
    </marker>
    <marker
       inkscape:stockid="DotS"
       orient="auto"
       refY="0"
       refX="0"
       id="marker4508-3"
       style="overflow:visible"
       inkscape:isstock="true">
      <path
         id="path4506-1"
         d="m -2.5,-1 c 0,2.76 -2.24,5 -5,5 -2.76,0 -5,-2.24 -5,-5 0,-2.76 2.24,-5 5,-5 2.76,0 5,2.24 5,5 z"
         style="fill:#000000;fill-opacity:1;fill-rule:evenodd;stroke:#000000;stroke-width:1pt;stroke-opacity:1"
         transform="matrix(0.2,0,0,0.2,1.48,0.2)" />
    </marker>
    <pattern
       y="0"
       x="0"
       height="6"
       width="6"
       patternUnits="userSpaceOnUse"
       id="EMFhbasepattern" />
  </defs>
  <path
     transform="translate(-39.7 -18.74)"
     opacity="0.1"
     fill="#504f5b"
     id="path1280"
     d="M1089.7,507c-41.29,62.11-30.84,148.44-10.05,216.82,7,22.89,14.91,47.08,10.21,72.38-5.75,30.94-29.19,54.77-53.22,68.11-43.79,24.33-94.62,22.33-132.33-5.19-32.59-23.79-54.74-64.38-88-87C760.72,734.4,686.49,754.58,622.39,787c-45.35,22.91-95.14,52.13-138.12,33.8-30.24-12.9-49.84-47.64-59.58-85.15-4.7-18.11-7.78-37.84-17.8-51.81-6-8.3-14-14-22.29-18.63C308.89,622.47,209,654.06,135.75,606,86.32,573.6,56.91,508.46,45.93,439.31S40.36,296.61,47.7,224.23C52.91,172.8,60.38,117.78,89.07,76.55c30.35-43.61,79.58-62.18,123-56.95S293.67,50.73,326.9,82C368.43,121,406.27,170.46,459,184c35.91,9.25,74.61.57,112.35-4,63.1-7.55,125.63-3.35,187.74,1.64,59.47,4.78,119.32,10.39,175.17,30.77,39.52,14.42,70.34,43.14,107.39,62.24,24.15,12.45,51.05,14.63,73.68,31,27.88,20.15,52.52,56.69,42.83,101.84C1148.95,450.48,1111.61,474,1089.7,507Z" />
  <rect
     id="rect1282"
     opacity="0.1"
     fill="#504f5b"
     height="61.9"
     width="40.89"
     y="256.42"
     x="880.8" />
  <rect
     id="rect1284"
     opacity="0.1"
     fill="#504f5b"
     height="49.86"
     width="32.94"
     y="262.44"
     x="884.77" />
  <rect
     id="rect1286"
     opacity="0.1"
     fill="#504f5b"
     height="61.9"
     width="62.8"
     y="213.42"
     x="797.8" />
  <rect
     id="rect1288"
     opacity="0.1"
     fill="#504f5b"
     height="49.86"
     width="50.59"
     y="219.44"
     x="803.9" />
  <rect
     id="rect1290"
     opacity="0.1"
     fill="#504f5b"
     height="5.11"
     width="191.95"
     y="121.32"
     x="64.62" />
  <rect
     id="rect1292"
     opacity="0.1"
     fill="#504f5b"
     height="5.11"
     width="191.95"
     y="146.31"
     x="64.62" />
  <rect
     id="rect1294"
     fill="#d6d6e3"
     height="219.14"
     width="19.61"
     y="452.63"
     x="388.43" />
  <path
     id="path1296"
     fill="#aebee1"
     transform="translate(-39.7 -18.74)"
     d="M1020.54,494.38V292.24A21.25,21.25,0,0,1,1041.79,271h0A21.25,21.25,0,0,1,1063,292.24V536.88a21.25,21.25,0,0,1-21.25,21.25H910.14a21.25,21.25,0,0,1-21.25-21.25h0a21.25,21.25,0,0,1,21.25-21.25h89.15A21.25,21.25,0,0,0,1020.54,494.38Z" />
  <path
     id="path1298"
     fill="#535461"
     transform="translate(-39.7 -18.74)"
     d="M1020.54,494.38V292.24A21.25,21.25,0,0,1,1041.79,271h0A21.25,21.25,0,0,1,1063,292.24V536.88a21.25,21.25,0,0,1-21.25,21.25H910.14a21.25,21.25,0,0,1-21.25-21.25h0a21.25,21.25,0,0,1,21.25-21.25h89.15A21.25,21.25,0,0,0,1020.54,494.38Z" />
  <path
     id="path1300"
     fill="#d6d6e3"
     transform="translate(-39.7 -18.74)"
     d="M888.92,535.74a21.25,21.25,0,0,1,21.22-20.11h89.15a21.25,21.25,0,0,0,21.25-21.25V292.24A21.25,21.25,0,0,1,1040.77,271V535.74Z" />
  <path
     id="path1302"
     fill="#aebee1"
     transform="translate(-39.7 -18.74)"
     d="M232.2,501.2V299.06A21.25,21.25,0,0,0,211,277.81h0a21.25,21.25,0,0,0-21.25,21.25V543.7A21.25,21.25,0,0,0,211,565H342.6a21.25,21.25,0,0,0,21.25-21.25h0a21.25,21.25,0,0,0-21.25-21.25H253.46A21.25,21.25,0,0,1,232.2,501.2Z" />
  <path
     id="path1304"
     fill="#535461"
     transform="translate(-39.7 -18.74)"
     d="M232.2,501.2V299.06A21.25,21.25,0,0,0,211,277.81h0a21.25,21.25,0,0,0-21.25,21.25V543.7A21.25,21.25,0,0,0,211,565H342.6a21.25,21.25,0,0,0,21.25-21.25h0a21.25,21.25,0,0,0-21.25-21.25H253.46A21.25,21.25,0,0,1,232.2,501.2Z" />
  <path
     id="path1306"
     fill="#d6d6e3"
     transform="translate(-39.7 -18.74)"
     d="M363.82,542.56a21.25,21.25,0,0,0-21.22-20.11H253.46A21.25,21.25,0,0,1,232.2,501.2V299.06A21.25,21.25,0,0,0,212,277.84V542.56Z" />
  <rect
     id="rect1308"
     fill="#d6d6e3"
     height="224.25"
     width="19.61"
     y="452.63"
     x="776.4" />
  <rect
     id="rect1310"
     opacity="0.1"
     height="16.2"
     width="19.61"
     y="452.63"
     x="388.43" />
  <rect
     id="rect1312"
     opacity="0.1"
     height="16.2"
     width="19.61"
     y="452.63"
     x="776.4" />
  <path
     id="path1314"
     opacity="0.1"
     transform="translate(-39.7 -18.74)"
     d="M498.17,337.92q-.47,5.18-1.19,10.5h-2.77v-10.5Z" />
  <path
     id="path1316"
     fill="#535461"
     transform="translate(-39.7 -18.74)"
     d="M578.52,447c.06,3.55-2.5,6.46-5.67,6.46H513v-6.24H562.8c2.15,0,3.49-2.6,2.41-4.68l-45.16-91.85a4,4,0,0,0-3.5-2.26H494.21v-10.5h28.21a2.8,2.8,0,0,1,2.45,1.58l51.77,100A17,17,0,0,1,578.52,447Z" />
  <path
     id="path1318"
     fill="#535461"
     transform="translate(-39.7 -18.74)"
     d="M468.6,430.34l-.82,1.38-7.67-5.12,23.73-182.47h6.11s.25.84.66,2.44C494.7,262.34,514.79,351.65,468.6,430.34Z" />
  <path
     id="path1320"
     opacity="0.1"
     transform="translate(-39.7 -18.74)"
     d="M490.6,246.57l-22,183.77-.82,1.38-7.67-5.12,23.73-182.47h6.11S490.19,245,490.6,246.57Z" />
  <rect
     id="rect1322"
     fill="#d6d6e3"
     transform="translate(41.16 746.52) rotate(-83.17)"
     height="14.5"
     width="189.29"
     y="329.82"
     x="376.97" />
  <path
     id="path1324"
     fill="#e3edf9"
     transform="translate(-39.7 -18.74)"
     d="M403.83,447.07a1.72,1.72,0,0,1-1.71,1.71h-2.56a1.71,1.71,0,0,1-1.71-1.71.83.83,0,0,1,0-.2,1.71,1.71,0,0,1,1.69-1.5h2.56a1.72,1.72,0,0,1,1.65,1.3A1.58,1.58,0,0,1,403.83,447.07Z" />
  <path
     id="path1326"
     fill="#e3edf9"
     transform="translate(-39.7 -18.74)"
     d="M411.5,447.07a1.72,1.72,0,0,1-1.71,1.71h-2.56a1.71,1.71,0,0,1-1.71-1.71,1.68,1.68,0,0,1,.07-.47,1.61,1.61,0,0,1,.43-.73,1.67,1.67,0,0,1,1.2-.5h2.56a1.72,1.72,0,0,1,1.57,1A1.76,1.76,0,0,1,411.5,447.07Z" />
  <path
     id="path1328"
     fill="#e3edf9"
     transform="translate(-39.7 -18.74)"
     d="M418.32,447.07a1.72,1.72,0,0,1-1.71,1.71h-2.56a1.71,1.71,0,0,1-1.71-1.71,1.62,1.62,0,0,1,.15-.71,1.74,1.74,0,0,1,1.55-1h2.56a1.7,1.7,0,0,1,1.71,1.71Z" />
  <path
     id="path1330"
     fill="#e3edf9"
     transform="translate(-39.7 -18.74)"
     d="M426,447.07a1.72,1.72,0,0,1-1.71,1.71h-2.56a1.71,1.71,0,0,1-1.4-2.69l.2-.22a1.67,1.67,0,0,1,1.2-.5h2.56a1.72,1.72,0,0,1,1.24.55A1.65,1.65,0,0,1,426,447.07Z" />
  <path
     id="path1332"
     opacity="0.1"
     transform="translate(-39.7 -18.74)"
     d="M403.78,446.66a1.58,1.58,0,0,1,.05.41,1.72,1.72,0,0,1-1.71,1.71h-2.56a1.71,1.71,0,0,1-1.71-1.71.83.83,0,0,1,0-.2Z" />
  <path
     id="path1334"
     opacity="0.1"
     transform="translate(-39.7 -18.74)"
     d="M411.36,446.39a1.76,1.76,0,0,1,.14.67,1.72,1.72,0,0,1-1.71,1.71h-2.56a1.71,1.71,0,0,1-1.71-1.71,1.68,1.68,0,0,1,.07-.47Z" />
  <path
     id="path1336"
     opacity="0.1"
     transform="translate(-39.7 -18.74)"
     d="M418.07,446.16a1.72,1.72,0,0,1,.26.9,1.72,1.72,0,0,1-1.71,1.71h-2.56a1.71,1.71,0,0,1-1.71-1.71,1.62,1.62,0,0,1,.15-.71Z" />
  <path
     id="path1338"
     opacity="0.1"
     transform="translate(-39.7 -18.74)"
     d="M426,447.07a1.72,1.72,0,0,1-1.71,1.71h-2.56a1.71,1.71,0,0,1-1.4-2.69l5.2-.18A1.65,1.65,0,0,1,426,447.07Z" />
  <path
     id="path1340"
     fill="#d6d6e3"
     transform="translate(-39.7 -18.74)"
     d="M441.34,453.89H391.89v-2.25a3.85,3.85,0,0,1,3.72-3.85l39.66-1.37a5.88,5.88,0,0,1,6.08,5.87Z" />
  <path
     id="path1342"
     fill="#535461"
     transform="translate(-39.7 -18.74)"
     d="M685.31,447c-.06,3.55,2.5,6.46,5.67,6.46h59.88v-6.24H701c-2.15,0-3.49-2.6-2.41-4.68l45.16-91.85a4,4,0,0,1,3.5-2.26h22.35v-10.5H741.41A2.8,2.8,0,0,0,739,339.5l-51.77,100A17,17,0,0,0,685.31,447Z" />
  <path
     id="path1344"
     fill="#535461"
     transform="translate(-39.7 -18.74)"
     d="M795.24,430.34l.82,1.38,7.67-5.12L780,244.13h-6.11s-.25.84-.66,2.44C769.13,262.34,749,351.65,795.24,430.34Z" />
  <path
     id="path1346"
     opacity="0.1"
     transform="translate(-39.7 -18.74)"
     d="M773.23,246.57l22,183.77.82,1.38,7.67-5.12L780,244.13h-6.11S773.64,245,773.23,246.57Z" />
  <rect
     id="rect1348"
     fill="#d6d6e3"
     transform="translate(-74.16 77.85) rotate(-6.83)"
     height="189.29"
     width="14.5"
     y="242.43"
     x="784.97" />
  <path
     id="path1350"
     fill="#e3edf9"
     transform="translate(-39.7 -18.74)"
     d="M860,447.07a1.72,1.72,0,0,0,1.71,1.71h2.56a1.71,1.71,0,0,0,1.71-1.71.83.83,0,0,0,0-.2,1.71,1.71,0,0,0-1.69-1.5h-2.56a1.72,1.72,0,0,0-1.65,1.3A1.58,1.58,0,0,0,860,447.07Z" />
  <path
     id="path1352"
     fill="#e3edf9"
     transform="translate(-39.7 -18.74)"
     d="M852.33,447.07a1.72,1.72,0,0,0,1.71,1.71h2.56a1.71,1.71,0,0,0,1.71-1.71,1.68,1.68,0,0,0-.07-.47,1.61,1.61,0,0,0-.43-.73,1.67,1.67,0,0,0-1.2-.5H854a1.72,1.72,0,0,0-1.57,1A1.76,1.76,0,0,0,852.33,447.07Z" />
  <path
     id="path1354"
     fill="#e3edf9"
     transform="translate(-39.7 -18.74)"
     d="M845.51,447.07a1.72,1.72,0,0,0,1.71,1.71h2.56a1.71,1.71,0,0,0,1.71-1.71,1.62,1.62,0,0,0-.15-.71,1.74,1.74,0,0,0-1.55-1h-2.56a1.7,1.7,0,0,0-1.71,1.71Z" />
  <path
     id="path1356"
     fill="#e3edf9"
     transform="translate(-39.7 -18.74)"
     d="M837.83,447.07a1.72,1.72,0,0,0,1.71,1.71h2.56a1.71,1.71,0,0,0,1.4-2.69l-.2-.22a1.67,1.67,0,0,0-1.2-.5h-2.56a1.72,1.72,0,0,0-1.24.55A1.65,1.65,0,0,0,837.83,447.07Z" />
  <path
     id="path1358"
     opacity="0.1"
     transform="translate(-39.7 -18.74)"
     d="M860.05,446.66a1.58,1.58,0,0,0-.05.41,1.72,1.72,0,0,0,1.71,1.71h2.56a1.71,1.71,0,0,0,1.71-1.71.83.83,0,0,0,0-.2Z" />
  <path
     id="path1360"
     opacity="0.1"
     transform="translate(-39.7 -18.74)"
     d="M852.47,446.39a1.76,1.76,0,0,0-.14.67,1.72,1.72,0,0,0,1.71,1.71h2.56a1.71,1.71,0,0,0,1.71-1.71,1.68,1.68,0,0,0-.07-.47Z" />
  <path
     id="path1362"
     opacity="0.1"
     transform="translate(-39.7 -18.74)"
     d="M845.76,446.16a1.72,1.72,0,0,0-.26.9,1.72,1.72,0,0,0,1.71,1.71h2.56a1.71,1.71,0,0,0,1.71-1.71,1.62,1.62,0,0,0-.15-.71Z" />
  <path
     id="path1364"
     opacity="0.1"
     transform="translate(-39.7 -18.74)"
     d="M837.83,447.07a1.72,1.72,0,0,0,1.71,1.71h2.56a1.71,1.71,0,0,0,1.4-2.69l-5.2-.18A1.65,1.65,0,0,0,837.83,447.07Z" />
  <path
     id="path1366"
     fill="#d6d6e3"
     transform="translate(-39.7 -18.74)"
     d="M822.49,453.89h49.45v-2.25a3.85,3.85,0,0,0-3.72-3.85l-39.66-1.37a5.88,5.88,0,0,0-6.08,5.87Z" />
  <path
     id="path1368"
     fill="url(#07a0b5f0-40d7-4714-acbe-80fa7c137a96)"
     transform="translate(-39.7 -18.74)"
     d="M1029.47,481c23.07-39.13,14.71-118.06,15.64-119.57.83-1.33-2.35-38.5-23.55-47.58-3.83-7.59-7.6-16.14-7.6-16.14a6.73,6.73,0,0,1-1.22.91q-.25-.68-.49-1.38c-.27-.79-.52-1.6-.77-2.41a15.53,15.53,0,0,0,1.81.46,7.54,7.54,0,0,0,4.84-.43,5.39,5.39,0,0,0,1.39-1.07c1.67-1.11,2.59-3.11,3.37-5l6.17-14.78c2.78-6.67,5.58-13.38,7.06-20.45a57.58,57.58,0,0,0-2.46-31.86c-1.46-3.88-3.48-7.76-6.91-10.08-6.87-4.66-16.43-1.44-24.28-4.17-2.58-.9-4.91-2.42-7.49-3.34-5.57-2-11.86-.93-17.22,1.56s-9.7,6.45-14.39,10c-2.31,1.77-6,3.6-8.72,6-2.64,2.06-4.67,4.55-4.28,7.83.44,3.75,4.39,6,8.07,6.88.61.14,1.24.25,1.86.36a36,36,0,0,0,15.37,59.8,84.36,84.36,0,0,1,4.86,10.93q.27.77.53,1.55c-6.06,1.72-10.8,3.15-11.75,3.94-2.87,2.38,3.14,23.22,3.14,23.22-1.53,1.94-3.09,4.15-4.67,6.52a140.55,140.55,0,0,0-22.16,60.57c-1,7.91-2.3,16-3.95,23.69L870,412.59l-.15,1.77-1.71-.42h0l-5.38-1.33-.21,1.21-.82-.39c-13.33-6.25-35.79-14.23-51-6-16.05,8.64,18.59,20.12,40.82,26.23-7.37.36-14.42,2.13-20,6.27-16.12,12.08,29.47,18.37,51,20.6l.87.09v.46l7.46.69,1.75.16.17,2.66s10.68,1.75,24.95,3.87c-16.29,4.07-36.42,6.89-50.4,8.54-14.82,1.74-27.44,12.06-31.42,26.45a23.52,23.52,0,0,0-.36,12.72c4.16,14.53-.92,121.42-2.07,144.44l-26.35,15.17s-41,5-13.69,14.61a56.16,56.16,0,0,0,7.53,2c-3.6,2.32-3.29,5.35,7.32,9.07,27.33,9.58,90.86-.42,90.86-.42s-1.39-11.26-3.65-20.62l.7.06s-6.56-24.41,3.39-36.72-1.67-106-1.67-106,17.42-7.21,69.49-7.68c42,10.78,62.47-27.81,62.18-47.76C1029.52,481.87,1029.5,481.41,1029.47,481Z" />
  <path
     id="path1370"
     fill="#f8b9bf"
     transform="translate(-39.7 -18.74)"
     d="M874.25,420.36l-4.45,18s-4-.9-10-2.44c-20.32-5.26-63.18-17.89-46-27.16,14.81-8,36.62-.22,49.57,5.85,4.74,2.23,8.3,4.23,9.89,5.17C873.93,420.16,874.25,420.36,874.25,420.36Z" />
  <path
     id="path1372"
     opacity="0.1"
     transform="translate(-39.7 -18.74)"
     d="M873,425.44l-3.2,13s-4-.9-10-2.44l3.61-21.31c4.74,2.23,8.3,4.23,9.89,5.17Z" />
  <polygon
     id="polygon1374"
     fill="#d9dfe8"
     points="833.31 420.93 820.89 417.86 824.75 395.1 834.68 397.55 833.31 420.93" />
  <polygon
     id="polygon1376"
     opacity="0.1"
     points="833.31 420.93 827.95 419.61 829.97 396.39 834.68 397.55 833.31 420.93" />
  <path
     id="path1378"
     fill="#504f5b"
     transform="translate(-39.7 -18.74)"
     d="M992.85,345.4S969,331.62,958.4,371.15s-11.6,57.74-11.6,57.74l-75.32-15.06-2.39,27.51s80.53,26,90.66,24.11,43-57,43-57S1032.63,365.74,992.85,345.4Z" />
  <g
     id="g1390"
     opacity="0.1">
    <path
       id="path1380"
       transform="translate(-39.7 -18.74)"
       d="M874.25,420.36l-4.45,18s-4-.9-10-2.44c-20.32-5.26-63.18-17.89-46-27.16,14.81-8,36.62-.22,49.57,5.85,4.74,2.23,8.3,4.23,9.89,5.17C873.93,420.16,874.25,420.36,874.25,420.36Z" />
    <path
       id="path1382"
       opacity="0.1"
       transform="translate(-39.7 -18.74)"
       d="M873,425.44l-3.2,13s-4-.9-10-2.44l3.61-21.31c4.74,2.23,8.3,4.23,9.89,5.17Z" />
    <polygon
       id="polygon1384"
       points="833.31 420.93 820.89 417.86 824.75 395.1 834.68 397.55 833.31 420.93" />
    <polygon
       id="polygon1386"
       opacity="0.1"
       points="833.31 420.93 827.95 419.61 829.97 396.39 834.68 397.55 833.31 420.93" />
    <path
       id="path1388"
       transform="translate(-39.7 -18.74)"
       d="M992.85,346.4S969,332.62,958.4,372.15s-11.6,57.74-11.6,57.74l-75.32-15.06-2.39,27.51s80.53,26,90.66,24.11,43-57,43-57S1032.63,366.74,992.85,346.4Z" />
  </g>
  <path
     id="path1392"
     fill="#68739d"
     transform="translate(-39.7 -18.74)"
     d="M841.15,651.7,810.4,669.41s-39.84,4.88-13.3,14.18,88.24-.41,88.24-.41-3.43-27.72-8.21-31.59S841.15,651.7,841.15,651.7Z" />
  <path
     id="path1394"
     fill="#6394e2"
     transform="translate(-39.7 -18.74)"
     d="M961,453s-15.3,8-42.48,14.91c-15.93,4-35.87,6.84-49.65,8.46A35.81,35.81,0,0,0,838.35,502,22.84,22.84,0,0,0,838,514.4c4.53,15.83-2.23,144.51-2.23,144.51l46.7,4.32s-6.37-23.71,3.3-35.66-1.62-102.91-1.62-102.91,16.92-7,67.48-7.46c46.84,12,66.14-39.27,58.91-53.64S961,453,961,453Z" />
  <g
     id="g1400"
     opacity="0.1">
    <path
       id="path1396"
       transform="translate(-39.7 -18.74)"
       d="M841.15,651.7,810.4,669.41s-39.84,4.88-13.3,14.18,88.24-.41,88.24-.41-3.43-27.72-8.21-31.59S841.15,651.7,841.15,651.7Z" />
    <path
       id="path1398"
       transform="translate(-39.7 -18.74)"
       d="M961,453s-15.3,8-42.48,14.91c-15.93,4-35.87,6.84-49.65,8.46A35.81,35.81,0,0,0,838.35,502,22.84,22.84,0,0,0,838,514.4c4.53,15.83-2.23,144.51-2.23,144.51l46.7,4.32s-6.37-23.71,3.3-35.66-1.62-102.91-1.62-102.91,16.92-7,67.48-7.46c46.84,12,66.14-39.27,58.91-53.64S961,453,961,453Z" />
  </g>
  <path
     id="path1402"
     fill="#68739d"
     transform="translate(-39.7 -18.74)"
     d="M855.57,662.45l-30.75,17.71S785,685,811.52,694.34s88.24-.41,88.24-.41-3.43-27.72-8.21-31.59S855.57,662.45,855.57,662.45Z" />
  <path
     id="path1404"
     fill="#6394e2"
     transform="translate(-39.7 -18.74)"
     d="M966,527.95c-50.56.46-67.48,7.46-67.48,7.46s11.29,91,1.62,102.91-3.3,35.66-3.3,35.66l-46.7-4.32s.08-1.52.21-4.24c1.12-22.36,6.05-126.16,2-140.27a22.84,22.84,0,0,1,.35-12.36,35.82,35.82,0,0,1,30.51-25.69c13.77-1.61,33.71-4.41,49.64-8.46l.78-.2c26.7-6.86,41.7-14.71,41.7-14.71s42.31-3.8,49.54,10.57a17,17,0,0,1,1.48,7.25C1026.71,500.94,1006.81,538.42,966,527.95Z" />
  <path
     id="path1406"
     fill="#f8b9bf"
     transform="translate(-39.7 -18.74)"
     d="M895.57,442.79l-1.71,18.5s-4.11-.29-10.22-.93c-20.87-2.17-65.14-8.27-49.49-20,13.46-10.08,36.18-5.68,49.89-1.6,5,1.5,8.84,2.95,10.55,3.64C895.22,442.64,895.57,442.79,895.57,442.79Z" />
  <path
     id="path1408"
     fill="#f8b9bf"
     transform="translate(-39.7 -18.74)"
     d="M1019.78,321.84s-6.26,4.9-13.91,10.28c-8.39,1.9-18.13,3.47-25.15,4.49,2.51-8,1-17-1.83-24.89a93.69,93.69,0,0,0-12.55-23.08l42.32-13.21c-3.32,8.41-1.82,18,1,26.34A86.85,86.85,0,0,0,1019.78,321.84Z" />
  <path
     id="path1410"
     opacity="0.1"
     transform="translate(-39.7 -18.74)"
     d="M895.09,448l-1.23,13.29s-4.11-.29-10.22-.93l.4-21.61c5,1.5,8.84,2.95,10.55,3.64Z" />
  <polygon
     id="polygon1412"
     fill="#d9dfe8"
     points="857.52 443.33 844.78 442.15 845.2 419.07 855.39 420.01 857.52 443.33" />
  <path
     id="path1414"
     opacity="0.1"
     transform="translate(-39.7 -18.74)"
     d="M1019.78,321.84s-6.26,4.9-13.91,10.28c-8.39,1.9-18.13,3.47-25.15,4.49,2.51-8,1-17-1.83-24.89,10.34-3,25.13-6.88,30.78-10A86.85,86.85,0,0,0,1019.78,321.84Z" />
  <path
     id="path1416"
     fill="#d9dfe8"
     transform="translate(-39.7 -18.74)"
     d="M1011.32,302.22s7.08,16.07,11.54,23.33-51.82,14-51.82,14-5.84-20.23-3.05-22.55S1006.61,306.92,1011.32,302.22Z" />
  <path
     id="path1418"
     opacity="0.1"
     transform="translate(-39.7 -18.74)"
     d="M1026.43,481.56a50.63,50.63,0,0,1-8.76,11.34c-24.86,23.62-65.61-1-84-14.46,26.7-6.86,41.7-14.71,41.7-14.71s42.31-3.8,49.54,10.57A17,17,0,0,1,1026.43,481.56Z" />
  <path
     id="path1420"
     fill="#504f5b"
     transform="translate(-39.7 -18.74)"
     d="M1017.83,491.21c-28.26,26.84-77-8.7-90.14-19.17-2.13-1.7-3.32-2.75-3.32-2.75,5.19-4.86,9.75-15.16,13.36-27.76A243.61,243.61,0,0,0,945,404.75a136.5,136.5,0,0,1,21.52-58.83c1.53-2.3,3-4.45,4.53-6.33,10.67-13.57,28.6-22.19,28.6-22.19,37.84-11.06,42.93,45.07,41.92,46.69S1050.68,460,1017.83,491.21Z" />
  <path
     id="path1422"
     opacity="0.1"
     transform="translate(-39.7 -18.74)"
     d="M1021.49,414.48s-24.33,59.4-34.06,62.79c-5.57,1.93-35.32-1.73-59.74-5.22-2.13-1.7-3.32-2.75-3.32-2.75,5.19-4.86,9.75-15.16,13.36-27.76l31.45,1.5s-1.75-18.14,2.87-58.82,30.23-30.6,30.23-30.6C1044.65,367.81,1021.49,414.48,1021.49,414.48Z" />
  <polygon
     id="polygon1424"
     opacity="0.1"
     points="857.52 443.33 852.02 442.82 850.56 419.57 855.39 420.01 857.52 443.33" />
  <path
     id="path1426"
     fill="#504f5b"
     transform="translate(-39.7 -18.74)"
     d="M1001.67,351s-25.61-10.07-30.23,30.6-2.87,58.82-2.87,58.82l-76.73-3.67,1.73,27.56s83.51,13.71,93.24,10.33,34.06-62.79,34.06-62.79S1044,365.18,1001.67,351Z" />
  <path
     id="path1428"
     opacity="0.1"
     transform="translate(-39.7 -18.74)"
     d="M1003.39,290.78c-1.12-6.08,5.23-6,7.51-11.72l-42.32,13.21a93.4,93.4,0,0,1,7.84,12.47,35.11,35.11,0,0,0,6.73,1.3C993.24,307,996.39,297.07,1003.39,290.78Z" />
  <circle
     id="circle1430"
     fill="#f8b9bf"
     transform="translate(587.38 1204.16) rotate(-84.72)"
     r="34.96"
     cy="267.59"
     cx="984.12" />
  <path
     id="path1432"
     opacity="0.1"
     transform="translate(-39.7 -18.74)"
     d="M949.6,236c.43,3.64,4.27,5.86,7.84,6.68s7.44.86,10.57,2.77c5,3.08,6.35,9.92,5.72,15.8-.35,3.32-.85,7.39,1.87,9.32a7.25,7.25,0,0,0,2.8,1,26.26,26.26,0,0,0,8.62.3c1.68-.22,3.41-.6,5-.13,2.62.76,4.17,3.52,4.68,6.19s.23,5.45.64,8.14a16.9,16.9,0,0,0,13.32,13.74,7.33,7.33,0,0,0,4.7-.42c1.9-1,2.87-3.13,3.69-5.12l6-14.36c2.7-6.47,5.42-13,6.86-19.86a55.92,55.92,0,0,0-2.39-30.94c-1.42-3.76-3.38-7.53-6.71-9.79-6.67-4.53-16-1.4-23.58-4-2.51-.87-4.77-2.35-7.27-3.24-5.41-1.93-11.52-.91-16.73,1.52s-9.42,6.26-14,9.75C957.26,226.44,948.85,229.71,949.6,236Z" />
  <path
     id="path1434"
     fill="#b96b6b"
     transform="translate(-39.7 -18.74)"
     d="M950.52,235.23c.43,3.64,4.27,5.86,7.84,6.68s7.44.86,10.57,2.77c5,3.08,6.35,9.92,5.72,15.8-.35,3.32-.85,7.39,1.87,9.32a7.25,7.25,0,0,0,2.8,1,26.26,26.26,0,0,0,8.62.3c1.68-.22,3.41-.6,5-.13,2.62.76,4.17,3.52,4.68,6.19s.23,5.45.64,8.14a16.9,16.9,0,0,0,13.32,13.74,7.33,7.33,0,0,0,4.7-.42c1.9-1,2.87-3.13,3.69-5.12l6-14.36c2.7-6.47,5.42-13,6.86-19.86a55.92,55.92,0,0,0-2.39-30.94c-1.42-3.76-3.38-7.53-6.71-9.79-6.67-4.53-16-1.4-23.58-4-2.51-.87-4.77-2.35-7.27-3.24-5.41-1.93-11.52-.91-16.73,1.52s-9.42,6.26-14,9.75C958.19,225.67,949.78,228.94,950.52,235.23Z" />
  <path
     id="path1436"
     opacity="0.1"
     transform="translate(-39.7 -18.74)"
     d="M979.48,373.34S966.13,425.2,952.84,430s-7.42,6.16-7.42,6.16" />
  <rect
     id="rect1438"
     fill="#d6d6e3"
     height="95.37"
     width="14.51"
     y="544.58"
     x="925.9" />
  <rect
     id="rect1440"
     opacity="0.1"
     height="7.07"
     width="14.51"
     y="544.58"
     x="925.9" />
  <path
     id="path1442"
     fill="#d6d6e3"
     transform="translate(-39.7 -18.74)"
     d="M936.57,562.82v2a4.69,4.69,0,0,0,4.69,4.69h63.18a4.69,4.69,0,0,0,4.69-4.69v-2a4.69,4.69,0,0,0-4.69-4.69H941.26a4.69,4.69,0,0,0-4.69,4.69Z" />
  <path
     id="path1444"
     opacity="0.1"
     transform="translate(-39.7 -18.74)"
     d="M937.65,559.84h70.41a4.67,4.67,0,0,0-3.62-1.71H941.26A4.67,4.67,0,0,0,937.65,559.84Z" />
  <rect
     id="rect1446"
     fill="#d6d6e3"
     ry="5.5"
     rx="5.5"
     height="11.4"
     width="119.21"
     y="634.76"
     x="873.56" />
  <circle
     id="circle1448"
     fill="#535461"
     r="7.26"
     cy="653.42"
     cx="986.03" />
  <circle
     id="circle1450"
     fill="#535461"
     r="7.26"
     cy="653.42"
     cx="880.29" />
  <circle
     id="circle1452"
     fill="#535461"
     r="7.26"
     cy="653.42"
     cx="933.16" />
  <rect
     id="rect1454"
     fill="#d6d6e3"
     ry="8.5"
     rx="8.5"
     height="17.62"
     width="114.03"
     y="427.44"
     x="917.74" />
  <path
     id="path1456"
     opacity="0.1"
     transform="translate(-39.7 -18.74)"
     d="M980.11,653.5s-5.7,5.63-14.51,0" />
  <path
     id="path1458"
     opacity="0.1"
     transform="translate(-39.7 -18.74)"
     d="M1071.47,455.17v1.39a7.25,7.25,0,0,1-7.25,7.25H964.69a7.25,7.25,0,0,1-7.25-7.25v-1.39Z" />
  <rect
     id="rect1460"
     fill="#d6d6e3"
     height="249.86"
     width="19.61"
     y="452.63"
     x="822.44" />
  <rect
     id="rect1462"
     opacity="0.1"
     height="16.2"
     width="19.61"
     y="452.63"
     x="822.44" />
  <rect
     id="rect1464"
     fill="#d6d6e3"
     height="95.37"
     width="14.51"
     y="551.4"
     x="232.94" />
  <rect
     id="rect1466"
     opacity="0.1"
     height="7.07"
     width="14.51"
     y="551.4"
     x="232.94" />
  <path
     id="path1468"
     fill="#d6d6e3"
     transform="translate(-39.7 -18.74)"
     d="M316.17,569.65v2a4.69,4.69,0,0,1-4.69,4.69H248.3a4.69,4.69,0,0,1-4.69-4.69v-2A4.69,4.69,0,0,1,248.3,565h63.18a4.69,4.69,0,0,1,4.69,4.69Z" />
  <path
     id="path1470"
     opacity="0.1"
     transform="translate(-39.7 -18.74)"
     d="M315.1,566.66H244.68A4.67,4.67,0,0,1,248.3,565h63.18A4.67,4.67,0,0,1,315.1,566.66Z" />
  <rect
     id="rect1472"
     fill="#d6d6e3"
     ry="5.5"
     rx="5.5"
     height="11.4"
     width="119.21"
     y="641.58"
     x="180.59" />
  <circle
     id="circle1474"
     fill="#535461"
     r="7.26"
     cy="660.24"
     cx="187.33" />
  <circle
     id="circle1476"
     fill="#535461"
     r="7.26"
     cy="660.24"
     cx="293.06" />
  <circle
     id="circle1478"
     fill="#535461"
     r="7.26"
     cy="660.24"
     cx="240.19" />
  <path
     id="path1480"
     opacity="0.1"
     transform="translate(-39.7 -18.74)"
     d="M272.64,660.32s5.7,5.63,14.51,0" />
  <path
     id="path1482"
     stroke-width="2"
     stroke-miterlimit="10"
     stroke="#535461"
     fill="none"
     transform="translate(-39.7 -18.74)"
     d="M642.81,373.22s-16.28-29.59-10.33-55.31a51.17,51.17,0,0,0-2.85-32.24A86.06,86.06,0,0,0,622,271.93" />
  <path
     id="path1484"
     fill="#504f5b"
     transform="translate(-39.7 -18.74)"
     d="M625.61,255.69c.85,3.88-3.7,16.67-3.7,16.67s-9.49-9.7-10.35-13.58a7.19,7.19,0,1,1,14-3.09Z" />
  <path
     id="path1486"
     fill="#504f5b"
     transform="translate(-39.7 -18.74)"
     d="M641.94,274.62c-1.39,3.72-12.16,12-12.16,12s-2.7-13.3-1.3-17a7.19,7.19,0,1,1,13.47,5Z" />
  <path
     id="path1488"
     fill="#504f5b"
     transform="translate(-39.7 -18.74)"
     d="M649.5,311.44c-3.08,2.51-16.55,4.2-16.55,4.2s4.39-12.84,7.47-15.35a7.19,7.19,0,1,1,9.08,11.15Z" />
  <path
     id="path1490"
     fill="#504f5b"
     transform="translate(-39.7 -18.74)"
     d="M648.95,340.58c-2.61,3-15.6,6.94-15.6,6.94s2.15-13.4,4.76-16.39a7.19,7.19,0,1,1,10.83,9.45Z" />
  <path
     id="path1492"
     fill="#504f5b"
     transform="translate(-39.7 -18.74)"
     d="M615.2,290.59c3.38,2.09,16.95,2,16.95,2s-6-12.17-9.38-14.26a7.19,7.19,0,1,0-7.57,12.22Z" />
  <path
     id="path1494"
     fill="#504f5b"
     transform="translate(-39.7 -18.74)"
     d="M615,324.69c3.85,1,16.78-3.12,16.78-3.12s-9.37-9.82-13.22-10.8A7.19,7.19,0,0,0,615,324.69Z" />
  <path
     id="path1496"
     fill="#504f5b"
     transform="translate(-39.7 -18.74)"
     d="M619.33,357.85c3.62,1.62,17.07-.24,17.07-.24s-7.58-11.26-11.2-12.88a7.19,7.19,0,0,0-5.87,13.13Z" />
  <path
     id="path1498"
     fill="#504f5b"
     transform="translate(-39.7 -18.74)"
     d="M625.61,255.69c.85,3.88-3.7,16.67-3.7,16.67s-9.49-9.7-10.35-13.58a7.19,7.19,0,1,1,14-3.09Z" />
  <path
     id="path1500"
     fill="#504f5b"
     transform="translate(-39.7 -18.74)"
     d="M641.94,274.62c-1.39,3.72-12.16,12-12.16,12s-2.7-13.3-1.3-17a7.19,7.19,0,1,1,13.47,5Z" />
  <path
     id="path1502"
     fill="#504f5b"
     transform="translate(-39.7 -18.74)"
     d="M649.5,311.44c-3.08,2.51-16.55,4.2-16.55,4.2s4.39-12.84,7.47-15.35a7.19,7.19,0,1,1,9.08,11.15Z" />
  <path
     id="path1504"
     fill="#504f5b"
     transform="translate(-39.7 -18.74)"
     d="M648.95,340.58c-2.61,3-15.6,6.94-15.6,6.94s2.15-13.4,4.76-16.39a7.19,7.19,0,1,1,10.83,9.45Z" />
  <path
     id="path1506"
     fill="#504f5b"
     transform="translate(-39.7 -18.74)"
     d="M615.2,290.59c3.38,2.09,16.95,2,16.95,2s-6-12.17-9.38-14.26a7.19,7.19,0,1,0-7.57,12.22Z" />
  <path
     id="path1508"
     fill="#504f5b"
     transform="translate(-39.7 -18.74)"
     d="M615,324.69c3.85,1,16.78-3.12,16.78-3.12s-9.37-9.82-13.22-10.8A7.19,7.19,0,0,0,615,324.69Z" />
  <path
     id="path1510"
     fill="#504f5b"
     transform="translate(-39.7 -18.74)"
     d="M619.33,357.85c3.62,1.62,17.07-.24,17.07-.24s-7.58-11.26-11.2-12.88a7.19,7.19,0,0,0-5.87,13.13Z" />
  <path
     id="path1512"
     fill="#504f5b"
     transform="translate(-39.7 -18.74)"
     d="M636.19,455.29h0a17.14,17.14,0,0,1-17.11-18.22l4.79-75.9h24.64l4.79,75.9A17.14,17.14,0,0,1,636.19,455.29Z" />
  <rect
     id="rect1514"
     opacity="0.1"
     fill="#504f5b"
     height="58"
     width="14"
     y="63.42"
     x="83.6" />
  <rect
     id="rect1516"
     opacity="0.1"
     fill="#504f5b"
     height="58"
     width="14"
     y="63.42"
     x="101.6" />
  <rect
     id="rect1518"
     opacity="0.1"
     fill="#504f5b"
     height="58"
     width="14"
     y="63.42"
     x="119.6" />
  <rect
     id="rect1520"
     opacity="0.1"
     fill="#504f5b"
     height="58"
     width="14"
     y="63.42"
     x="137.6" />
  <rect
     id="rect1522"
     opacity="0.1"
     fill="#504f5b"
     height="58"
     width="14"
     y="63.42"
     x="173.6" />
  <rect
     id="rect1524"
     opacity="0.1"
     fill="#504f5b"
     height="58"
     width="14"
     y="63.42"
     x="191.6" />
  <rect
     id="rect1526"
     opacity="0.1"
     fill="#504f5b"
     height="3"
     width="14"
     y="74.42"
     x="83.6" />
  <rect
     id="rect1528"
     opacity="0.1"
     fill="#504f5b"
     height="3"
     width="14"
     y="110.42"
     x="83.6" />
  <rect
     id="rect1530"
     opacity="0.1"
     fill="#504f5b"
     height="3"
     width="14"
     y="74.42"
     x="101.6" />
  <rect
     id="rect1532"
     opacity="0.1"
     fill="#504f5b"
     height="3"
     width="14"
     y="110.42"
     x="101.6" />
  <rect
     id="rect1534"
     opacity="0.1"
     fill="#504f5b"
     height="3"
     width="14"
     y="74.42"
     x="119.6" />
  <rect
     id="rect1536"
     opacity="0.1"
     fill="#504f5b"
     height="3"
     width="14"
     y="110.42"
     x="119.6" />
  <rect
     id="rect1538"
     opacity="0.1"
     fill="#504f5b"
     height="3"
     width="14"
     y="74.42"
     x="137.6" />
  <rect
     id="rect1540"
     opacity="0.1"
     fill="#504f5b"
     height="3"
     width="14"
     y="110.42"
     x="137.6" />
  <rect
     id="rect1542"
     opacity="0.1"
     fill="#504f5b"
     height="3"
     width="14"
     y="74.42"
     x="155.6" />
  <rect
     id="rect1544"
     opacity="0.1"
     fill="#504f5b"
     height="3"
     width="14"
     y="110.42"
     x="155.6" />
  <rect
     id="rect1546"
     opacity="0.1"
     fill="#504f5b"
     height="3"
     width="14"
     y="74.42"
     x="173.6" />
  <rect
     id="rect1548"
     opacity="0.1"
     fill="#504f5b"
     height="3"
     width="14"
     y="110.42"
     x="173.6" />
  <rect
     id="rect1550"
     opacity="0.1"
     fill="#504f5b"
     height="3"
     width="14"
     y="74.42"
     x="191.6" />
  <rect
     id="rect1552"
     opacity="0.1"
     fill="#504f5b"
     height="3"
     width="14"
     y="110.42"
     x="191.6" />
  <rect
     id="rect1554"
     opacity="0.1"
     fill="#504f5b"
     height="58"
     width="14"
     y="63.42"
     x="155.6" />
  <rect
     id="rect1556"
     opacity="0.1"
     fill="#504f5b"
     transform="translate(-61.94 102.56) rotate(-24.84)"
     height="58"
     width="14"
     y="82.16"
     x="257.29" />
  <rect
     id="rect1558"
     opacity="0.1"
     fill="#504f5b"
     transform="translate(-56.29 98.27) rotate(-24.84)"
     height="3"
     width="14"
     y="94.69"
     x="250.36" />
  <rect
     id="rect1560"
     opacity="0.1"
     fill="#504f5b"
     transform="translate(-68.62 107.64) rotate(-24.84)"
     height="3"
     width="14"
     y="127.36"
     x="265.48" />
  <path
     id="path1562"
     fill="url(#81276d2b-ddf3-474d-b794-9223ea4701e2)"
     transform="translate(-39.7 -18.74)"
     d="M428.84,680.21,403.43,664c-.13-22.83-.49-128.82,4.26-143a23.29,23.29,0,0,0,.2-12.61c-3.3-14.41-15.34-25.17-29.93-27.54-13.76-2.24-33.56-5.91-49.5-10.65,14.21-1.47,24.86-2.74,24.86-2.74l.28-2.63,9.15-.44V464l.87-.05c21.37-1.27,66.75-5.5,51.33-18.16-5.29-4.34-12.19-6.39-19.47-7.08,22.26-5.08,57.05-14.92,41.54-24.17-14.74-8.78-37.31-1.88-50.78,3.73l-.83.35-.15-1.21-5.38,1.08h0l-1.71.34-.08-1.76-75.49,11.66a257.66,257.66,0,0,0-3.08-25.81c1.69-11.26,9.55-27.68,6.78-36.49-3.22-10.23-16.44-13.58-22-22.82-1.46-2.41-2.91-4.67-4.33-6.65a70,70,0,0,0-10.65-11.51,48.6,48.6,0,0,1,3.92-17.25,83.57,83.57,0,0,1,5.28-10.6,35.6,35.6,0,0,0,26.44-41c4.78,2.05,10.59,2.26,13.58-1.74l-1.42-.55c.14-.15.28-.3.4-.47-2.91-1.11-6-2.37-8.28-4.39a9.7,9.7,0,0,1-1.45-2.15c-1.38-2.8-1.22-6.16-2.54-9a10.41,10.41,0,0,0-2.59-3.38,17.83,17.83,0,0,0-8.46-4.84c-3.61-1.05-7.41-1.58-10.87-3a36.75,36.75,0,0,0-39.11-11l-1.25.43a16.31,16.31,0,0,0-31.81-7.2,16.27,16.27,0,0,1,4.36-9.74c-.26.22-.53.43-.78.66a16.32,16.32,0,0,0-.71,23.07l.29.28a16.39,16.39,0,0,0,4.09,3.58,16.32,16.32,0,0,1-10.76-13.37c0,.34,0,.68,0,1A16.32,16.32,0,0,0,225,230.13l.45-.05-.24.33a36.71,36.71,0,0,0,3.3,45.45,17,17,0,0,0,2.62,4.2,13.61,13.61,0,0,0,1.21,1.22,15.51,15.51,0,0,0,10.46,4.82q1,1.19,2.13,2.29a59.52,59.52,0,0,1-2.58,8.24,87.34,87.34,0,0,1-7.92,15.27c-21.6,6.14-23.5,42.82-22.72,44.21.93,1.66-3.22,59.26,12.78,128.84-.66,19.89,10.94,52.78,52.12,44.11C328.11,531.81,345,539.7,345,539.7s-4.89,89.57,2.09,102.61c4.37,8.17,1.27,20.17-2,28.64a31.47,31.47,0,0,0-2.88,6.64c-1,2.11-1.73,3.39-1.73,3.39l.7,0c-2.64,9.17-4.51,20.24-4.51,20.24s62.43,12.67,89.89,4.38c10.66-3.22,11.1-6.2,7.64-8.66a55.62,55.62,0,0,0,7.54-1.65C469.22,687,428.84,680.21,428.84,680.21Z" />
  <path
     id="path1564"
     fill="#fa595f"
     transform="translate(-39.7 -18.74)"
     d="M293,255a36,36,0,1,1-36-36A36,36,0,0,1,293,255Z" />
  <path
     id="path1566"
     fill="#f8b9bf"
     transform="translate(-39.7 -18.74)"
     d="M374.09,424.13l3.65,18.22s4.06-.73,10.07-2c20.53-4.35,63.91-15.09,47.11-25.11-14.45-8.61-36.58-1.84-49.78,3.66-4.84,2-8.48,3.86-10.11,4.73C374.42,423.94,374.09,424.13,374.09,424.13Z" />
  <path
     id="path1568"
     opacity="0.1"
     transform="translate(-39.7 -18.74)"
     d="M375.12,429.27l2.62,13.08s4.06-.73,10.07-2l-2.67-21.45c-4.84,2-8.48,3.86-10.11,4.73Z" />
  <polygon
     id="polygon1570"
     fill="#d9dfe8"
     points="334.79 424.74 347.33 422.23 344.49 399.32 334.45 401.33 334.79 424.74" />
  <polygon
     id="polygon1572"
     opacity="0.1"
     points="334.79 424.74 340.2 423.65 339.21 400.38 334.45 401.33 334.79 424.74" />
  <path
     id="path1574"
     fill="#504f5b"
     transform="translate(-39.7 -18.74)"
     d="M258.91,344s24.41-12.72,33.28,27.25,9,58.19,9,58.19l75.92-11.73,1.18,27.59s-81.6,22.43-91.63,20.09-40.48-58.85-40.48-58.85S218.28,362.59,258.91,344Z" />
  <g
     id="g1586"
     opacity="0.1">
    <path
       id="path1576"
       transform="translate(-39.7 -18.74)"
       d="M374.09,424.13l3.65,18.22s4.06-.73,10.07-2c20.53-4.35,63.91-15.09,47.11-25.11-14.45-8.61-36.58-1.84-49.78,3.66-4.84,2-8.48,3.86-10.11,4.73C374.42,423.94,374.09,424.13,374.09,424.13Z" />
    <path
       id="path1578"
       opacity="0.1"
       transform="translate(-39.7 -18.74)"
       d="M375.12,429.27l2.62,13.08s4.06-.73,10.07-2l-2.67-21.45c-4.84,2-8.48,3.86-10.11,4.73Z" />
    <polygon
       id="polygon1580"
       points="334.79 424.74 347.33 422.23 344.49 399.32 334.45 401.33 334.79 424.74" />
    <polygon
       id="polygon1582"
       opacity="0.1"
       points="334.79 424.74 340.2 423.65 339.21 400.38 334.45 401.33 334.79 424.74" />
    <path
       id="path1584"
       transform="translate(-39.7 -18.74)"
       d="M260.91,346s24.41-12.72,33.28,27.25,9,58.19,9,58.19l75.92-11.73,1.18,27.59s-81.6,22.43-91.63,20.09-40.48-58.85-40.48-58.85S220.28,364.59,260.91,346Z" />
  </g>
  <path
     id="path1588"
     fill="#f37291"
     transform="translate(-39.7 -18.74)"
     d="M397,656.71l29.94,19s39.59,6.63,12.66,14.76-88.13-4.3-88.13-4.3,4.65-27.54,9.6-31.19S397,656.71,397,656.71Z" />
  <path
     id="path1590"
     fill="#96a2d0"
     transform="translate(-39.7 -18.74)"
     d="M286,452.9s14.93,8.67,41.78,16.77c15.74,4.75,35.54,8.42,49.22,10.65a35.81,35.81,0,0,1,29.35,27,22.84,22.84,0,0,1-.19,12.36C400.94,535.3,402,664.15,402,664.15l-46.84,2.25s7.41-23.41-1.72-35.77S359.6,527.9,359.6,527.9s-16.59-7.74-67.09-10.43c-47.33,10-64.34-42.15-56.48-56.19S286,452.9,286,452.9Z" />
  <g
     id="g1596"
     opacity="0.1">
    <path
       id="path1592"
       transform="translate(-39.7 -18.74)"
       d="M397,656.71l29.94,19s39.59,6.63,12.66,14.76-88.13-4.3-88.13-4.3,4.65-27.54,9.6-31.19S397,656.71,397,656.71Z" />
    <path
       id="path1594"
       transform="translate(-39.7 -18.74)"
       d="M286,452.9s14.93,8.67,41.78,16.77c15.74,4.75,35.54,8.42,49.22,10.65a35.81,35.81,0,0,1,29.35,27,22.84,22.84,0,0,1-.19,12.36C400.94,535.3,402,664.15,402,664.15l-46.84,2.25s7.41-23.41-1.72-35.77S359.6,527.9,359.6,527.9s-16.59-7.74-67.09-10.43c-47.33,10-64.34-42.15-56.48-56.19S286,452.9,286,452.9Z" />
  </g>
  <path
     id="path1598"
     fill="#f37291"
     transform="translate(-39.7 -18.74)"
     d="M382.08,666.82l29.94,19s39.59,6.63,12.66,14.76-88.13-4.3-88.13-4.3,4.65-27.54,9.6-31.19S382.08,666.82,382.08,666.82Z" />
  <path
     id="path1600"
     fill="#96a2d0"
     transform="translate(-39.7 -18.74)"
     d="M277.64,527.57c50.5,2.69,67.09,10.43,67.09,10.43s-4.79,87.82,2,100.6c7.25,13.56-6.48,37.9-6.48,37.9l46.84-2.25s0-1.52,0-4.24c-.14-22.38-.48-126.3,4.17-140.23a22.84,22.84,0,0,0,.19-12.36,35.82,35.82,0,0,0-29.35-27c-13.69-2.22-33.48-5.89-49.22-10.64l-.77-.24c-26.37-8-41-16.53-41-16.53s-31.19-2.16-39,11.88c-1,1.82-5.31,5.4-5.49,8.29C225.45,502.52,236.46,536.24,277.64,527.57Z" />
  <path
     id="path1602"
     fill="#f8b9bf"
     transform="translate(-39.7 -18.74)"
     d="M351.81,445.6l.89,18.56s4.12-.11,10.26-.48c20.95-1.25,65.45-5.39,50.33-17.8-13-10.67-35.9-7.27-49.77-3.8-5.09,1.28-9,2.56-10.7,3.17C352.16,445.47,351.81,445.6,351.81,445.6Z" />
  <path
     id="path1604"
     fill="#f8b9bf"
     transform="translate(-39.7 -18.74)"
     d="M233,319.29s6,5.17,13.44,10.89c8.3,2.26,18,4.27,24.93,5.6-2.15-8.15-.24-17,2.93-24.79a93.69,93.69,0,0,1,13.56-22.51l-41.7-15.07c2.95,8.55,1,18.1-2.17,26.27A86.85,86.85,0,0,1,233,319.29Z" />
  <path
     id="path1606"
     opacity="0.1"
     transform="translate(-39.7 -18.74)"
     d="M352.06,450.83l.64,13.33s4.12-.11,10.26-.48l.56-21.61c-5.09,1.28-9,2.56-10.7,3.17Z" />
  <polygon
     id="polygon1608"
     fill="#d9dfe8"
     points="309.62 446.05 322.39 445.44 322.99 422.36 312.77 422.85 309.62 446.05" />
  <path
     id="path1610"
     fill="#504f5b"
     transform="translate(-39.7 -18.74)"
     d="M227.53,488.58c27,28.07,77.35-5.29,90.89-15.17,2.2-1.61,3.43-2.6,3.43-2.6-5-5.09-13-9.8-16.07-22.55a277,277,0,0,1-5.94-39.52c-.83-10.55,10.07-30.64,6.92-40.66s-16.12-13.31-21.57-22.38c-1.43-2.36-2.85-4.58-4.25-6.52-10.06-14-27.59-23.43-27.59-23.43C216,303,213.07,356.34,214,358S210.66,418.46,227.53,488.58Z" />
  <path
     id="path1612"
     opacity="0.1"
     transform="translate(-39.7 -18.74)"
     d="M227.25,411.76s21.69,60.42,31.26,64.23c5.48,2.18,35.37-.17,59.91-2.58,2.2-1.61,3.43-2.6,3.43-2.6-5-5.09-9.07-15.58-12.13-28.32l-31.49.11s2.55-18-.27-58.89-28.85-31.9-28.85-31.9C206.18,364.12,227.25,411.76,227.25,411.76Z" />
  <polygon
     id="polygon1614"
     opacity="0.1"
     points="309.62 446.05 315.13 445.79 317.62 422.62 312.77 422.85 309.62 446.05" />
  <path
     id="path1616"
     fill="#504f5b"
     transform="translate(-39.7 -18.74)"
     d="M249.85,349.21s26-8.93,28.85,31.9S279,440,279,440l76.82-.28-2.95,27.46s-84,10-93.6,6.21S228,409.17,228,409.17,206.91,361.52,249.85,349.21Z" />
  <path
     id="path1618"
     opacity="0.1"
     transform="translate(-39.7 -18.74)"
     d="M250.8,289c1.39-6-5-6.19-7-12L285.52,292a93.4,93.4,0,0,0-8.38,12.11,35.11,35.11,0,0,1-6.78,1C260.22,305.61,257.51,295.58,250.8,289Z" />
  <circle
     id="circle1620"
     fill="#f8b9bf"
     transform="translate(-52.19 -5.41) rotate(-2.75)"
     r="34.96"
     cy="266.67"
     cx="271.07" />
  <path
     id="path1622"
     opacity="0.1"
     transform="translate(-39.7 -18.74)"
     d="M253,375.14s11.06,52.39,24.12,57.74,7.14,6.49,7.14,6.49" />
  <path
     id="path1624"
     opacity="0.1"
     transform="translate(-39.7 -18.74)"
     d="M298.58,404.73s-9.24,2.89-20-10.92" />
  <circle
     id="circle1626"
     fill="#fa595f"
     r="16"
     cy="199.26"
     cx="189.3" />
  <path
     id="path1628"
     fill="#fa595f"
     transform="translate(-39.7 -18.74)"
     d="M217.76,226.45a16,16,0,0,1,0-21.89c-.26.21-.52.42-.76.65a16,16,0,0,0,21.92,23.32c.25-.23.47-.48.69-.72A16,16,0,0,1,217.76,226.45Z" />
  <path
     id="path1630"
     fill="#fa595f"
     transform="translate(-39.7 -18.74)"
     d="M226.9,232.49a16,16,0,0,1-16.84-14c0,.33,0,.66,0,1a16,16,0,1,0,31.94-2c0-.34-.07-.66-.11-1A16,16,0,0,1,226.9,232.49Z" />
  <path
     id="path1632"
     opacity="0.1"
     transform="translate(-39.7 -18.74)"
     d="M283.95,231.91c3.73,1.84,8,2.35,12,3.51s8.08,3.28,9.84,7.06c1.29,2.78,1.14,6.07,2.49,8.82,1.94,4,6.42,5.84,10.54,7.41-3.54,4.75-11.14,3.46-16.1.23s-9.23-8-15-9.25a14.08,14.08,0,0,0-14.81,6.59c-1.58,2.77-2.14,6-2.92,9.08-2,8.12-6,16.2-13,20.81s-17.43,4.58-22.92-1.73c-3.2-3.68-4.27-8.69-5.22-13.47a27.37,27.37,0,0,1-.77-6.81c.32-5.74,4.14-10.63,8-14.89,4.55-5,9.39-9.8,14.23-14.57,4.18-4.12,9-11.1,15.3-11.59C272.87,222.53,278,229,283.95,231.91Z" />
  <path
     id="path1634"
     fill="#fa595f"
     transform="translate(-39.7 -18.74)"
     d="M282.95,230.91c3.73,1.84,8,2.35,12,3.51s8.08,3.28,9.84,7.06c1.29,2.78,1.14,6.07,2.49,8.82,1.94,4,6.42,5.84,10.54,7.41-3.54,4.75-11.14,3.46-16.1.23s-9.23-8-15-9.25a14.08,14.08,0,0,0-14.81,6.59c-1.58,2.77-2.14,6-2.92,9.08-2,8.12-6,16.2-13,20.81s-17.43,4.58-22.92-1.73c-3.2-3.68-4.27-8.69-5.22-13.47a27.37,27.37,0,0,1-.77-6.81c.32-5.74,4.14-10.63,8-14.89,4.55-5,9.39-9.8,14.23-14.57,4.18-4.12,9-11.1,15.3-11.59C271.87,221.53,277,228,282.95,230.91Z" />
  <rect
     id="rect1636"
     fill="#d6d6e3"
     ry="8.5"
     rx="8.5"
     height="17.62"
     width="114.03"
     y="434.26"
     x="141.58" />
  <path
     id="path1638"
     opacity="0.1"
     transform="translate(-39.7 -18.74)"
     d="M181.28,462v1.39a7.25,7.25,0,0,0,7.25,7.25h99.53a7.25,7.25,0,0,0,7.25-7.25V462Z" />
  <rect
     id="rect1640"
     fill="#d6d6e3"
     height="249.83"
     width="19.61"
     y="452.63"
     x="342.39" />
  <rect
     id="rect1642"
     opacity="0.1"
     height="16.2"
     width="19.61"
     y="452.63"
     x="342.39" />
  <rect
     id="rect1644"
     fill="#d6d6e3"
     height="32.4"
     width="518.42"
     y="434.72"
     x="333.01" />
  <g
     id="g1685"
     transform="translate(559.13359,-36.71761)">
    <rect
       id="rect1677"
       height="2"
       width="4"
       y="5"
       x="44" />
    <rect
       id="rect1679"
       height="2"
       width="4"
       y="5"
       x="49" />
    <rect
       id="rect1681"
       height="2"
       width="4"
       y="5"
       x="54" />
    <path
       id="path1683"
       d="m 62.707,61.293 -17.2,-17.2 A 21.989,21.989 0 0 0 55,26 21.67,21.67 0 0 0 51.42,14 H 58 a 3,3 0 0 0 3,-3 V 5 A 3,3 0 0 0 58,2 H 8 A 3,3 0 0 0 5,5 v 6 a 3,3 0 0 0 3,3 h 6.58 A 21.67,21.67 0 0 0 11,26 21.965,21.965 0 0 0 19.351,43.234 L 1.293,61.293 2.707,62.707 20.993,44.42 a 21.924,21.924 0 0 0 22.77,0.756 l 17.53,17.531 z M 53,26 A 19.993,19.993 0 0 1 44.062,42.648 L 37.874,36.46 A 0.974,0.974 0 0 0 38,36 v -5 h 5 a 3,3 0 0 0 3,-3 V 22 A 3,3 0 0 0 43,19 H 33 V 14 H 48.962 A 19.7,19.7 0 0 1 53,26 Z M 43,21 a 1,1 0 0 1 1,1 v 6 a 1,1 0 0 1 -1,1 H 21 a 1,1 0 0 1 -1,-1 v -6 a 1,1 0 0 1 1,-1 z M 28,35 v -4 h 8 v 4 z M 7,11 V 5 A 1,1 0 0 1 8,4 h 50 a 1,1 0 0 1 1,1 v 6 a 1,1 0 0 1 -1,1 H 8 A 1,1 0 0 1 7,11 Z m 6,15 A 19.7,19.7 0 0 1 17.038,14 H 31 v 5 H 21 a 3,3 0 0 0 -3,3 v 6 a 3,3 0 0 0 3,3 h 5 v 5 a 0.974,0.974 0 0 0 0.126,0.46 L 20.785,41.8 A 19.961,19.961 0 0 1 13,26 Z M 33,46 A 19.851,19.851 0 0 1 22.453,42.961 L 28.414,37 h 7.172 l 6.7,6.7 A 19.867,19.867 0 0 1 33,46 Z"
       inkscape:connector-curvature="0" />
  </g>
  <rect
     rx="1.2435695"
     ry="1.2435695"
     y="-215.39415"
     x="689.10077"
     height="82.60157"
     width="347.37946"
     id="rect4323-92"
     style="opacity:1;fill:#ececec;fill-opacity:1;fill-rule:nonzero;stroke:#808080;stroke-width:3.77953;stroke-linecap:round;stroke-linejoin:round;stroke-miterlimit:4;stroke-dasharray:none;stroke-dashoffset:0;stroke-opacity:1;paint-order:stroke fill markers" />
  <g
     style="stroke-width:2.97919"
     id="g2728"
     transform="matrix(0.33123783,0,0,0.34014436,697.60414,-203.78321)">
    <path
       style="stroke-width:2.97919"
       id="path2722"
       d="m 80.416,90.581 c -1.883,-0.715 -4.424,-1.075 -7.621,-1.075 h -1.297 v 24.664 h 1.466 c 3.989,0 7.037,-0.621 9.145,-1.866 3.761,-2.224 5.644,-5.674 5.644,-10.352 0,-2.528 -0.678,-4.848 -2.031,-6.96 -1.356,-2.109 -3.125,-3.581 -5.306,-4.411 z"
       inkscape:connector-curvature="0" />
    <path
       style="stroke-width:2.97919"
       id="path2724"
       d="m 118.063,95.179 c 0,-1.74 -0.613,-3.12 -1.834,-4.142 -1.224,-1.021 -2.852,-1.532 -4.883,-1.532 h -4.46 v 11.515 h 4.46 c 2.068,0 3.705,-0.521 4.909,-1.561 1.205,-1.038 1.808,-2.464 1.808,-4.28 z"
       inkscape:connector-curvature="0" />
    <path
       style="stroke-width:2.97919"
       id="path2726"
       d="m 81.166,10.691 c -39.138,0 -70.865,31.728 -70.865,70.866 0,39.138 31.727,70.865 70.865,70.865 39.138,0 70.867,-31.727 70.867,-70.865 0,-39.138 -31.729,-70.866 -70.867,-70.866 z M 57.613,120.663 H 50.614 V 104.858 H 37.18 v 15.805 H 30.182 V 83.016 H 37.18 V 98.367 H 50.615 V 83.016 h 6.999 v 37.647 z m 33.949,-7.959 c -2.088,3.198 -4.825,5.381 -8.211,6.548 -2.71,0.94 -6.097,1.411 -10.159,1.411 H 64.498 V 83.016 h 8.58 c 6.809,0 11.947,1.466 15.408,4.402 1.882,1.616 3.388,3.744 4.517,6.377 1.128,2.633 1.693,5.343 1.693,8.127 -0.001,3.991 -1.044,7.585 -3.134,10.782 z m 25.373,7.959 -10.049,-14.394 v 14.394 H 99.888 V 83.016 h 11.515 c 4.93,0 8.542,1.372 10.836,4.119 1.844,2.22 2.766,4.74 2.766,7.563 0,2.86 -0.79,5.383 -2.37,7.564 -1.58,2.183 -4.064,3.688 -7.45,4.514 l 10.158,13.887 z M 82.907,20.142 c 33.138,0.924 59.719,28.057 59.719,61.415 0,0.151 -0.01,0.301 -0.014,0.453 C 111.202,77.264 86.567,51.898 82.907,20.142 Z"
       inkscape:connector-curvature="0" />
  </g>
  <path
     inkscape:connector-curvature="0"
     id="path4463"
     d="M 624.61767,-10.035537 794.34691,-119.79379"
     style="fill:none;stroke:#000000;stroke-width:2.135;stroke-linecap:round;stroke-linejoin:round;stroke-miterlimit:4;stroke-dasharray:none;stroke-opacity:1;marker-start:url(#marker4467);marker-end:url(#marker4471)" />
  <path
     inkscape:connector-curvature="0"
     id="path4463-6"
     d="m 558.09455,-38.003264 -160.677,-91.653796"
     style="fill:none;stroke:#000000;stroke-width:2.13543;stroke-linecap:round;stroke-linejoin:round;stroke-miterlimit:4;stroke-dasharray:none;stroke-opacity:1;marker-start:url(#marker4467-1);marker-end:url(#marker4471-8)" />
  <rect
     rx="1.2435695"
     ry="1.2435695"
     y="-230.104"
     x="150.01076"
     height="82.60157"
     width="421.65253"
     id="rect4323-4"
     style="opacity:1;fill:#ececec;fill-opacity:1;fill-rule:nonzero;stroke:#808080;stroke-width:3.77953;stroke-linecap:round;stroke-linejoin:round;stroke-miterlimit:4;stroke-dasharray:none;stroke-dashoffset:0;stroke-opacity:1;paint-order:stroke fill markers" />
  <g
     style="stroke-width:0.939143"
     transform="matrix(1.0661991,0,0,1.0634034,-63.753422,-28.815523)"
     id="g5773">
    <path
       inkscape:connector-curvature="0"
       d="m 257.96181,-148.50856 c 0.59335,0 1.07492,-0.50281 1.07492,-1.12235 0,-0.61953 -0.48157,-1.12235 -1.07492,-1.12235 h -9.06004 v -6.73298 h 9.06004 c 0.59335,0 1.07492,-0.50281 1.07492,-1.12235 0,-0.61954 -0.48157,-1.12234 -1.07492,-1.12234 h -9.06004 v -2.40577 c 0,-2.03369 -1.58283,-3.68804 -3.52845,-3.68804 h -2.30197 v -9.45467 c 0,-0.61953 -0.48156,-1.12235 -1.07492,-1.12235 -0.59336,0 -1.07493,0.50282 -1.07493,1.12235 v 9.45467 h -6.44903 v -9.45467 c 0,-0.61953 -0.48157,-1.12235 -1.07493,-1.12235 -0.59336,0 -1.07493,0.50282 -1.07493,1.12235 v 9.45467 h -6.4485 v -9.45467 c 0,-0.61953 -0.48157,-1.12235 -1.07493,-1.12235 -0.59335,0 -1.07493,0.50282 -1.07493,1.12235 v 9.45467 h -2.30195 c -1.94778,0 -3.53168,1.65435 -3.53168,3.68804 v 2.40577 h -9.05735 c -0.59336,0 -1.07493,0.5028 -1.07493,1.12234 0,0.61954 0.48157,1.12235 1.07493,1.12235 h 9.05735 v 6.73298 h -9.05735 c -0.59336,0 -1.07493,0.50282 -1.07493,1.12235 0,0.62009 0.48157,1.12235 1.07493,1.12235 h 9.05735 v 6.73073 h -9.05735 c -0.59336,0 -1.07493,0.50281 -1.07493,1.12235 0,0.61954 0.48157,1.12235 1.07493,1.12235 h 9.05735 v 2.40239 c 0,2.03314 1.58445,3.68692 3.53168,3.68692 h 2.30195 v 9.4586 c 0,0.61953 0.48158,1.12235 1.07493,1.12235 0.59336,0 1.07493,-0.50282 1.07493,-1.12235 v -9.45804 h 6.4485 v 9.4586 c 0,0.61954 0.48157,1.12235 1.07493,1.12235 0.59336,0 1.07493,-0.50281 1.07493,-1.12235 v -9.4586 h 6.44849 v 9.4586 c 0,0.61954 0.48157,1.12235 1.07493,1.12235 0.59336,0 1.07493,-0.50281 1.07493,-1.12235 v -9.4586 h 2.30196 c 1.94562,0 3.52845,-1.65379 3.52845,-3.68692 v -2.40239 h 9.06004 c 0.59336,0 1.07492,-0.50281 1.07492,-1.12235 0,-0.61954 -0.48156,-1.12235 -1.07492,-1.12235 h -9.0595 v -6.73129 z m -11.2099,11.37782 c 0,0.79518 -0.61808,1.44222 -1.37859,1.44222 H 221.4223 c -0.76213,0 -1.38183,-0.64704 -1.38183,-1.44222 v -25.00596 c 0,-0.79574 0.6197,-1.44333 1.38183,-1.44333 h 23.95102 c 0.76051,0 1.37859,0.64759 1.37859,1.44333 z"
       id="path5194"
       style="stroke-width:0.939143" />
    <path
       inkscape:connector-curvature="0"
       d="m 240.35018,-158.21521 c -1.42805,0 -2.69485,0.7228 -3.49245,1.8328 l -7.01283,-1.23402 c -0.41923,-1.80193 -1.97304,-3.14539 -3.82621,-3.14539 -2.17297,0 -3.94123,1.84571 -3.94123,4.11454 0,1.98319 1.35065,3.64258 3.14094,4.02979 l 1.52533,4.72847 c -1.09966,0.97868 -1.80051,2.43269 -1.80051,4.05617 0,2.93943 2.29067,5.33116 5.10592,5.33116 2.81523,0 5.10591,-2.39173 5.10591,-5.33116 0,-0.97252 -0.2553,-1.88218 -0.69226,-2.66839 l 3.9079,-3.09207 c 0.59498,0.31706 1.26573,0.5 1.97895,0.5 2.40784,0 4.36689,-2.04604 4.36689,-4.56066 0,-2.51463 -1.95851,-4.56124 -4.36635,-4.56124 z m -16.12232,1.56793 c 0,-1.03088 0.80351,-1.86984 1.79137,-1.86984 0.98786,0 1.79137,0.83896 1.79137,1.86984 0,1.03143 -0.80351,1.8704 -1.79137,1.8704 -0.98786,0 -1.79137,-0.83897 -1.79137,-1.8704 z m 3.19845,3.83899 c 1.0975,-0.44051 1.95959,-1.37655 2.33152,-2.54773 l 6.26576,1.10271 c -0.0247,0.19641 -0.0419,0.39507 -0.0419,0.59821 0,0.94221 0.27518,1.81821 0.74546,2.54549 l -3.71656,2.94056 c -0.8363,-0.62459 -1.85695,-0.99608 -2.96089,-0.99608 -0.47943,0 -0.94218,0.0747 -1.38237,0.2037 z m 2.62336,12.06134 c -1.63012,0 -2.95605,-1.38498 -2.95605,-3.08646 0,-1.70149 1.32593,-3.08646 2.95605,-3.08646 1.63013,0 2.95606,1.38497 2.95606,3.08646 0,1.70148 -1.32593,3.08646 -2.95606,3.08646 z m 10.30051,-10.59162 c -1.22273,0 -2.21812,-1.03929 -2.21812,-2.31597 0,-1.27667 0.99539,-2.31596 2.21812,-2.31596 1.22219,0 2.21703,1.03929 2.21703,2.31596 0,1.27668 -0.99484,2.31597 -2.21703,2.31597 z"
       id="path5196"
       style="stroke-width:0.939143" />
  </g>
  <flowRoot
     style="font-style:normal;font-weight:normal;font-size:18.6667px;line-height:1.25;font-family:sans-serif;letter-spacing:0px;word-spacing:0px;fill:#000000;fill-opacity:1;stroke:none"
     id="flowRoot5783"
     xml:space="preserve"><flowRegion
       id="flowRegion5785"><rect
         y="86.412025"
         x="-452.86301"
         height="35.204899"
         width="43.206013"
         id="rect5787" /></flowRegion><flowPara
       id="flowPara5789" /></flowRoot>
  <flowRoot
     style="font-style:normal;font-variant:normal;font-weight:600;font-stretch:normal;font-size:18.6667px;line-height:1.25;font-family:'Segoe UI';-inkscape-font-specification:'Segoe UI Semi-Bold';letter-spacing:0px;word-spacing:0px;fill:#000000;fill-opacity:1;stroke:none"
     id="flowRoot1345"
     xml:space="preserve"><flowRegion
       style="font-style:normal;font-variant:normal;font-weight:600;font-stretch:normal;font-family:'Segoe UI';-inkscape-font-specification:'Segoe UI Semi-Bold'"
       id="flowRegion1347"><rect
         style="-inkscape-font-specification:'Segoe UI Semi-Bold';font-family:'Segoe UI';font-weight:600;font-style:normal;font-stretch:normal;font-variant:normal;"
         y="443.26169"
         x="-340.84744"
         height="128.01781"
         width="320.04453"
         id="rect1349" /></flowRegion><flowPara
       id="flowPara1351" /></flowRoot>
  <text
     id="text1355-8"
     y="-192.47255"
     x="764.12384"
     style="font-style:normal;font-weight:normal;line-height:1.25;font-family:sans-serif;letter-spacing:0px;word-spacing:0px;baseline-shift:baseline;fill:#000000;fill-opacity:1;stroke:none"
     xml:space="preserve"><tspan
       id="tspan1473"
       style="font-style:normal;font-variant:normal;font-weight:600;font-stretch:normal;font-size:17.3333px;font-family:'Segoe UI';-inkscape-font-specification:'Segoe UI Semi-Bold';baseline-shift:baseline"
       y="-192.47255"
       x="764.12384"
       sodipodi:role="line">Low dynamic range images from </tspan><tspan
       id="tspan1477"
       style="font-style:normal;font-variant:normal;font-weight:600;font-stretch:normal;font-size:17.3333px;font-family:'Segoe UI';-inkscape-font-specification:'Segoe UI Semi-Bold';baseline-shift:baseline"
       y="-170.80592"
       x="764.12384"
       sodipodi:role="line">multiple exposures are merged to </tspan><tspan
       id="tspan1479"
       style="font-style:normal;font-variant:normal;font-weight:600;font-stretch:normal;font-size:17.3333px;font-family:'Segoe UI';-inkscape-font-specification:'Segoe UI Semi-Bold';baseline-shift:baseline"
       y="-149.1393"
       x="764.12384"
       sodipodi:role="line">generate HDR images.</tspan></text>
  <text
     id="text1526"
     y="-351.60986"
     x="561.23804"
     style="font-style:normal;font-weight:normal;font-size:18.6667px;line-height:1.25;font-family:sans-serif;letter-spacing:0px;word-spacing:0px;fill:#000000;fill-opacity:1;stroke:none"
     xml:space="preserve" />
  <path
     sodipodi:nodetypes="cc"
     id="path1636"
     d="M 591.1088,29.260587 250.85402,183.63665"
     style="fill:none;stroke:#000000;stroke-width:2.135;stroke-linecap:round;stroke-linejoin:round;stroke-miterlimit:4;stroke-dasharray:17.08,17.08;stroke-dashoffset:0;stroke-opacity:1" />
  <path
     sodipodi:nodetypes="cc"
     style="fill:none;stroke:#000000;stroke-width:2.135;stroke-linecap:round;stroke-linejoin:round;stroke-miterlimit:4;stroke-dasharray:17.08, 17.08;stroke-dashoffset:0;stroke-opacity:1"
     d="M 916.98714,166.94612 591.13439,29.372409"
     id="path1636-0" />
  <text
     xml:space="preserve"
     style="font-style:normal;font-weight:normal;line-height:1.25;font-family:sans-serif;text-align:center;letter-spacing:0px;word-spacing:0px;baseline-shift:baseline;text-anchor:middle;fill:#000000;fill-opacity:1;stroke:none"
     x="595.41223"
     y="113.63292"
     id="text1355-8-6"><tspan
       id="tspan1712"
       sodipodi:role="line"
       x="595.41223"
       y="113.63292"
       style="font-style:normal;font-variant:normal;font-weight:600;font-stretch:normal;font-size:17.3333px;font-family:'Segoe UI';-inkscape-font-specification:'Segoe UI Semi-Bold';text-align:center;baseline-shift:baseline;text-anchor:middle">Ceiling-based camera captures </tspan><tspan
       id="tspan1740"
       sodipodi:role="line"
       x="597.79895"
       y="135.29955"
       style="font-style:normal;font-variant:normal;font-weight:600;font-stretch:normal;font-size:17.3333px;font-family:'Segoe UI';-inkscape-font-specification:'Segoe UI Semi-Bold';text-align:center;baseline-shift:baseline;text-anchor:middle">user's direct  task area. </tspan></text>
  <g
     style="stroke-width:2.23997"
     transform="matrix(0,0.34894858,-0.571163,0,1056.5077,-455.10712)"
     id="g1734">
    <path
       sodipodi:nodetypes="cc"
       id="path1636-1"
       d="M 2058.8478,268.3968 1736.2415,395.75804"
       style="fill:none;stroke:#000000;stroke-width:4.78231;stroke-linecap:round;stroke-linejoin:round;stroke-miterlimit:4;stroke-dasharray:38.2584, 38.2584;stroke-dashoffset:0;stroke-opacity:1" />
    <path
       sodipodi:nodetypes="cc"
       style="fill:none;stroke:#000000;stroke-width:4.78231;stroke-linecap:round;stroke-linejoin:round;stroke-miterlimit:4;stroke-dasharray:38.2584, 38.2584;stroke-dashoffset:0;stroke-opacity:1"
       d="M 2360.8177,400.66099 2058.8478,268.3968"
       id="path1636-0-2" />
  </g>
  <path
     inkscape:original-d="m 875.87732,292.88036 c -6.48141,-3.35092 -13.61191,-6.70111 -20.41916,-10.05057 -6.80724,-3.34945 12.9654,-36.29446 19.44681,-54.44058"
     inkscape:path-effect="#path-effect1852"
     id="path1850"
     d="m 875.87732,292.88036 c -7.71273,-0.76791 -15.10624,-4.40709 -20.41916,-10.05057 -4.07309,-4.32651 -6.92316,-9.79222 -8.13904,-15.60862 -1.21588,-5.81639 -0.79394,-11.9661 1.20495,-17.56192 1.9989,-5.59582 5.56877,-10.62105 10.19461,-14.35071 4.62585,-3.72967 10.29384,-6.15262 16.18629,-6.91933"
     style="fill:none;stroke:#000000;stroke-width:2.135;stroke-linecap:butt;stroke-linejoin:miter;stroke-miterlimit:4;stroke-dasharray:none;stroke-opacity:1" />
  <path
     style="fill:none;stroke:#000000;stroke-width:2.13543;stroke-linecap:butt;stroke-linejoin:miter;stroke-miterlimit:4;stroke-dasharray:none;stroke-opacity:1;marker-start:url(#marker4504-9);marker-end:url(#marker4508-3)"
     d="M 826.32912,348.07198 605.60356,527.44192"
     id="path4500-5"
     inkscape:connector-curvature="0" />
  <text
     id="text1355-8-6-5"
     y="553.34906"
     x="597.73279"
     style="font-style:normal;font-weight:normal;line-height:1.25;font-family:sans-serif;text-align:center;letter-spacing:0px;word-spacing:0px;baseline-shift:baseline;text-anchor:middle;fill:#000000;fill-opacity:1;stroke:none"
     xml:space="preserve"><tspan
       style="font-style:normal;font-variant:normal;font-weight:600;font-stretch:normal;font-size:17.3333px;font-family:'Segoe UI';-inkscape-font-specification:'Segoe UI Semi-Bold';text-align:center;baseline-shift:baseline;text-anchor:middle"
       y="553.34906"
       x="597.73279"
       sodipodi:role="line"
       id="tspan1740-7">Vertical Viual Field (VVF)</tspan></text>
  <text
     xml:space="preserve"
     style="font-style:normal;font-variant:normal;font-weight:normal;font-stretch:normal;font-size:17.3333px;line-height:1.25;font-family:'Segoe UI';-inkscape-font-specification:'Segoe UI';letter-spacing:0px;word-spacing:0px;fill:#000000;fill-opacity:1;stroke:none"
     x="226.06062"
     y="-206.42537"
     id="text1563"><tspan
       sodipodi:role="line"
       id="tspan1561"
       x="226.06062"
       y="-206.42537"
       style="font-style:normal;font-variant:normal;font-weight:600;font-stretch:normal;font-size:17.3333px;font-family:'Segoe UI';-inkscape-font-specification:'Segoe UI Semi-Bold'">On-device LumNet model can processes </tspan><tspan
       sodipodi:role="line"
       x="226.06062"
       y="-184.75874"
       style="font-style:normal;font-variant:normal;font-weight:600;font-stretch:normal;font-size:17.3333px;font-family:'Segoe UI';-inkscape-font-specification:'Segoe UI Semi-Bold'"
       id="tspan1565">ceiling-based images locally to estimate </tspan><tspan
       sodipodi:role="line"
       x="226.06062"
       y="-163.09213"
       style="font-style:normal;font-variant:normal;font-weight:600;font-stretch:normal;font-size:17.3333px;font-family:'Segoe UI';-inkscape-font-specification:'Segoe UI Semi-Bold'"
       id="tspan1567">luminance for adaptive lighting experience.</tspan></text>
</svg>
