<?xml version="1.0" encoding="UTF-8" standalone="no"?>
<svg
   viewBox="0 0 467.08295 303.70255"
   version="1.1"
   id="svg1619"
   sodipodi:docname="Sleep analysis-bro.svg"
   inkscape:version="1.1 (c68e22c387, 2021-05-23)"
   width="467.08295"
   height="303.70255"
   xmlns:inkscape="http://www.inkscape.org/namespaces/inkscape"
   xmlns:sodipodi="http://sodipodi.sourceforge.net/DTD/sodipodi-0.dtd"
   xmlns="http://www.w3.org/2000/svg"
   xmlns:svg="http://www.w3.org/2000/svg">
  <sodipodi:namedview
     id="namedview1621"
     pagecolor="#ffffff"
     bordercolor="#666666"
     borderopacity="1.0"
     inkscape:pageshadow="2"
     inkscape:pageopacity="0.0"
     inkscape:pagecheckerboard="0"
     showgrid="false"
     inkscape:zoom="1.566"
     inkscape:cx="168.26309"
     inkscape:cy="161.87739"
     inkscape:window-width="1920"
     inkscape:window-height="1001"
     inkscape:window-x="-9"
     inkscape:window-y="-9"
     inkscape:window-maximized="1"
     inkscape:current-layer="svg1619"
     fit-margin-top="0"
     fit-margin-left="0"
     fit-margin-right="0"
     fit-margin-bottom="0" />
  <defs
     id="defs1393">
    <clipPath
       id="freepik--clip-path--inject-17">
      <path
         d="m 424.33,390.33 -307.83,-1 v -60 a 4.5,4.5 0 0 1 4.5,-4.5 h 295 a 4.5,4.5 0 0 1 4.5,4.5 z"
         style="fill:#ffffff;stroke:#263238;stroke-linecap:round;stroke-linejoin:round"
         id="path1390" />
    </clipPath>
  </defs>
  <g
     id="freepik--background-simple--inject-17"
     transform="translate(-50.53653,-95.067462)">
    <path
       d="m 450.6,265.14 c 2.07,-27.54 -4.34,-56.32 -12.92,-82 C 424.93,145.09 400.17,106 358.48,97 c -24,-5.2 -48.5,0.37 -69.11,13.39 -19.82,12.53 -35.28,28.71 -59.64,31.85 -24.65,3.17 -49.94,1.89 -74.72,1.89 -63.7,0 -115.4,66.93 -102.48,136.64 12.92,69.71 73.86,118 125.56,118 46.45,0 84.67,-27.87 128.8,-35.36 21.88,-3.71 43.85,0.68 65.51,-4.88 25.16,-6.46 48.83,-21.88 62.77,-44.21 9.51,-15.16 14.13,-31.93 15.43,-49.18 z"
       style="fill:#90caf9"
       id="path1395" />
    <path
       d="m 450.6,265.14 c 2.07,-27.54 -4.34,-56.32 -12.92,-82 C 424.93,145.09 400.17,106 358.48,97 c -24,-5.2 -48.5,0.37 -69.11,13.39 -19.82,12.53 -35.28,28.71 -59.64,31.85 -24.65,3.17 -49.94,1.89 -74.72,1.89 -63.7,0 -115.4,66.93 -102.48,136.64 12.92,69.71 73.86,118 125.56,118 46.45,0 84.67,-27.87 128.8,-35.36 21.88,-3.71 43.85,0.68 65.51,-4.88 25.16,-6.46 48.83,-21.88 62.77,-44.21 9.51,-15.16 14.13,-31.93 15.43,-49.18 z"
       style="opacity:0.7;fill:#ffffff"
       id="path1397" />
  </g>
  <g
     id="freepik--Frame--inject-17"
     transform="translate(-50.53653,-95.067462)">
    <line
       x1="197.67"
       y1="142"
       x2="197.67"
       y2="392"
       style="fill:none;stroke:#263238;stroke-linecap:round;stroke-linejoin:round"
       id="line1400" />
    <rect
       x="94.809998"
       y="168.67"
       width="77.699997"
       height="66.669998"
       style="fill:#263238;stroke:#263238;stroke-linecap:round;stroke-linejoin:round"
       id="rect1402" />
    <rect
       x="98.699997"
       y="172"
       width="69.93"
       height="60"
       style="fill:#ffffff;stroke:#263238;stroke-linecap:round;stroke-linejoin:round"
       id="rect1404" />
    <path
       d="m 168.63,190.19 c -12.57,8.95 -30.59,14.88 -51.49,24.21 a 86,86 0 0 0 -18.44,11 v 6.6 h 69.93 z"
       style="fill:#90caf9;stroke:#263238;stroke-linecap:round;stroke-linejoin:round"
       id="path1406" />
    <path
       d="m 168.63,172 h -28.06 c -3.12,2.67 -6.82,5.66 -11.18,8.86 -16,11.71 -9,23.42 10.12,14.91 9.83,-4.38 20.79,-14.49 29.12,-23.31 z"
       style="fill:#90caf9;stroke:#263238;stroke-linecap:round;stroke-linejoin:round"
       id="path1408" />
    <path
       d="m 110.75,178.73 c 0,-4.89 -6.08,-1.06 -12,3.87 V 195 c 5.79,-5.75 12,-11.9 12,-16.27 z"
       style="fill:#90caf9;stroke:#263238;stroke-linecap:round;stroke-linejoin:round"
       id="path1410" />
    <circle
       cx="149.09"
       cy="216"
       r="7.4499998"
       transform="rotate(-76.32,149.08672,215.99527)"
       style="fill:#ffffff;stroke:#263238;stroke-linecap:round;stroke-linejoin:round"
       id="circle1412" />
    <path
       d="m 116.61,198.16 a 5.59,5.59 0 1 1 -5.59,-5.59 5.59,5.59 0 0 1 5.59,5.59 z"
       style="fill:#90caf9;stroke:#263238;stroke-linecap:round;stroke-linejoin:round"
       id="path1414" />
  </g>
  <g
     id="freepik--Bed--inject-17"
     transform="translate(-50.53653,-95.067462)">
    <path
       d="m 110,278.67 v 110.66 h 64.33 V 278.67 Z m 6.24,19.45 v -9.56 h 3.44 v 9.56 z m 5.86,0 v -9.56 h 3.55 v 9.56 z m 6,0 v -9.56 h 3 v 9.56 z m 5.4,0 v -9.56 h 3 v 9.56 z m 5.4,0 v -9.56 h 3 v 9.56 z m 5.41,0 v -9.56 h 3 v 9.56 z m 5.4,0 v -9.56 h 3 v 9.56 z m 5.41,0 v -9.56 h 3 v 9.56 z m 5.4,0 v -9.56 h 3 v 9.56 z m 7.6,0 h -2.2 v -9.56 h 2.2 z"
       style="fill:#ffffff;stroke:#263238;stroke-linecap:round;stroke-linejoin:round"
       id="path1417" />
    <rect
       x="110"
       y="273.25"
       width="3.5599999"
       height="116.08"
       style="fill:#ffffff;stroke:#263238;stroke-linecap:round;stroke-linejoin:round"
       id="rect1419" />
    <rect
       x="170.77"
       y="273.25"
       width="3.5599999"
       height="116.08"
       style="fill:#ffffff;stroke:#263238;stroke-linecap:round;stroke-linejoin:round"
       id="rect1421" />
    <path
       d="m 152.79,302.19 c 0,0 -3.64,-1 -11.68,2.1 -8.04,3.1 -12.24,13.2 -12.82,14.35 -0.58,1.15 -3.63,4 -2.68,5.36 0.95,1.36 3.45,1 3.45,1 h 50.51 c 0,0 -6.88,-24.15 -26.78,-22.81 z"
       style="fill:#ffffff;stroke:#263238;stroke-linecap:round;stroke-linejoin:round"
       id="path1423" />
    <path
       d="m 178.61,299.29 c 0,0 4.44,2 6.86,3.23 2.42,1.23 4,1.82 2.83,-1.62 -1.17,-3.44 -5.24,-9.07 -3.42,-10.89 1.82,-1.82 38.12,4.23 38.12,4.23 v 31.7 h -55.3 l 1.42,-21 c 0,0 3.43,1.41 5.65,-0.81 a 30.42,30.42 0 0 0 3.84,-4.84 z"
       style="fill:#ffffff;stroke:#263238;stroke-linecap:round;stroke-linejoin:round"
       id="path1425" />
    <polygon
       points="204.09,324.94 204.09,292.15 184.3,292.54 186.82,300.88 190.31,310 194.97,314.65 183.91,319.31 197.88,324.94 "
       style="fill:#90caf9;stroke:#263238;stroke-linecap:round;stroke-linejoin:round"
       id="polygon1427" />
    <path
       d="m 156.41,312 c 0,0 0.62,8.88 1.24,11.71 0.62,2.83 3.1,3 7.23,2.42 4.13,-0.58 24.58,-2.42 26.64,-3.23 2.06,-0.81 -21.48,-9.49 -24.37,-10.3 -2.89,-0.81 -11.15,-3.82 -10.74,-0.6 z"
       style="fill:#90caf9;stroke:#263238;stroke-linecap:round;stroke-linejoin:round"
       id="path1429" />
    <path
       d="m 155.79,305.14 c 0,0 0.2,2.83 -0.6,3 -0.8,0.17 -1.62,-4.84 -1.62,-4.84 0,0 -1.41,5.65 -4.64,5.45 -3.23,-0.2 -3,-11.91 2,-18 5,-6.09 10.29,-8.08 13.93,-6.46 3.64,1.62 5.65,5.85 5.65,5.85 a 32.57,32.57 0 0 1 2.22,5.05 c 0.2,1.21 -3,0.61 -6.26,1.21 -3.26,0.6 -3.83,-0.4 -5.65,2.22 -1.82,2.62 -5.03,6.52 -5.03,6.52 z"
       style="fill:#263238;stroke:#263238;stroke-linecap:round;stroke-linejoin:round"
       id="path1431" />
    <path
       d="m 155.79,305.14 a 28.42,28.42 0 0 0 12.92,7.27 c 8.08,2 14.38,-2.14 13.73,-6.06 -1.21,-7.26 -7.67,-12.51 -7.67,-12.51 a 5.62,5.62 0 0 0 -2,-4.24 c -2,-1.41 -4,-1.41 -4.24,0.2 a 21.51,21.51 0 0 0 -0.2,2.22 l 2.83,1.62 -0.81,0.6 a 21.33,21.33 0 0 0 -3.84,-0.6 c -1.41,0 -1.21,1.41 -2.82,1.41 -1.61,0 -2.63,-3.63 -3.23,-1.82 -0.6,1.81 -4.67,11.91 -4.67,11.91 z"
       style="fill:#ffffff;stroke:#263238;stroke-linecap:round;stroke-linejoin:round"
       id="path1433" />
    <path
       d="m 159,308 c 0,0 2.42,-8.08 4.85,-11.91 2.43,-3.83 7.47,0 7.67,2.62 0.2,2.62 -2.63,3.64 -4,5.45 -1.37,1.81 0.2,4.85 -0.4,6.26 -0.6,1.41 -5.47,3.81 -8.12,-2.42 z"
       style="fill:#263238"
       id="path1435" />
    <polyline
       points="166.29 305.75 169.12 308.58 170.33 307.36"
       style="fill:none;stroke:#263238;stroke-linecap:round;stroke-linejoin:round"
       id="polyline1437" />
    <path
       d="m 200,315.64 c 0,0 -11.51,-1.21 -20,-2.42 -8.49,-1.21 -17,-4.85 -21,-5.25 -4,-0.4 -3.63,1.82 -4.44,4.44 -0.81,2.62 0.4,5 1.21,5 0.81,0 0.41,0.81 0.81,0 0.4,-0.81 0.61,-5.45 0.61,-5.45 a 49.6,49.6 0 0 0 5,1.61 8.17,8.17 0 0 0 4.24,0 c 0,0 25.24,13.13 30.08,13.53 4.84,0.4 4.85,-3.63 4.44,-6.06 -0.41,-2.43 -0.95,-5.4 -0.95,-5.4 z"
       style="fill:#ffffff;stroke:#263238;stroke-linecap:round;stroke-linejoin:round"
       id="path1439" />
    <polygon
       points="177.31,310.76 173.88,320.37 189.89,326.32 200.65,326.32 200.65,314.19 "
       style="fill:#90caf9;stroke:#263238;stroke-linecap:round;stroke-linejoin:round"
       id="polygon1441" />
    <path
       d="m 202.33,285.33 c 0,0 -20.66,1.34 -19.33,6 1.33,4.66 18,13 21.67,13 3.67,0 -2.34,-19 -2.34,-19 z"
       style="fill:#90caf9;stroke:#263238;stroke-linecap:round;stroke-linejoin:round"
       id="path1443" />
    <path
       d="m 169.55,315.62 a 7.52,7.52 0 0 0 -6.4,4.47"
       style="fill:none;stroke:#263238;stroke-linecap:round;stroke-linejoin:round"
       id="path1445" />
    <polygon
       points="181.97,299.52 187.01,310.58 194,311.74 187.01,300.1 "
       style="fill:#90caf9;stroke:#263238;stroke-linecap:round;stroke-linejoin:round"
       id="polygon1447" />
    <path
       d="m 216,283 c 0,0 29.67,5.33 36.33,5.33 6.66,0 15.34,-3 40.34,0.34 25,3.34 38,18.66 41.33,20.33 3.33,1.67 21,1.33 31.67,4 10.67,2.67 20.33,15.33 20.33,15.33 H 213 Z"
       style="fill:#90caf9;stroke:#263238;stroke-linecap:round;stroke-linejoin:round"
       id="path1449" />
    <path
       d="m 253.33,307 c 0,0 11,17.33 23,20"
       style="fill:none;stroke:#263238;stroke-linecap:round;stroke-linejoin:round"
       id="path1451" />
    <path
       d="m 249.33,309 c 0,0 7,7.33 12.67,11"
       style="fill:none;stroke:#263238;stroke-linecap:round;stroke-linejoin:round"
       id="path1453" />
    <path
       d="m 207.5,280.69 c 0,0 -9.67,1 -9.67,3.67 0,2.67 -4,8.95 -1.26,42.79 0.11,1.38 20.9,1.75 20.83,0 -1.72,-41.69 4.77,-43.46 3.43,-45.12 -1.34,-1.66 -13.33,-1.34 -13.33,-1.34 z"
       style="fill:#ffffff;stroke:#263238;stroke-linecap:round;stroke-linejoin:round"
       id="path1455" />
    <path
       d="m 424.33,390.33 -307.83,-1 v -60 a 4.5,4.5 0 0 1 4.5,-4.5 h 295 a 4.5,4.5 0 0 1 4.5,4.5 z"
       style="fill:#ffffff"
       id="path1457" />
    <g
       clip-path="url(#freepik--clip-path--inject-17)"
       id="g1461">
      <path
         d="m 424.33,390.33 -307.83,-1 v -60 a 4.5,4.5 0 0 1 4.5,-4.5 h 295 a 4.5,4.5 0 0 1 4.5,4.5 z"
         style="opacity:0.36;stroke:#263238;stroke-linecap:round;stroke-linejoin:round"
         id="path1459" />
    </g>
    <path
       d="m 424.33,390.33 -307.83,-1 v -60 a 4.5,4.5 0 0 1 4.5,-4.5 h 295 a 4.5,4.5 0 0 1 4.5,4.5 z"
       style="fill:none;stroke:#263238;stroke-linecap:round;stroke-linejoin:round"
       id="path1463" />
    <path
       d="M 416,324.83 H 183.85 v 64.72 l 240.48,0.78 -3.83,-61 a 4.5,4.5 0 0 0 -4.5,-4.5 z"
       style="fill:#90caf9;stroke:#263238;stroke-linecap:round;stroke-linejoin:round"
       id="path1465" />
    <path
       d="m 419.53,334.24 9.48,55 a 1,1 0 0 1 -1,1.07 h -7.94 z"
       style="fill:#263238;stroke:#263238;stroke-linecap:round;stroke-linejoin:round"
       id="path1467" />
    <path
       d="m 416,324.83 h -85.08 a 4.25,4.25 0 0 0 -4.25,4.25 l -4.34,60.25 102,1 -3.83,-61 a 4.5,4.5 0 0 0 -4.5,-4.5 z"
       style="fill:#90caf9;stroke:#263238;stroke-linecap:round;stroke-linejoin:round"
       id="path1469" />
    <polygon
       points="255.36,389.36 258.48,389.64 263.02,330.6 "
       style="fill:#263238"
       id="polygon1471" />
    <polygon
       points="410.69,389.36 413.81,389.64 418.35,330.6 "
       style="fill:#263238"
       id="polygon1473" />
    <polygon
       points="267.68,389.36 270.83,389.64 267.7,330.6 "
       style="fill:#263238"
       id="polygon1475" />
    <polygon
       points="335.18,389.36 338.33,389.64 335.2,330.6 "
       style="fill:#263238"
       id="polygon1477" />
    <polygon
       points="204.96,389.36 208.09,389.64 212.63,330.6 "
       style="fill:#263238"
       id="polygon1479" />
    <polygon
       points="217.28,389.36 220.44,389.64 217.3,330.6 "
       style="fill:#263238"
       id="polygon1481" />
    <path
       d="m 178.88,324.41 c -1.6,0 -4.31,1.23 -4.61,2.8 -1.58,8.49 0.23,28.33 0.23,37.62 a 215.53,215.53 0 0 1 -1.75,24.5 h 24.53 c 0,0 -0.62,-37.85 -1.28,-50 -0.61,-11.23 4.91,-14.49 4.91,-14.49 z"
       style="fill:#ffffff;stroke:#263238;stroke-linecap:round;stroke-linejoin:round"
       id="path1483" />
  </g>
  <g
     id="freepik--Lamp--inject-17"
     transform="translate(-50.53653,-95.067462)">
    <path
       d="m 126.7,313 -7.09,-13.84 v -19.33 h -6.79 v 19.36 L 105.73,313 a 2.43,2.43 0 0 0 2.17,3.55 h 16.63 A 2.44,2.44 0 0 0 126.7,313 Z"
       style="fill:#90caf9;stroke:#263238;stroke-linecap:round;stroke-linejoin:round"
       id="path1486" />
    <polygon
       points="133.96,283.83 98.46,283.83 107.34,253.33 125.09,253.33 "
       style="fill:#263238;stroke:#263238;stroke-linecap:round;stroke-linejoin:round"
       id="polygon1488" />
    <rect
       x="95"
       y="316"
       width="51.330002"
       height="73.330002"
       style="fill:#263238;stroke:#263238;stroke-linecap:round;stroke-linejoin:round"
       id="rect1490" />
    <rect
       x="122"
       y="316"
       width="24.33"
       height="73.330002"
       style="fill:#ffffff;stroke:#263238;stroke-linecap:round;stroke-linejoin:round"
       id="rect1492" />
    <rect
       x="123.33"
       y="321"
       width="21.67"
       height="15.67"
       style="fill:#ffffff;stroke:#263238;stroke-linecap:round;stroke-linejoin:round"
       id="rect1494" />
    <rect
       x="128.67"
       y="327.32999"
       width="11"
       height="3"
       style="fill:#263238;stroke:#263238;stroke-linecap:round;stroke-linejoin:round"
       id="rect1496" />
    <rect
       x="123.33"
       y="342.5"
       width="21.67"
       height="15.67"
       style="fill:#ffffff;stroke:#263238;stroke-linecap:round;stroke-linejoin:round"
       id="rect1498" />
    <rect
       x="128.67"
       y="348.82999"
       width="11"
       height="3"
       style="fill:#263238;stroke:#263238;stroke-linecap:round;stroke-linejoin:round"
       id="rect1500" />
    <rect
       x="123.33"
       y="364"
       width="21.67"
       height="15.67"
       style="fill:#ffffff;stroke:#263238;stroke-linecap:round;stroke-linejoin:round"
       id="rect1502" />
    <rect
       x="128.67"
       y="370.32999"
       width="11"
       height="3"
       style="fill:#263238;stroke:#263238;stroke-linecap:round;stroke-linejoin:round"
       id="rect1504" />
  </g>
  <g
     id="g6977"
     transform="translate(-109.81703,-19.44274)">
    <rect
       x="262.9505"
       y="65.620003"
       width="313.94949"
       height="124.74084"
       style="fill:#263238;stroke-width:0.8759"
       id="rect5779" />
    <path
       d="m 305,83.61 h -1.48 l -0.3,0.79 a 0.34,0.34 0 0 1 -0.31,0.21 h -0.12 a 0.36,0.36 0 0 1 -0.2,-0.44 l 1.41,-3.6 a 0.33,0.33 0 0 1 0.32,-0.21 0.32,0.32 0 0 1 0.32,0.21 l 1.36,3.59 a 0.36,0.36 0 0 1 -0.2,0.44 h -0.12 a 0.34,0.34 0 0 1 -0.31,-0.21 z m -0.25,-0.67 -0.49,-1.31 -0.49,1.31 z"
       style="fill:#ffffff"
       id="path5781" />
    <path
       d="m 310.37,82.06 -1,2.36 c 0,0 0,0 0,0 v 0 0 0 0 h -0.05 -0.32 -0.06 v 0 0 0 0 0 0 l -0.44,-1 -0.43,1 v 0 0 0 0 0 h -0.06 v 0 c 0,0 0,0 0,0 h -0.2 c 0,0 -0.05,0 -0.06,0 v 0 0 0 0 0 c 0,0 0,0 0,0 l -1,-2.36 a 0.3138471,0.3138471 0 1 1 0.58,-0.24 l 0.71,1.64 0.43,-1 a 0.33,0.33 0 0 1 0.3,-0.19 0.32,0.32 0 0 1 0.3,0.19 l 0.43,1 0.72,-1.64 a 0.3,0.3 0 0 1 0.41,-0.18 0.31,0.31 0 0 1 -0.26,0.42 z"
       style="fill:#ffffff"
       id="path5783" />
    <path
       d="m 314.15,83.1 v 1.19 a 0.32,0.32 0 0 1 -0.32,0.32 0.33,0.33 0 0 1 -0.32,-0.26 1.35,1.35 0 0 1 -0.81,0.26 1.46,1.46 0 0 1 -1,-0.44 1.57,1.57 0 0 1 -0.41,-1.07 1.53,1.53 0 0 1 0.41,-1.07 1.44,1.44 0 0 1 1,-0.46 1.36,1.36 0 0 1 0.81,0.27 0.34,0.34 0 0 1 0.32,-0.27 0.33,0.33 0 0 1 0.32,0.33 z m -0.65,0 a 0.91,0.91 0 0 0 -0.23,-0.63 0.79,0.79 0 0 0 -0.57,-0.25 0.76,0.76 0 0 0 -0.57,0.25 1,1 0 0 0 0,1.25 0.75,0.75 0 0 0 0.57,0.24 0.78,0.78 0 0 0 0.57,-0.24 0.91,0.91 0 0 0 0.23,-0.62 z"
       style="fill:#ffffff"
       id="path5785" />
    <path
       d="m 315.34,84.28 v -3.59 a 0.33,0.33 0 0 1 0.33,-0.34 0.34,0.34 0 0 1 0.34,0.34 v 2.1 l 1.25,-1.25 a 0.36,0.36 0 0 1 0.48,0 0.34,0.34 0 0 1 0,0.48 l -0.92,0.91 0.94,1.13 a 0.32,0.32 0 0 1 -0.05,0.47 0.29,0.29 0 0 1 -0.21,0.08 0.34,0.34 0 0 1 -0.26,-0.12 l -0.89,-1.08 -0.34,0.33 v 0.54 a 0.34,0.34 0 0 1 -0.34,0.33 0.33,0.33 0 0 1 -0.33,-0.33 z"
       style="fill:#ffffff"
       id="path5787" />
    <path
       d="m 318.38,83.09 a 1.51,1.51 0 0 1 1.49,-1.52 1.45,1.45 0 0 1 1.46,1.43 v 0.09 a 0.3,0.3 0 0 1 -0.32,0.24 h -1.94 a 0.78,0.78 0 0 0 0.21,0.4 0.94,0.94 0 0 0 0.59,0.28 1,1 0 0 0 0.63,-0.16 0.35,0.35 0 0 1 0.46,0 0.28,0.28 0 0 1 0,0.39 1.54,1.54 0 0 1 -2.58,-1.12 z m 0.66,-0.3 h 1.73 a 1,1 0 0 0 -0.9,-0.64 0.85,0.85 0 0 0 -0.87,0.64 z"
       style="fill:#ffffff"
       id="path5789" />
    <path
       d="m 305,112.72 a 0.33,0.33 0 0 1 0.45,0 2,2 0 0 0 1.16,0.47 1.34,1.34 0 0 0 0.76,-0.23 0.55,0.55 0 0 0 0.26,-0.44 0.38,0.38 0 0 0 0,-0.19 0.57,0.57 0 0 0 -0.19,-0.19 2.34,2.34 0 0 0 -0.83,-0.28 v 0 a 3.49,3.49 0 0 1 -0.79,-0.24 1.29,1.29 0 0 1 -0.56,-0.47 0.88,0.88 0 0 1 -0.14,-0.5 1.1,1.1 0 0 1 0.48,-0.89 1.8,1.8 0 0 1 1.06,-0.33 2.38,2.38 0 0 1 1.32,0.49 0.31484123,0.31484123 0 0 1 -0.34,0.53 1.75,1.75 0 0 0 -1,-0.39 1.14,1.14 0 0 0 -0.68,0.2 0.49,0.49 0 0 0 -0.24,0.39 0.31,0.31 0 0 0 0.05,0.17 0.6,0.6 0 0 0 0.16,0.16 2.29,2.29 0 0 0 0.76,0.26 v 0 a 3.31,3.31 0 0 1 0.84,0.26 1.44,1.44 0 0 1 0.61,0.5 1,1 0 0 1 0.15,0.52 1.2,1.2 0 0 1 -0.52,1 2,2 0 0 1 -1.13,0.34 2.56,2.56 0 0 1 -1.56,-0.61 0.33,0.33 0 0 1 -0.08,-0.53 z"
       style="fill:#ffffff"
       id="path5791" />
    <path
       d="m 309.46,109.52 a 0.34,0.34 0 0 1 0.34,0.33 v 3.59 a 0.34,0.34 0 1 1 -0.67,0 v -3.59 a 0.33,0.33 0 0 1 0.33,-0.33 z"
       style="fill:#ffffff"
       id="path5793" />
    <path
       d="m 310.66,112.26 a 1.52,1.52 0 0 1 1.49,-1.53 1.45,1.45 0 0 1 1.46,1.42 v 0.08 a 0.3,0.3 0 0 1 -0.32,0.25 h -1.93 a 0.8,0.8 0 0 0 0.2,0.4 1,1 0 0 0 0.59,0.27 1,1 0 0 0 0.63,-0.15 0.35,0.35 0 0 1 0.46,0 0.28,0.28 0 0 1 0,0.4 1.56,1.56 0 0 1 -1.09,0.4 1.52,1.52 0 0 1 -1.49,-1.54 z m 0.66,-0.3 h 1.73 a 1,1 0 0 0 -0.9,-0.65 0.87,0.87 0 0 0 -0.83,0.69 z"
       style="fill:#ffffff"
       id="path5795" />
    <path
       d="m 314.37,112.26 a 1.51,1.51 0 0 1 1.48,-1.53 1.46,1.46 0 0 1 1.47,1.42 v 0 c 0,0 0,0 0,0 a 0.29,0.29 0 0 1 -0.31,0.25 h -1.94 a 0.82,0.82 0 0 0 0.21,0.4 1,1 0 0 0 0.58,0.27 1,1 0 0 0 0.63,-0.15 0.35,0.35 0 0 1 0.46,0 0.28,0.28 0 0 1 0,0.4 1.56,1.56 0 0 1 -1.09,0.4 1.51,1.51 0 0 1 -1.49,-1.46 z m 0.66,-0.3 h 1.72 a 1,1 0 0 0 -0.9,-0.65 A 0.86,0.86 0 0 0 315,112 Z"
       style="fill:#ffffff"
       id="path5797" />
    <path
       d="m 318.28,114.59 v -2.32 0 -1.2 a 0.33,0.33 0 0 1 0.33,-0.33 0.33,0.33 0 0 1 0.33,0.25 1.62,1.62 0 0 1 0.83,-0.25 1.51,1.51 0 0 1 1.47,1.53 1.49,1.49 0 0 1 -1.47,1.51 1.4,1.4 0 0 1 -0.82,-0.25 v 1.07 a 0.34,0.34 0 0 1 -0.67,0 z m 0.67,-2.33 a 0.81,0.81 0 0 0 0.24,0.61 0.75,0.75 0 0 0 0.58,0.26 0.78,0.78 0 0 0 0.57,-0.26 0.89,0.89 0 0 0 0.24,-0.61 0.93,0.93 0 0 0 -0.24,-0.61 0.77,0.77 0 0 0 -0.57,-0.25 0.74,0.74 0 0 0 -0.58,0.25 0.84,0.84 0 0 0 -0.19,0.61 z"
       style="fill:#ffffff"
       id="path5799" />
    <path
       d="M 306.57,142.61 V 139 a 0.33,0.33 0 0 1 0.33,-0.34 h 0.72 a 2.13,2.13 0 0 1 0,4.26 h -0.72 a 0.33,0.33 0 0 1 -0.33,-0.31 z m 0.67,-0.34 h 0.38 a 1.46,1.46 0 0 0 0,-2.91 h -0.38 z"
       style="fill:#ffffff"
       id="path5801" />
    <path
       d="m 310.66,141.42 a 1.51,1.51 0 0 1 1.49,-1.52 1.44,1.44 0 0 1 1.46,1.41 v 0.09 a 0.3,0.3 0 0 1 -0.32,0.24 h -1.93 a 0.76,0.76 0 0 0 0.2,0.4 0.94,0.94 0 0 0 0.59,0.28 1,1 0 0 0 0.63,-0.16 0.35,0.35 0 0 1 0.46,0 0.27,0.27 0 0 1 0,0.39 1.54,1.54 0 0 1 -2.58,-1.12 z m 0.66,-0.3 h 1.73 a 1,1 0 0 0 -0.9,-0.64 0.85,0.85 0 0 0 -0.83,0.64 z"
       style="fill:#ffffff"
       id="path5803" />
    <path
       d="m 314.37,141.42 a 1.5,1.5 0 0 1 1.48,-1.52 1.46,1.46 0 0 1 1.47,1.41 v 0 a 0.15,0.15 0 0 1 0,0.06 0.29,0.29 0 0 1 -0.31,0.24 h -1.94 a 0.78,0.78 0 0 0 0.21,0.4 0.91,0.91 0 0 0 0.58,0.28 1,1 0 0 0 0.63,-0.16 0.35,0.35 0 0 1 0.46,0 0.27,0.27 0 0 1 0,0.39 1.52,1.52 0 0 1 -1.09,0.4 1.5,1.5 0 0 1 -1.49,-1.5 z m 0.66,-0.3 h 1.72 a 1,1 0 0 0 -0.9,-0.64 0.84,0.84 0 0 0 -0.85,0.64 z"
       style="fill:#ffffff"
       id="path5805" />
    <path
       d="m 318.28,143.76 v -2.33 0 -1.21 a 0.34,0.34 0 0 1 0.66,-0.07 1.53,1.53 0 0 1 0.83,-0.25 1.52,1.52 0 0 1 0,3 1.4,1.4 0 0 1 -0.82,-0.25 v 1.07 a 0.34,0.34 0 0 1 -0.67,0 z m 0.67,-2.33 a 0.82,0.82 0 0 0 0.24,0.61 0.74,0.74 0 0 0 0.58,0.25 0.77,0.77 0 0 0 0.57,-0.25 0.91,0.91 0 0 0 0.24,-0.61 1,1 0 0 0 -0.24,-0.62 0.81,0.81 0 0 0 -0.57,-0.25 0.78,0.78 0 0 0 -0.58,0.25 0.86,0.86 0 0 0 -0.19,0.62 z"
       style="fill:#ffffff"
       id="path5807" />
    <path
       d="m 305,149.18 a 0.33,0.33 0 0 1 0.45,0 1.93,1.93 0 0 0 1.16,0.47 1.27,1.27 0 0 0 0.76,-0.23 0.54,0.54 0 0 0 0.26,-0.43 0.42,0.42 0 0 0 0,-0.2 0.55,0.55 0 0 0 -0.19,-0.18 2.32,2.32 0 0 0 -0.83,-0.29 v 0 a 3,3 0 0 1 -0.79,-0.24 1.23,1.23 0 0 1 -0.56,-0.47 0.88,0.88 0 0 1 -0.14,-0.5 1.13,1.13 0 0 1 0.48,-0.89 1.8,1.8 0 0 1 1.06,-0.32 2.38,2.38 0 0 1 1.32,0.49 0.31064449,0.31064449 0 1 1 -0.34,0.52 1.75,1.75 0 0 0 -1,-0.39 1.15,1.15 0 0 0 -0.68,0.21 0.47,0.47 0 0 0 -0.24,0.38 0.31,0.31 0 0 0 0.05,0.17 0.6,0.6 0 0 0 0.16,0.16 2.07,2.07 0 0 0 0.76,0.27 v 0 a 3.78,3.78 0 0 1 0.84,0.25 1.39,1.39 0 0 1 0.61,0.51 1,1 0 0 1 0.15,0.52 1.18,1.18 0 0 1 -0.52,0.94 1.92,1.92 0 0 1 -1.13,0.35 2.68,2.68 0 0 1 -1.56,-0.61 0.34,0.34 0 0 1 -0.08,-0.49 z"
       style="fill:#ffffff"
       id="path5809" />
    <path
       d="m 309.46,146 a 0.34,0.34 0 0 1 0.34,0.34 v 3.59 a 0.34,0.34 0 0 1 -0.67,0 v -3.59 a 0.34,0.34 0 0 1 0.33,-0.34 z"
       style="fill:#ffffff"
       id="path5811" />
    <path
       d="m 310.66,148.72 a 1.51,1.51 0 0 1 1.49,-1.52 1.44,1.44 0 0 1 1.46,1.41 v 0.09 a 0.3,0.3 0 0 1 -0.32,0.24 h -1.93 a 0.76,0.76 0 0 0 0.2,0.4 0.94,0.94 0 0 0 0.59,0.28 1,1 0 0 0 0.63,-0.16 0.35,0.35 0 0 1 0.46,0 0.27,0.27 0 0 1 0,0.39 1.56,1.56 0 0 1 -1.09,0.4 1.51,1.51 0 0 1 -1.49,-1.53 z m 0.66,-0.3 h 1.73 a 1,1 0 0 0 -0.9,-0.64 0.85,0.85 0 0 0 -0.83,0.64 z"
       style="fill:#ffffff"
       id="path5813" />
    <path
       d="m 314.37,148.72 a 1.5,1.5 0 0 1 1.48,-1.52 1.46,1.46 0 0 1 1.47,1.41 v 0 a 0.15,0.15 0 0 1 0,0.06 0.29,0.29 0 0 1 -0.31,0.24 h -1.94 a 0.78,0.78 0 0 0 0.21,0.4 0.91,0.91 0 0 0 0.58,0.28 1,1 0 0 0 0.63,-0.16 0.35,0.35 0 0 1 0.46,0 0.27,0.27 0 0 1 0,0.39 1.56,1.56 0 0 1 -1.09,0.4 1.5,1.5 0 0 1 -1.49,-1.5 z m 0.66,-0.3 h 1.72 a 1,1 0 0 0 -0.9,-0.64 0.84,0.84 0 0 0 -0.85,0.64 z"
       style="fill:#ffffff"
       id="path5815" />
    <path
       d="m 318.28,151.06 v -2.33 0 -1.21 a 0.32,0.32 0 0 1 0.33,-0.32 0.32,0.32 0 0 1 0.33,0.25 1.53,1.53 0 0 1 0.83,-0.25 1.52,1.52 0 0 1 0,3 A 1.4,1.4 0 0 1 319,150 v 1.07 a 0.34,0.34 0 0 1 -0.67,0 z m 0.67,-2.33 a 0.82,0.82 0 0 0 0.24,0.61 0.74,0.74 0 0 0 0.58,0.25 0.77,0.77 0 0 0 0.57,-0.25 0.91,0.91 0 0 0 0.24,-0.61 1,1 0 0 0 -0.24,-0.62 0.81,0.81 0 0 0 -0.57,-0.25 0.78,0.78 0 0 0 -0.58,0.25 0.86,0.86 0 0 0 -0.19,0.62 z"
       style="fill:#ffffff"
       id="path5817" />
    <path
       d="m 310.07,169.66 h -1 v 3.25 a 0.34,0.34 0 1 1 -0.67,0 v -3.25 h -1 a 0.34,0.34 0 0 1 -0.33,-0.34 0.34,0.34 0 0 1 0.33,-0.34 h 2.6 a 0.34,0.34 0 0 1 0.34,0.34 0.34,0.34 0 0 1 -0.27,0.34 z"
       style="fill:#ffffff"
       id="path5819" />
    <path
       d="m 311.76,169.44 a 0.33,0.33 0 0 1 -0.33,0.33 0.33,0.33 0 0 1 -0.33,-0.33 v -0.13 a 0.33,0.33 0 0 1 0.33,-0.33 0.33,0.33 0 0 1 0.33,0.33 z m 0,1.1 v 2.38 a 0.33,0.33 0 0 1 -0.33,0.33 0.33,0.33 0 0 1 -0.33,-0.33 v -2.38 a 0.33,0.33 0 0 1 0.33,-0.33 0.32,0.32 0 0 1 0.33,0.33 z"
       style="fill:#ffffff"
       id="path5821" />
    <path
       d="m 315.35,171.46 v 1.46 a 0.32,0.32 0 0 1 -0.32,0.33 0.34,0.34 0 0 1 -0.33,-0.33 v -1.46 a 0.62,0.62 0 0 0 -1.24,0 v 1.44 c 0,0 0,0 0,0 v 0 c 0,0 0,0 0,0 v 0 a 0.37,0.37 0 0 1 -0.31,0.2 h -0.06 a 0.33,0.33 0 0 1 -0.26,-0.32 v -1.44 0 -0.94 a 0.32,0.32 0 0 1 0.32,-0.33 0.31,0.31 0 0 1 0.29,0.18 1.35,1.35 0 0 1 0.65,-0.18 1.31,1.31 0 0 0 1.92,0 1.27,1.27 0 0 1 1.26,1.28 v 1.44 a 0.32,0.32 0 0 1 -0.32,0.33 0.33,0.33 0 0 1 -0.33,-0.33 v -1.44 a 0.62,0.62 0 0 0 -0.61,-0.63 0.65,0.65 0 0 0 -0.66,0.74 z"
       style="fill:#ffffff"
       id="path5823" />
    <path
       d="m 318.38,171.72 a 1.51,1.51 0 0 1 1.49,-1.52 1.45,1.45 0 0 1 1.46,1.41 v 0.09 a 0.3,0.3 0 0 1 -0.32,0.24 h -1.94 a 0.78,0.78 0 0 0 0.21,0.4 0.94,0.94 0 0 0 0.59,0.28 1,1 0 0 0 0.63,-0.15 0.34,0.34 0 0 1 0.46,0 0.28,0.28 0 0 1 0,0.39 1.53,1.53 0 0 1 -2.58,-1.12 z m 0.66,-0.3 h 1.73 a 1,1 0 0 0 -0.9,-0.64 0.86,0.86 0 0 0 -0.87,0.64 z"
       style="fill:#ffffff"
       id="path5825" />
    <path
       d="m 344.14,171.05 v 2 a 0.2,0.2 0 0 1 -0.19,0.19 0.19,0.19 0 0 1 -0.19,-0.19 v -1.68 l -0.13,0.08 a 0.19,0.19 0 0 1 -0.1,0 0.18,0.18 0 0 1 -0.16,-0.1 0.17,0.17 0 0 1 0.06,-0.25 l 0.42,-0.25 h 0.24 v 0 0 0.15 z"
       style="fill:#ffffff"
       id="path5827" />
    <path
       d="m 344.57,172.05 a 1.52,1.52 0 0 1 0.24,-0.81 0.75,0.75 0 0 1 0.63,-0.38 0.77,0.77 0 0 1 0.63,0.38 1.51,1.51 0 0 1 0.23,0.81 1.55,1.55 0 0 1 -0.23,0.82 0.79,0.79 0 0 1 -0.63,0.38 0.78,0.78 0 0 1 -0.63,-0.38 1.55,1.55 0 0 1 -0.24,-0.82 z m 1.35,0 a 1.15,1.15 0 0 0 -0.16,-0.6 0.43,0.43 0 0 0 -0.32,-0.21 0.42,0.42 0 0 0 -0.32,0.21 1.07,1.07 0 0 0 -0.17,0.6 1.1,1.1 0 0 0 0.17,0.61 0.42,0.42 0 0 0 0.32,0.21 0.43,0.43 0 0 0 0.32,-0.21 1.19,1.19 0 0 0 0.16,-0.61 z"
       style="fill:#ffffff"
       id="path5829" />
    <path
       d="m 349,172.32 h -0.42 v 0.74 a 0.19,0.19 0 0 1 -0.38,0 v -2 a 0.19,0.19 0 0 1 0.19,-0.19 H 349 a 0.73,0.73 0 1 1 0,1.46 z m -0.42,-0.38 H 349 a 0.35,0.35 0 0 0 0.35,-0.35 0.35,0.35 0 0 0 -0.35,-0.35 h -0.42 z"
       style="fill:#ffffff"
       id="path5831" />
    <path
       d="m 352.19,171.05 v 2 a 0.2,0.2 0 0 1 -0.19,0.19 0.19,0.19 0 0 1 -0.19,-0.19 v -1.43 l -0.49,0.68 a 0.18,0.18 0 0 1 -0.15,0.07 v 0 a 0.2,0.2 0 0 1 -0.16,-0.07 l -0.48,-0.68 v 1.43 a 0.2,0.2 0 0 1 -0.19,0.19 0.19,0.19 0 0 1 -0.19,-0.19 v -2 a 0.19,0.19 0 0 1 0.19,-0.19 v 0 a 0.21,0.21 0 0 1 0.15,0.08 l 0.67,0.94 0.68,-0.94 a 0.19,0.19 0 0 1 0.15,-0.08 v 0 a 0.2,0.2 0 0 1 0.2,0.19 z"
       style="fill:#ffffff"
       id="path5833" />
    <path
       d="m 365,171.05 v 2 a 0.2,0.2 0 0 1 -0.19,0.19 0.19,0.19 0 0 1 -0.19,-0.19 v -1.68 l -0.13,0.08 a 0.19,0.19 0 0 1 -0.1,0 0.19,0.19 0 0 1 -0.1,-0.35 l 0.42,-0.25 H 365 v 0 0 0.15 z"
       style="fill:#ffffff"
       id="path5835" />
    <path
       d="m 366.14,171.05 v 2 a 0.19,0.19 0 0 1 -0.38,0 v -1.68 l -0.13,0.08 a 0.19,0.19 0 0 1 -0.1,0 0.19,0.19 0 0 1 -0.1,-0.35 l 0.42,-0.25 h 0.24 v 0 0 0 c 0,0 0,0 0,0 v 0 z"
       style="fill:#ffffff"
       id="path5837" />
    <path
       d="m 368.53,172.32 h -0.42 v 0.74 a 0.19,0.19 0 0 1 -0.38,0 v -2 a 0.19,0.19 0 0 1 0.19,-0.19 h 0.61 a 0.73,0.73 0 1 1 0,1.46 z m -0.42,-0.38 h 0.42 a 0.34,0.34 0 0 0 0.35,-0.35 0.35,0.35 0 0 0 -0.35,-0.35 h -0.42 z"
       style="fill:#ffffff"
       id="path5839" />
    <path
       d="m 371.77,171.05 v 2 a 0.2,0.2 0 0 1 -0.19,0.19 0.19,0.19 0 0 1 -0.19,-0.19 v -1.43 l -0.49,0.68 a 0.18,0.18 0 0 1 -0.15,0.07 v 0 a 0.2,0.2 0 0 1 -0.16,-0.07 l -0.48,-0.68 v 1.43 a 0.2,0.2 0 0 1 -0.19,0.19 0.19,0.19 0 0 1 -0.19,-0.19 v -2 a 0.19,0.19 0 0 1 0.19,-0.19 v 0 a 0.21,0.21 0 0 1 0.15,0.08 l 0.67,0.94 0.68,-0.94 a 0.19,0.19 0 0 1 0.15,-0.08 v 0 a 0.2,0.2 0 0 1 0.2,0.19 z"
       style="fill:#ffffff"
       id="path5841" />
    <path
       d="m 384.68,171.05 v 2 a 0.2,0.2 0 0 1 -0.19,0.19 0.19,0.19 0 0 1 -0.19,-0.19 v -1.68 l -0.14,0.08 a 0.17,0.17 0 0 1 -0.25,-0.07 0.17,0.17 0 0 1 0.06,-0.25 l 0.42,-0.25 h 0.19 v 0 0 0 0.12 z"
       style="fill:#ffffff"
       id="path5843" />
    <path
       d="m 386.65,173.06 a 0.19,0.19 0 0 1 -0.19,0.19 h -1.21 a 0.19,0.19 0 0 1 -0.14,-0.07 0.19,0.19 0 0 1 0,-0.26 l 1,-0.91 a 0.43,0.43 0 0 0 0.14,-0.33 0.48,0.48 0 0 0 -0.11,-0.3 0.47,0.47 0 0 0 -0.33,-0.14 0.46,0.46 0 0 0 -0.29,0.11 l -0.11,0.1 a 0.19,0.19 0 0 1 -0.26,0 0.19,0.19 0 0 1 0,-0.27 l 0.1,-0.1 a 0.84,0.84 0 0 1 0.55,-0.21 0.86,0.86 0 0 1 0.61,0.27 0.84,0.84 0 0 1 0.21,0.55 0.82,0.82 0 0 1 -0.27,0.61 l -0.64,0.58 h 0.72 a 0.18,0.18 0 0 1 0.22,0.18 z"
       style="fill:#ffffff"
       id="path5845" />
    <path
       d="m 389.49,172.68 h -0.82 l -0.17,0.45 a 0.2,0.2 0 0 1 -0.18,0.12 h -0.06 a 0.19,0.19 0 0 1 -0.12,-0.24 l 0.76,-2 a 0.19,0.19 0 0 1 0.36,0 l 0.75,2 a 0.19,0.19 0 0 1 -0.11,0.24 h -0.07 a 0.19,0.19 0 0 1 -0.17,-0.12 z m -0.14,-0.37 -0.27,-0.73 -0.28,0.73 z"
       style="fill:#ffffff"
       id="path5847" />
    <path
       d="m 392.53,171.05 v 2 a 0.2,0.2 0 0 1 -0.19,0.19 0.19,0.19 0 0 1 -0.19,-0.19 v -1.43 l -0.49,0.68 a 0.18,0.18 0 0 1 -0.15,0.07 v 0 a 0.2,0.2 0 0 1 -0.16,-0.07 l -0.48,-0.68 v 1.43 a 0.19,0.19 0 0 1 -0.38,0 v -2 a 0.2,0.2 0 0 1 0.19,-0.19 v 0 a 0.21,0.21 0 0 1 0.15,0.08 l 0.67,0.94 0.68,-0.94 a 0.19,0.19 0 0 1 0.15,-0.08 v 0 a 0.2,0.2 0 0 1 0.2,0.19 z"
       style="fill:#ffffff"
       id="path5849" />
    <path
       d="m 405.9,171.05 v 2 a 0.19,0.19 0 0 1 -0.38,0 v -1.68 l -0.13,0.08 a 0.19,0.19 0 0 1 -0.1,0 0.19,0.19 0 0 1 -0.1,-0.35 l 0.42,-0.25 h 0.24 v 0 0 0.15 z"
       style="fill:#ffffff"
       id="path5851" />
    <path
       d="m 408.71,172.68 h -0.83 l -0.17,0.45 a 0.19,0.19 0 0 1 -0.17,0.12 h -0.07 a 0.18,0.18 0 0 1 -0.11,-0.24 l 0.75,-2 a 0.18,0.18 0 0 1 0.18,-0.12 0.17,0.17 0 0 1 0.18,0.12 l 0.75,2 a 0.18,0.18 0 0 1 -0.11,0.24 h -0.06 a 0.2,0.2 0 0 1 -0.18,-0.12 z m -0.14,-0.37 -0.28,-0.73 -0.27,0.73 z"
       style="fill:#ffffff"
       id="path5853" />
    <path
       d="m 411.74,171.05 v 2 a 0.19,0.19 0 0 1 -0.38,0 v -1.43 l -0.48,0.68 a 0.2,0.2 0 0 1 -0.16,0.07 v 0 a 0.18,0.18 0 0 1 -0.15,-0.07 l -0.49,-0.68 v 1.43 a 0.19,0.19 0 0 1 -0.19,0.19 0.2,0.2 0 0 1 -0.19,-0.19 v -2 a 0.2,0.2 0 0 1 0.19,-0.19 v 0 a 0.18,0.18 0 0 1 0.15,0.08 l 0.68,0.94 0.68,-0.94 a 0.18,0.18 0 0 1 0.15,-0.08 v 0 a 0.2,0.2 0 0 1 0.19,0.19 z"
       style="fill:#ffffff"
       id="path5855" />
    <path
       d="m 426.52,173.06 a 0.19,0.19 0 0 1 -0.19,0.19 h -1.21 a 0.19,0.19 0 0 1 -0.14,-0.07 0.18,0.18 0 0 1 0,-0.26 l 1,-0.91 a 0.47,0.47 0 0 0 0.14,-0.33 0.48,0.48 0 0 0 -0.11,-0.3 0.47,0.47 0 0 0 -0.33,-0.14 0.48,0.48 0 0 0 -0.3,0.11 l -0.1,0.1 a 0.2,0.2 0 0 1 -0.27,0 0.19,0.19 0 0 1 0,-0.27 l 0.1,-0.1 a 0.84,0.84 0 0 1 0.55,-0.21 0.86,0.86 0 0 1 0.61,0.27 0.84,0.84 0 0 1 0.21,0.55 0.86,0.86 0 0 1 -0.27,0.61 l -0.65,0.58 h 0.73 a 0.18,0.18 0 0 1 0.23,0.18 z"
       style="fill:#ffffff"
       id="path5857" />
    <path
       d="m 429.36,172.68 h -0.83 l -0.16,0.45 a 0.21,0.21 0 0 1 -0.18,0.12 h -0.07 A 0.19,0.19 0 0 1 428,173 l 0.75,-2 a 0.19,0.19 0 0 1 0.19,-0.12 0.19,0.19 0 0 1 0.18,0.12 l 0.75,2 a 0.19,0.19 0 0 1 -0.11,0.24 h -0.07 a 0.18,0.18 0 0 1 -0.17,-0.12 z m -0.14,-0.37 -0.27,-0.73 -0.28,0.73 z"
       style="fill:#ffffff"
       id="path5859" />
    <path
       d="m 432.4,171.05 v 2 a 0.2,0.2 0 0 1 -0.19,0.19 0.19,0.19 0 0 1 -0.19,-0.19 v -1.43 l -0.49,0.68 a 0.18,0.18 0 0 1 -0.15,0.07 v 0 a 0.2,0.2 0 0 1 -0.16,-0.07 l -0.48,-0.68 v 1.43 a 0.2,0.2 0 0 1 -0.19,0.19 0.19,0.19 0 0 1 -0.19,-0.19 v -2 a 0.19,0.19 0 0 1 0.19,-0.19 v 0 a 0.21,0.21 0 0 1 0.15,0.08 l 0.67,0.94 0.68,-0.94 a 0.19,0.19 0 0 1 0.15,-0.08 v 0 a 0.2,0.2 0 0 1 0.2,0.19 z"
       style="fill:#ffffff"
       id="path5861" />
    <path
       d="m 446.45,171.8 a 0.84145707,0.84145707 0 1 1 -1.19,1.19 0.18,0.18 0 0 1 0,-0.27 0.2,0.2 0 0 1 0.27,0 0.46,0.46 0 0 0 0.33,0.13 0.45,0.45 0 0 0 0.32,-0.13 0.47,0.47 0 0 0 0.14,-0.33 0.47,0.47 0 0 0 -0.14,-0.32 0.44,0.44 0 0 0 -0.32,-0.13 0.17,0.17 0 0 1 -0.14,-0.07 v 0 a 0.19,0.19 0 0 1 0,-0.27 l 0.35,-0.36 h -0.56 a 0.19,0.19 0 1 1 0,-0.38 h 1 a 0.18,0.18 0 0 1 0.19,0.19 0.24,0.24 0 0 1 0,0.09 0.1,0.1 0 0 1 0,0.05 l -0.42,0.44 a 0.76,0.76 0 0 1 0.17,0.17 z"
       style="fill:#ffffff"
       id="path5863" />
    <path
       d="m 449.61,172.68 h -0.82 l -0.17,0.45 a 0.2,0.2 0 0 1 -0.18,0.12 h -0.06 a 0.18,0.18 0 0 1 -0.11,-0.24 l 0.75,-2 a 0.2,0.2 0 0 1 0.36,0 l 0.75,2 a 0.18,0.18 0 0 1 -0.11,0.24 h -0.06 a 0.2,0.2 0 0 1 -0.18,-0.12 z m -0.14,-0.37 -0.27,-0.73 -0.28,0.73 z"
       style="fill:#ffffff"
       id="path5865" />
    <path
       d="m 452.65,171.05 v 2 a 0.2,0.2 0 0 1 -0.19,0.19 0.19,0.19 0 0 1 -0.19,-0.19 v -1.43 l -0.49,0.68 a 0.17,0.17 0 0 1 -0.15,0.07 v 0 a 0.17,0.17 0 0 1 -0.15,-0.07 l -0.49,-0.68 v 1.43 a 0.19,0.19 0 0 1 -0.38,0 v -2 a 0.2,0.2 0 0 1 0.19,-0.19 v 0 a 0.19,0.19 0 0 1 0.15,0.08 l 0.68,0.94 0.67,-0.94 a 0.21,0.21 0 0 1 0.16,-0.08 v 0 a 0.2,0.2 0 0 1 0.19,0.19 z"
       style="fill:#ffffff"
       id="path5867" />
    <path
       d="m 467.11,172.61 a 0.18,0.18 0 0 1 -0.19,0.19 v 0 0.26 a 0.2,0.2 0 0 1 -0.19,0.19 0.19,0.19 0 0 1 -0.19,-0.19 v -0.26 h -1.07 a 0.19,0.19 0 0 1 -0.12,0 0.19,0.19 0 0 1 0,-0.26 l 1.26,-1.57 h 0.29 v 0 c 0,0 0,0 0,0 v 0 0 0 0 0 1.38 0 a 0.18,0.18 0 0 1 0.21,0.26 z m -0.6,-1 -0.68,0.85 h 0.68 z"
       style="fill:#ffffff"
       id="path5869" />
    <path
       d="m 469.92,172.68 h -0.82 l -0.17,0.45 a 0.2,0.2 0 0 1 -0.18,0.12 h -0.06 a 0.18,0.18 0 0 1 -0.11,-0.24 l 0.75,-2 a 0.18,0.18 0 0 1 0.18,-0.12 0.17,0.17 0 0 1 0.18,0.12 l 0.75,2 a 0.18,0.18 0 0 1 -0.11,0.24 h -0.06 a 0.2,0.2 0 0 1 -0.18,-0.12 z m -0.13,-0.37 -0.28,-0.73 -0.28,0.73 z"
       style="fill:#ffffff"
       id="path5871" />
    <path
       d="m 473,171.05 v 2 a 0.19,0.19 0 0 1 -0.38,0 v -1.43 l -0.49,0.68 a 0.17,0.17 0 0 1 -0.15,0.07 v 0 a 0.17,0.17 0 0 1 -0.15,-0.07 l -0.49,-0.68 v 1.43 a 0.19,0.19 0 0 1 -0.19,0.19 0.2,0.2 0 0 1 -0.19,-0.19 v -2 a 0.2,0.2 0 0 1 0.19,-0.19 v 0 a 0.19,0.19 0 0 1 0.15,0.08 l 0.68,0.94 0.67,-0.94 a 0.21,0.21 0 0 1 0.16,-0.08 v 0 a 0.2,0.2 0 0 1 0.19,0.19 z"
       style="fill:#ffffff"
       id="path5873" />
    <path
       d="m 486.87,171.8 a 0.85,0.85 0 0 1 -0.6,1.45 v 0 a 0.85,0.85 0 0 1 -0.59,-0.25 0.19,0.19 0 0 1 0,-0.28 0.2,0.2 0 0 1 0.27,0 0.43,0.43 0 0 0 0.33,0.14 0.4,0.4 0 0 0 0.32,-0.14 0.45,0.45 0 0 0 0,-0.65 0.42,0.42 0 0 0 -0.32,-0.13 0.48,0.48 0 0 0 -0.33,0.13 0.18,0.18 0 0 1 -0.27,0 v 0 0 c 0,0 0,0 0,0 v 0 0 a 0.06,0.06 0 0 1 0,-0.06 l 0.1,-0.88 a 0.22,0.22 0 0 1 0.08,-0.13 v 0 h 0.09 1 a 0.2,0.2 0 1 1 0,0.39 h -0.84 v 0.33 h 0.23 a 0.87,0.87 0 0 1 0.53,0.08 z"
       style="fill:#ffffff"
       id="path5875" />
    <path
       d="m 490,172.68 h -0.82 l -0.17,0.45 a 0.2,0.2 0 0 1 -0.18,0.12 h -0.06 a 0.18,0.18 0 0 1 -0.11,-0.24 l 0.75,-2 a 0.19,0.19 0 0 1 0.36,0 l 0.75,2 a 0.18,0.18 0 0 1 -0.11,0.24 h -0.07 a 0.19,0.19 0 0 1 -0.17,-0.12 z m -0.14,-0.37 -0.27,-0.73 -0.28,0.73 z"
       style="fill:#ffffff"
       id="path5877" />
    <path
       d="m 493.08,171.05 v 2 a 0.2,0.2 0 0 1 -0.19,0.19 0.19,0.19 0 0 1 -0.19,-0.19 v -1.43 l -0.49,0.68 a 0.18,0.18 0 0 1 -0.15,0.07 v 0 a 0.17,0.17 0 0 1 -0.15,-0.07 l -0.49,-0.68 v 1.43 a 0.19,0.19 0 0 1 -0.38,0 v -2 a 0.2,0.2 0 0 1 0.19,-0.19 v 0 a 0.21,0.21 0 0 1 0.15,0.08 l 0.68,0.94 0.67,-0.94 a 0.21,0.21 0 0 1 0.16,-0.08 v 0 a 0.2,0.2 0 0 1 0.19,0.19 z"
       style="fill:#ffffff"
       id="path5879" />
    <path
       d="m 507.42,172.42 a 0.83,0.83 0 0 1 -0.83,0.83 0.84,0.84 0 0 1 -0.82,-0.74 v 0 c 0,-0.06 0,-0.13 0,-0.19 a 2.1,2.1 0 0 1 0.12,-0.7 1.21,1.21 0 0 1 0.44,-0.58 0.91,0.91 0 0 1 0.51,-0.16 0.18,0.18 0 0 1 0.2,0.18 0.19,0.19 0 0 1 -0.18,0.19 0.75,0.75 0 0 0 -0.32,0.1 0.73,0.73 0 0 0 -0.22,0.24 v 0.09 a 0.71,0.71 0 0 1 0.32,-0.07 0.83,0.83 0 0 1 0.78,0.81 z m -0.38,0 a 0.45,0.45 0 1 0 -0.89,0 0.45,0.45 0 1 0 0.89,0 z"
       style="fill:#ffffff"
       id="path5881" />
    <path
       d="m 510.33,172.68 h -0.83 l -0.17,0.45 a 0.19,0.19 0 0 1 -0.17,0.12 h -0.07 A 0.19,0.19 0 0 1 509,173 l 0.75,-2 a 0.18,0.18 0 0 1 0.18,-0.12 0.17,0.17 0 0 1 0.18,0.12 l 0.75,2 a 0.18,0.18 0 0 1 -0.11,0.24 h -0.06 a 0.2,0.2 0 0 1 -0.18,-0.12 z m -0.14,-0.37 -0.28,-0.73 -0.27,0.73 z"
       style="fill:#ffffff"
       id="path5883" />
    <path
       d="m 513.36,171.05 v 2 a 0.2,0.2 0 0 1 -0.19,0.19 0.19,0.19 0 0 1 -0.18,-0.19 v -1.43 l -0.49,0.68 a 0.2,0.2 0 0 1 -0.16,0.07 v 0 a 0.19,0.19 0 0 1 -0.16,-0.07 l -0.49,-0.68 v 1.43 a 0.19,0.19 0 0 1 -0.19,0.19 0.2,0.2 0 0 1 -0.19,-0.19 v -2 a 0.2,0.2 0 0 1 0.19,-0.19 v 0 a 0.18,0.18 0 0 1 0.15,0.08 l 0.68,0.94 0.68,-0.94 a 0.18,0.18 0 0 1 0.15,-0.08 v 0 a 0.2,0.2 0 0 1 0.2,0.19 z"
       style="fill:#ffffff"
       id="path5885" />
    <path
       d="m 527.6,171.12 -0.85,2 a 0.17,0.17 0 0 1 -0.17,0.12 h -0.07 a 0.18,0.18 0 0 1 -0.1,-0.24 l 0.73,-1.75 h -0.88 a 0.19,0.19 0 0 1 -0.18,-0.19 0.18,0.18 0 0 1 0.18,-0.19 h 1.21 0.07 v 0 0 0 0.13 0 0.08 z"
       style="fill:#ffffff"
       id="path5887" />
    <path
       d="m 530.45,172.68 h -0.82 l -0.17,0.45 a 0.2,0.2 0 0 1 -0.18,0.12 h -0.06 a 0.19,0.19 0 0 1 -0.12,-0.24 l 0.76,-2 a 0.2,0.2 0 0 1 0.36,0 l 0.75,2 a 0.19,0.19 0 0 1 -0.11,0.24 h -0.07 a 0.19,0.19 0 0 1 -0.17,-0.12 z m -0.14,-0.37 -0.27,-0.73 -0.28,0.73 z"
       style="fill:#ffffff"
       id="path5889" />
    <path
       d="m 533.49,171.05 v 2 a 0.2,0.2 0 0 1 -0.19,0.19 0.19,0.19 0 0 1 -0.19,-0.19 v -1.43 l -0.49,0.68 a 0.18,0.18 0 0 1 -0.15,0.07 v 0 a 0.2,0.2 0 0 1 -0.16,-0.07 l -0.48,-0.68 v 1.43 a 0.2,0.2 0 0 1 -0.19,0.19 0.19,0.19 0 0 1 -0.19,-0.19 v -2 a 0.19,0.19 0 0 1 0.19,-0.19 v 0 a 0.21,0.21 0 0 1 0.15,0.08 l 0.67,0.94 0.68,-0.94 a 0.19,0.19 0 0 1 0.15,-0.08 v 0 a 0.2,0.2 0 0 1 0.2,0.19 z"
       style="fill:#ffffff"
       id="path5891" />
    <path
       d="m 547.82,172.44 a 0.81,0.81 0 0 1 -0.81,0.81 0.82,0.82 0 0 1 -0.82,-0.81 0.8,0.8 0 0 1 0.37,-0.68 0.56,0.56 0 0 1 -0.12,-0.34 0.57,0.57 0 0 1 0.57,-0.56 0.57,0.57 0 0 1 0.56,0.56 0.55,0.55 0 0 1 -0.11,0.34 0.82,0.82 0 0 1 0.36,0.68 z m -0.37,0 A 0.45,0.45 0 0 0 547,172 a 0.45,0.45 0 0 0 -0.45,0.45 0.44,0.44 0 0 0 0.45,0.43 0.44,0.44 0 0 0 0.45,-0.44 z m -0.63,-1 a 0.19,0.19 0 0 0 0.19,0.2 0.2,0.2 0 0 0 0.19,-0.2 0.2,0.2 0 0 0 -0.19,-0.19 0.19,0.19 0 0 0 -0.19,0.17 z"
       style="fill:#ffffff"
       id="path5893" />
    <path
       d="m 550.75,172.68 h -0.83 l -0.17,0.45 a 0.19,0.19 0 0 1 -0.17,0.12 h -0.07 a 0.18,0.18 0 0 1 -0.11,-0.24 l 0.75,-2 a 0.18,0.18 0 0 1 0.18,-0.12 0.17,0.17 0 0 1 0.18,0.12 l 0.75,2 a 0.18,0.18 0 0 1 -0.11,0.24 h -0.06 a 0.2,0.2 0 0 1 -0.18,-0.12 z m -0.14,-0.37 -0.28,-0.73 -0.28,0.73 z"
       style="fill:#ffffff"
       id="path5895" />
    <path
       d="m 553.78,171.05 v 2 a 0.19,0.19 0 0 1 -0.38,0 v -1.43 l -0.49,0.68 a 0.17,0.17 0 0 1 -0.15,0.07 v 0 a 0.17,0.17 0 0 1 -0.15,-0.07 l -0.49,-0.68 v 1.43 a 0.19,0.19 0 0 1 -0.19,0.19 0.2,0.2 0 0 1 -0.19,-0.19 v -2 a 0.2,0.2 0 0 1 0.19,-0.19 v 0 a 0.19,0.19 0 0 1 0.15,0.08 l 0.68,0.94 0.67,-0.94 a 0.21,0.21 0 0 1 0.16,-0.08 v 0 a 0.2,0.2 0 0 1 0.19,0.19 z"
       style="fill:#ffffff"
       id="path5897" />
    <path
       d="m 328,79 0.25,43.26 0.09,43.26 -0.34,-0.33 58.53,-0.13 c 19.52,-0.08 39,0 58.54,0.05 l 58.53,0.13 c 19.51,0 39,0.18 58.53,0.28 -19.51,0.11 -39,0.29 -58.53,0.29 L 445.1,166 c -19.51,0 -39,0.13 -58.54,0.05 L 328,165.9 h -0.34 v -0.34 l 0.09,-43.26 z"
       style="fill:#ffffff"
       id="path5909" />
    <path
       d="m 347.94,165.56 c -0.11,-14.2 -0.08,-28.4 -0.13,-42.6 -0.05,-14.2 0,-28.4 0.13,-42.6 0.11,14.2 0.08,28.4 0.12,42.6 0.04,14.2 -0.06,28.4 -0.12,42.6 z"
       style="fill:#ffffff"
       id="path5911" />
    <path
       d="m 368.16,165.56 c -0.11,-14.2 -0.08,-28.4 -0.13,-42.6 -0.05,-14.2 0,-28.4 0.13,-42.6 0.1,14.2 0.08,28.4 0.12,42.6 0.04,14.2 -0.02,28.4 -0.12,42.6 z"
       style="fill:#ffffff"
       id="path5913" />
    <path
       d="m 388.38,165.56 c -0.11,-14.2 -0.08,-28.4 -0.13,-42.6 -0.05,-14.2 0,-28.4 0.13,-42.6 0.1,14.2 0.08,28.4 0.12,42.6 0.04,14.2 -0.02,28.4 -0.12,42.6 z"
       style="fill:#ffffff"
       id="path5915" />
    <path
       d="m 408.6,165.56 c -0.11,-14.2 -0.08,-28.4 -0.13,-42.6 -0.05,-14.2 0,-28.4 0.13,-42.6 0.1,14.2 0.08,28.4 0.12,42.6 0.04,14.2 -0.02,28.4 -0.12,42.6 z"
       style="fill:#ffffff"
       id="path5917" />
    <path
       d="m 428.81,165.56 c -0.1,-14.2 -0.08,-28.4 -0.12,-42.6 -0.04,-14.2 0,-28.4 0.12,-42.6 0.11,14.2 0.09,28.4 0.13,42.6 0.04,14.2 -0.02,28.4 -0.13,42.6 z"
       style="fill:#ffffff"
       id="path5919" />
    <path
       d="m 449,165.56 c -0.1,-14.2 -0.08,-28.4 -0.12,-42.6 -0.04,-14.2 0,-28.4 0.12,-42.6 0.11,14.2 0.08,28.4 0.13,42.6 0.05,14.2 0.01,28.4 -0.13,42.6 z"
       style="fill:#ffffff"
       id="path5921" />
    <path
       d="m 469.25,165.56 c -0.1,-14.2 -0.08,-28.4 -0.12,-42.6 -0.04,-14.2 0,-28.4 0.12,-42.6 0.11,14.2 0.08,28.4 0.13,42.6 0.05,14.2 -0.02,28.4 -0.13,42.6 z"
       style="fill:#ffffff"
       id="path5923" />
    <path
       d="m 489.47,165.56 c -0.11,-14.2 -0.08,-28.4 -0.12,-42.6 -0.04,-14.2 0,-28.4 0.12,-42.6 0.11,14.2 0.08,28.4 0.13,42.6 0.05,14.2 -0.02,28.4 -0.13,42.6 z"
       style="fill:#ffffff"
       id="path5925" />
    <path
       d="m 509.69,165.56 c -0.11,-14.2 -0.08,-28.4 -0.12,-42.6 -0.04,-14.2 0,-28.4 0.12,-42.6 0.11,14.2 0.08,28.4 0.13,42.6 0.05,14.2 -0.02,28.4 -0.13,42.6 z"
       style="fill:#ffffff"
       id="path5927" />
    <path
       d="m 529.91,165.56 c -0.11,-14.2 -0.08,-28.4 -0.12,-42.6 -0.04,-14.2 0,-28.4 0.12,-42.6 0.11,14.2 0.08,28.4 0.13,42.6 0.05,14.2 -0.04,28.4 -0.13,42.6 z"
       style="fill:#ffffff"
       id="path5929" />
    <path
       d="m 550.13,165.56 c -0.11,-14.2 -0.08,-28.4 -0.12,-42.6 -0.04,-14.2 0,-28.4 0.12,-42.6 0.11,14.2 0.08,28.4 0.12,42.6 0.04,14.2 -0.01,28.4 -0.12,42.6 z"
       style="fill:#ffffff"
       id="path5931" />
    <path
       d="m 328,85.14 c 5.61,0 8.82,4.9 10.74,5.85 1.92,0.95 4,11 4.84,13.52 0.84,2.52 2.06,15.09 2.44,16.55 0.38,1.46 0.56,10 1.89,10 1.33,0 5.57,2.74 7.18,4.35 1.61,1.61 5.48,8.22 7.46,8.22 1.98,0 3.5,9.54 5.58,9.54 2.08,0 5.67,-3.59 7.08,-4.91 1.41,-1.32 6.14,-1.14 7.18,-2.37 1.04,-1.23 3.88,-9.07 6,-9.63 2.12,-0.56 4.53,2.26 6.61,2 2.08,-0.26 5.67,-1 7.56,-1 1.89,0 4.06,7.65 6.05,8 1.99,0.35 6,-9.07 8.5,-11 2.5,-1.93 3.39,-0.19 5.9,-2.55 2.51,-2.36 3.36,-25.54 5.81,-26.47 2.45,-0.93 7,-1.68 8.6,-2.72 1.6,-1.04 7.47,-5.86 11.62,-5.86 4.15,0 4.63,11.15 6.15,12.09 1.52,0.94 4.34,4.6 5.66,7.26 1.32,2.66 2.87,14.85 4.41,16.08 1.54,1.23 2.59,5.57 4,7 1.41,1.43 5.86,-0.28 7.84,1.23 1.98,1.51 4.54,9 6.15,10.11 1.61,1.11 3.87,4.65 6.23,4.65 2.36,0 9.92,-9.75 13.23,-10.79 3.31,-1.04 5.57,-8.51 7,-9.83 1.43,-1.32 8.32,0.28 10.77,-0.47 2.45,-0.75 6.52,-15.78 9.45,-15.78 2.93,0 6.24,2.55 9.73,2.55 3.49,0 6.22,-25.76 10.47,-25.76 v 70.53 H 328 Z"
       style="opacity:0.4;fill:#90caf9"
       id="path5935" />
    <path
       d="m 489.47,155.55 c -1.82,0 -3.44,-1.69 -4.87,-3.18 a 14,14 0 0 0 -1.65,-1.56 c -0.87,-0.62 -1.84,-2.57 -2.95,-4.83 -1.11,-2.26 -2.27,-4.58 -3.21,-5.29 -0.94,-0.71 -2.41,-0.61 -3.9,-0.55 -1.49,0.06 -3.14,0.12 -4,-0.73 A 12.34,12.34 0 0 1 467,136 a 10.75,10.75 0 0 0 -2,-3.49 c -0.94,-0.75 -1.67,-4 -2.75,-9.15 a 45.28,45.28 0 0 0 -1.79,-7.1 c -1.3,-2.6 -4.07,-6.17 -5.49,-7 -0.68,-0.43 -1,-1.75 -1.66,-4.24 -0.81,-3.28 -1.93,-7.78 -4.22,-7.78 -3.3,0 -8,3.36 -10.2,5 -0.48,0.35 -0.87,0.63 -1.15,0.81 a 20.69,20.69 0 0 1 -5.06,1.71 c -1.3,0.34 -2.66,0.69 -3.63,1.06 -0.97,0.37 -2,7.73 -2.61,12.59 -1,7.77 -1.76,12.58 -3,13.77 a 5.14,5.14 0 0 1 -3.41,1.61 4.37,4.37 0 0 0 -2.53,1 c -1,0.76 -2.36,3 -3.68,5.18 -2.33,3.81 -3.82,6.14 -5.22,5.87 -1.21,-0.23 -2.21,-2.13 -3.36,-4.33 -0.77,-1.47 -1.94,-3.69 -2.59,-3.69 a 38.31,38.31 0 0 0 -5.16,0.66 c -0.86,0.15 -1.67,0.29 -2.33,0.38 a 6.15,6.15 0 0 1 -3.45,-1.07 c -1.14,-0.61 -2.21,-1.18 -3.1,-0.93 -1.17,0.32 -3,4.15 -4.09,6.45 a 19.69,19.69 0 0 1 -1.61,3 c -0.64,0.75 -2.06,1 -3.72,1.31 -1.36,0.25 -2.9,0.53 -3.51,1.09 l -0.42,0.4 c -1.71,1.62 -4.91,4.65 -7,4.65 -1.4,0 -2.29,-2.4 -3.33,-5.18 -0.6,-1.63 -1.61,-4.36 -2.25,-4.36 -1.49,0 -3.33,-2.38 -5.77,-5.73 a 26.89,26.89 0 0 0 -2.05,-2.64 c -1.68,-1.69 -5.77,-4.2 -6.82,-4.2 -1.05,0 -1.58,-2.24 -2.06,-7.6 a 26.08,26.08 0 0 0 -0.32,-2.74 c -0.15,-0.58 -0.4,-2.65 -0.72,-5.27 -0.5,-4.1 -1.18,-9.7 -1.71,-11.25 -0.22,-0.67 -0.53,-1.83 -0.88,-3.18 -0.86,-3.3 -2.47,-9.44 -3.7,-10 a 10.61,10.61 0 0 1 -2.08,-1.63 c -1.94,-1.76 -4.61,-4.17 -8.44,-4.17 v -1 c 4.22,0 7.16,2.66 9.11,4.43 a 10.93,10.93 0 0 0 1.76,1.3 c 1.52,0.75 2.81,5.29 4.23,10.7 0.34,1.32 0.64,2.47 0.86,3.11 0.56,1.64 1.22,7.08 1.75,11.45 0.31,2.48 0.57,4.62 0.7,5.14 a 24.32,24.32 0 0 1 0.34,2.9 c 0.18,2 0.56,6.27 1.16,6.71 v 0 c 1.47,0 5.79,2.83 7.43,4.47 a 27.14,27.14 0 0 1 2.15,2.76 c 1.45,2 3.87,5.32 5,5.32 1.27,0 2,1.9 3.19,5 0.63,1.69 1.68,4.53 2.39,4.53 1.69,0 4.93,-3.07 6.31,-4.38 l 0.43,-0.4 c 0.82,-0.76 2.44,-1.06 4,-1.35 1.28,-0.23 2.73,-0.49 3.13,-1 a 19.68,19.68 0 0 0 1.48,-2.81 c 1.77,-3.71 3.24,-6.58 4.72,-7 1.28,-0.34 2.58,0.35 3.84,1 a 5.3,5.3 0 0 0 2.84,1 c 0.65,-0.09 1.46,-0.23 2.31,-0.37 a 38.13,38.13 0 0 1 5.32,-0.68 c 1.26,0 2.28,2 3.47,4.23 0.86,1.63 1.93,3.67 2.67,3.81 0.74,0.14 2.91,-3.34 4.18,-5.42 1.43,-2.35 2.78,-4.57 3.92,-5.44 a 5.34,5.34 0 0 1 3,-1.18 4.22,4.22 0 0 0 2.85,-1.34 c 1.1,-1 2,-7.49 2.73,-13.19 1.2,-8.91 1.87,-12.86 3.25,-13.39 1,-0.38 2.4,-0.74 3.73,-1.09 a 21.38,21.38 0 0 0 4.77,-1.58 c 0.26,-0.17 0.64,-0.44 1.1,-0.78 2.51,-1.8 7.17,-5.16 10.79,-5.16 3.07,0 4.25,4.73 5.2,8.54 0.35,1.43 0.84,3.4 1.21,3.63 1.57,1 4.47,4.67 5.85,7.46 a 42.15,42.15 0 0 1 1.88,7.33 c 0.7,3.38 1.67,8 2.4,8.58 0.91,0.72 1.62,2.32 2.3,3.86 a 12.26,12.26 0 0 0 1.74,3.17 c 0.54,0.54 1.91,0.48 3.25,0.43 1.66,-0.06 3.38,-0.13 4.54,0.75 1.16,0.88 2.33,3.3 3.49,5.65 0.92,1.87 2,4 2.63,4.45 a 14.1,14.1 0 0 1 1.8,1.68 c 1.29,1.35 2.76,2.88 4.15,2.88 1,0 3.77,-2.74 6,-5 2.62,-2.59 5.33,-5.27 7.08,-5.82 2,-0.62 3.68,-4.05 4.93,-6.55 a 13.17,13.17 0 0 1 1.87,-3.16 c 0.94,-0.88 3.33,-0.73 6.09,-0.54 a 17.35,17.35 0 0 0 4.87,-0.05 c 0.92,-0.28 2.54,-4 3.84,-7 2.4,-5.49 4,-8.83 5.76,-8.83 a 13.21,13.21 0 0 1 4.62,1.23 14.47,14.47 0 0 0 5.11,1.32 c 1.28,0 3,-6.66 4.24,-11.53 2.26,-8.82 3.81,-14.17 6.25,-14.17 v 1 c -1.84,0 -3.83,7.76 -5.29,13.42 -2,7.61 -3.25,12.28 -5.2,12.28 a 15.28,15.28 0 0 1 -5.47,-1.39 12.46,12.46 0 0 0 -4.26,-1.16 c -1.25,0 -3.33,4.76 -4.85,8.23 -1.92,4.41 -3.17,7.13 -4.45,7.53 a 17.57,17.57 0 0 1 -5.24,0.09 c -2.1,-0.14 -4.71,-0.32 -5.34,0.27 a 13.47,13.47 0 0 0 -1.65,2.87 c -1.41,2.82 -3.15,6.32 -5.53,7.06 -1.52,0.48 -4.26,3.19 -6.68,5.58 -3.29,3.36 -5.38,5.35 -6.71,5.35 z"
       style="fill:#90caf9"
       id="path5937" />
    <polygon
       points="293.96,185.05 293.83,131.69 293.96,78.33 294.08,131.69 "
       style="fill:#ffffff"
       id="polygon5939" />
  </g>
  <g
     id="freepik--Ground--inject-17"
     transform="translate(-50.53653,-95.067462)">
    <rect
       x="65.669998"
       y="388.67001"
       width="380"
       height="6"
       style="fill:#263238"
       id="rect1616" />
  </g>
</svg>
