<?xml version="1.0" encoding="UTF-8" standalone="no"?>
<svg
   id="740546cb-34ca-4331-8221-ac3d3fc9ee67"
   data-name="Layer 1"
   width="1120.615"
   height="1094.506"
   viewBox="0 0 1120.615 1094.506"
   version="1.1"
   sodipodi:docname="overview_lumnet.svg"
   inkscape:version="1.1 (c68e22c387, 2021-05-23)"
   inkscape:export-filename="C:\Users\20176249\Desktop\overview_fig.png"
   inkscape:export-xdpi="1000.13"
   inkscape:export-ydpi="1000.13"
   xmlns:inkscape="http://www.inkscape.org/namespaces/inkscape"
   xmlns:sodipodi="http://sodipodi.sourceforge.net/DTD/sodipodi-0.dtd"
   xmlns:xlink="http://www.w3.org/1999/xlink"
   xmlns="http://www.w3.org/2000/svg"
   xmlns:svg="http://www.w3.org/2000/svg"
   xmlns:rdf="http://www.w3.org/1999/02/22-rdf-syntax-ns#"
   xmlns:cc="http://creativecommons.org/ns#"
   xmlns:dc="http://purl.org/dc/elements/1.1/">
  <metadata
     id="metadata1649">
    <rdf:RDF>
      <cc:Work
         rdf:about="">
        <dc:format>image/svg+xml</dc:format>
        <dc:type
           rdf:resource="http://purl.org/dc/dcmitype/StillImage" />
      </cc:Work>
    </rdf:RDF>
  </metadata>
  <sodipodi:namedview
     fit-margin-bottom="0"
     fit-margin-right="0"
     fit-margin-left="0"
     fit-margin-top="0"
     pagecolor="#ffffff"
     bordercolor="#666666"
     borderopacity="1"
     objecttolerance="10"
     gridtolerance="10"
     guidetolerance="10"
     inkscape:pageopacity="0"
     inkscape:pageshadow="2"
     inkscape:window-width="1920"
     inkscape:window-height="1001"
     id="namedview1647"
     showgrid="false"
     inkscape:zoom="0.62491303"
     inkscape:cx="184.82572"
     inkscape:cy="407.25667"
     inkscape:window-x="-9"
     inkscape:window-y="-9"
     inkscape:window-maximized="1"
     inkscape:current-layer="740546cb-34ca-4331-8221-ac3d3fc9ee67"
     inkscape:document-rotation="0"
     inkscape:pagecheckerboard="0" />
  <defs
     id="defs1276">
    <inkscape:path-effect
       effect="spiro"
       id="path-effect1852"
       is_visible="true"
       lpeversion="1" />
    <marker
       inkscape:stockid="DotS"
       orient="auto"
       refY="0"
       refX="0"
       id="marker4471"
       style="overflow:visible"
       inkscape:isstock="true">
      <path
         id="path4469"
         d="m -2.5,-1 c 0,2.76 -2.24,5 -5,5 -2.76,0 -5,-2.24 -5,-5 0,-2.76 2.24,-5 5,-5 2.76,0 5,2.24 5,5 z"
         style="fill:#000000;fill-opacity:1;fill-rule:evenodd;stroke:#000000;stroke-width:1pt;stroke-opacity:1"
         transform="matrix(0.2,0,0,0.2,1.48,0.2)" />
    </marker>
    <marker
       inkscape:stockid="DotS"
       orient="auto"
       refY="0"
       refX="0"
       id="marker4467"
       style="overflow:visible"
       inkscape:isstock="true">
      <path
         id="path4465"
         d="m -2.5,-1 c 0,2.76 -2.24,5 -5,5 -2.76,0 -5,-2.24 -5,-5 0,-2.76 2.24,-5 5,-5 2.76,0 5,2.24 5,5 z"
         style="fill:#000000;fill-opacity:1;fill-rule:evenodd;stroke:#000000;stroke-width:1pt;stroke-opacity:1"
         transform="matrix(0.2,0,0,0.2,1.48,0.2)" />
    </marker>
    <linearGradient
       id="07a0b5f0-40d7-4714-acbe-80fa7c137a96"
       x1="922.95001"
       y1="714.28003"
       x2="922.95001"
       y2="199.47"
       gradientTransform="matrix(1,0.09,-0.09,1,45.13,-84.62)"
       gradientUnits="userSpaceOnUse">
      <stop
         offset="0"
         stop-color="gray"
         stop-opacity="0.25"
         id="stop1268" />
      <stop
         offset="0.54"
         stop-color="gray"
         stop-opacity="0.12"
         id="stop1270" />
      <stop
         offset="1"
         stop-color="gray"
         stop-opacity="0.1"
         id="stop1272" />
    </linearGradient>
    <linearGradient
       gradientTransform="translate(-39.7,-18.740001)"
       id="81276d2b-ddf3-474d-b794-9223ea4701e2"
       x1="329.5"
       y1="708.38"
       x2="329.5"
       y2="197"
       xlink:href="#07a0b5f0-40d7-4714-acbe-80fa7c137a96" />
    <marker
       inkscape:stockid="DotS"
       orient="auto"
       refY="0"
       refX="0"
       id="marker4467-1"
       style="overflow:visible"
       inkscape:isstock="true">
      <path
         inkscape:connector-curvature="0"
         id="path4465-5"
         d="m -2.5,-1 c 0,2.76 -2.24,5 -5,5 -2.76,0 -5,-2.24 -5,-5 0,-2.76 2.24,-5 5,-5 2.76,0 5,2.24 5,5 z"
         style="fill:#000000;fill-opacity:1;fill-rule:evenodd;stroke:#000000;stroke-width:1pt;stroke-opacity:1"
         transform="matrix(0.2,0,0,0.2,1.48,0.2)" />
    </marker>
    <marker
       inkscape:stockid="DotS"
       orient="auto"
       refY="0"
       refX="0"
       id="marker4471-8"
       style="overflow:visible"
       inkscape:isstock="true">
      <path
         inkscape:connector-curvature="0"
         id="path4469-9"
         d="m -2.5,-1 c 0,2.76 -2.24,5 -5,5 -2.76,0 -5,-2.24 -5,-5 0,-2.76 2.24,-5 5,-5 2.76,0 5,2.24 5,5 z"
         style="fill:#000000;fill-opacity:1;fill-rule:evenodd;stroke:#000000;stroke-width:1pt;stroke-opacity:1"
         transform="matrix(0.2,0,0,0.2,1.48,0.2)" />
    </marker>
    <marker
       inkscape:isstock="true"
       style="overflow:visible"
       id="marker4504-9"
       refX="0"
       refY="0"
       orient="auto"
       inkscape:stockid="DotS">
      <path
         transform="matrix(0.2,0,0,0.2,1.48,0.2)"
         style="fill:#000000;fill-opacity:1;fill-rule:evenodd;stroke:#000000;stroke-width:1pt;stroke-opacity:1"
         d="m -2.5,-1 c 0,2.76 -2.24,5 -5,5 -2.76,0 -5,-2.24 -5,-5 0,-2.76 2.24,-5 5,-5 2.76,0 5,2.24 5,5 z"
         id="path4502-7" />
    </marker>
    <marker
       inkscape:isstock="true"
       style="overflow:visible"
       id="marker4508-3"
       refX="0"
       refY="0"
       orient="auto"
       inkscape:stockid="DotS">
      <path
         transform="matrix(0.2,0,0,0.2,1.48,0.2)"
         style="fill:#000000;fill-opacity:1;fill-rule:evenodd;stroke:#000000;stroke-width:1pt;stroke-opacity:1"
         d="m -2.5,-1 c 0,2.76 -2.24,5 -5,5 -2.76,0 -5,-2.24 -5,-5 0,-2.76 2.24,-5 5,-5 2.76,0 5,2.24 5,5 z"
         id="path4506-1" />
    </marker>
    <linearGradient
       y2="199.47"
       x2="922.95001"
       y1="714.28003"
       x1="922.95001"
       gradientTransform="matrix(1,0.09,-0.09,1,5.4300002,-103.36)"
       gradientUnits="userSpaceOnUse"
       id="linearGradient560"
       xlink:href="#07a0b5f0-40d7-4714-acbe-80fa7c137a96"
       inkscape:collect="always" />
  </defs>
  <path
     d="m 1050.0066,720.25377 c -41.29,62.11 -30.84,148.44 -10.05,216.82 7,22.89 14.91,47.08 10.21,72.38003 -5.75,30.94 -29.19,54.77 -53.22002,68.11 -43.79,24.33 -94.62,22.33 -132.33,-5.19 -32.59,-23.79 -54.74,-64.38 -88,-87.00003 -55.59,-37.72 -129.82,-17.54 -193.92,14.88003 -45.35,22.91 -95.14,52.13 -138.12,33.8 -30.24,-12.9 -49.84,-47.64003 -59.58,-85.15003 -4.7,-18.11 -7.78,-37.84 -17.8,-51.81 -6,-8.3 -14,-14 -22.29,-18.63 -75.71,-42.74 -175.6,-11.15 -248.849999,-59.21 -49.43,-32.4 -78.84,-97.54 -89.8199998,-166.69 -10.98,-69.15 -5.56999994,-142.7 1.77,-215.08 5.2099998,-51.43 12.6799998,-106.45 41.3699998,-147.68 30.35,-43.61 79.579999,-62.18 122.999999,-56.95 43.42,5.23 81.6,31.13 114.83,62.4 41.53,39 79.37,88.46 132.1,102 35.91,9.25 74.61,0.57 112.35,-4 63.1,-7.55 125.63,-3.35 187.74,1.64 59.47,4.78 119.32,10.39 175.17,30.77 39.52,14.42 70.34,43.14 107.39002,62.24 24.15,12.45 51.05,14.63 73.68,31 27.88,20.15 52.52,56.69 42.83,101.84 -9.21,42.99 -46.55,66.51 -68.46,99.51 z"
     id="path1280"
     fill="#504f5b"
     opacity="0.1" />
  <rect
     x="880.80658"
     y="488.41379"
     width="40.889999"
     height="61.900002"
     fill="#504f5b"
     opacity="0.1"
     id="rect1282" />
  <rect
     x="884.77661"
     y="494.43378"
     width="32.939999"
     height="49.860001"
     fill="#504f5b"
     opacity="0.1"
     id="rect1284" />
  <rect
     x="797.80658"
     y="445.41376"
     width="62.799999"
     height="61.900002"
     fill="#504f5b"
     opacity="0.1"
     id="rect1286" />
  <rect
     x="803.90662"
     y="451.43378"
     width="50.59"
     height="49.860001"
     fill="#504f5b"
     opacity="0.1"
     id="rect1288" />
  <rect
     x="64.626587"
     y="353.31378"
     width="191.95"
     height="5.1100001"
     fill="#504f5b"
     opacity="0.1"
     id="rect1290" />
  <rect
     x="64.626587"
     y="378.30377"
     width="191.95"
     height="5.1100001"
     fill="#504f5b"
     opacity="0.1"
     id="rect1292" />
  <rect
     x="388.43658"
     y="684.62378"
     width="19.610001"
     height="219.14"
     fill="#d6d6e3"
     id="rect1294" />
  <path
     d="m 980.84658,707.63377 v -202.14 a 21.25,21.25 0 0 1 21.25002,-21.24 v 0 a 21.25,21.25 0 0 1 21.21,21.24 v 244.64 a 21.25,21.25 0 0 1 -21.25,21.25 H 870.44658 a 21.25,21.25 0 0 1 -21.25,-21.25 v 0 a 21.25,21.25 0 0 1 21.25,-21.25 h 89.15 a 21.25,21.25 0 0 0 21.25,-21.25 z"
     fill="#aebee1"
     id="path1296" />
  <path
     d="m 980.84658,707.63377 v -202.14 a 21.25,21.25 0 0 1 21.25002,-21.24 v 0 a 21.25,21.25 0 0 1 21.21,21.24 v 244.64 a 21.25,21.25 0 0 1 -21.25,21.25 H 870.44658 a 21.25,21.25 0 0 1 -21.25,-21.25 v 0 a 21.25,21.25 0 0 1 21.25,-21.25 h 89.15 a 21.25,21.25 0 0 0 21.25,-21.25 z"
     fill="#535461"
     id="path1298" />
  <path
     d="m 849.22658,748.99377 a 21.25,21.25 0 0 1 21.22,-20.11 h 89.15 a 21.25,21.25 0 0 0 21.25,-21.25 v -202.14 a 21.25,21.25 0 0 1 20.23002,-21.24 v 264.74 z"
     fill="#d6d6e3"
     id="path1300" />
  <path
     d="m 192.50658,714.45377 v -202.14 a 21.25,21.25 0 0 0 -21.2,-21.25 v 0 a 21.25,21.25 0 0 0 -21.25,21.25 v 244.64 a 21.25,21.25 0 0 0 21.25,21.3 h 131.6 a 21.25,21.25 0 0 0 21.25,-21.25 v 0 a 21.25,21.25 0 0 0 -21.25,-21.25 h -89.14 a 21.25,21.25 0 0 1 -21.26,-21.3 z"
     fill="#aebee1"
     id="path1302" />
  <path
     d="m 192.50658,714.45377 v -202.14 a 21.25,21.25 0 0 0 -21.2,-21.25 v 0 a 21.25,21.25 0 0 0 -21.25,21.25 v 244.64 a 21.25,21.25 0 0 0 21.25,21.3 h 131.6 a 21.25,21.25 0 0 0 21.25,-21.25 v 0 a 21.25,21.25 0 0 0 -21.25,-21.25 h -89.14 a 21.25,21.25 0 0 1 -21.26,-21.3 z"
     fill="#535461"
     id="path1304" />
  <path
     d="m 324.12658,755.81377 a 21.25,21.25 0 0 0 -21.22,-20.11 h -89.14 a 21.25,21.25 0 0 1 -21.26,-21.25 v -202.14 a 21.25,21.25 0 0 0 -20.2,-21.22 v 264.72 z"
     fill="#d6d6e3"
     id="path1306" />
  <rect
     x="776.40662"
     y="684.62378"
     width="19.610001"
     height="224.25"
     fill="#d6d6e3"
     id="rect1308" />
  <rect
     x="388.43658"
     y="684.62378"
     width="19.610001"
     height="16.200001"
     opacity="0.1"
     id="rect1310" />
  <rect
     x="776.40662"
     y="684.62378"
     width="19.610001"
     height="16.200001"
     opacity="0.1"
     id="rect1312" />
  <path
     d="m 458.47658,551.17377 q -0.47,5.18 -1.19,10.5 h -2.77 v -10.5 z"
     opacity="0.1"
     id="path1314" />
  <path
     d="m 538.82658,660.25377 c 0.06,3.55 -2.5,6.46 -5.67,6.46 h -59.85 v -6.24 h 49.8 c 2.15,0 3.49,-2.6 2.41,-4.68 l -45.16,-91.85 a 4,4 0 0 0 -3.5,-2.26 h -22.34 v -10.5 h 28.21 a 2.8,2.8 0 0 1 2.45,1.58 l 51.77,100 a 17,17 0 0 1 1.88,7.49 z"
     fill="#535461"
     id="path1316" />
  <path
     d="m 428.90658,643.59377 -0.82,1.38 -7.67,-5.12 23.73,-182.47 h 6.11 c 0,0 0.25,0.84 0.66,2.44 4.09,15.77 24.18,105.08 -22.01,183.77 z"
     fill="#535461"
     id="path1318" />
  <path
     d="m 450.90658,459.82377 -22,183.77 -0.82,1.38 -7.67,-5.12 23.73,-182.47 h 6.11 c 0,0 0.24,0.87 0.65,2.44 z"
     opacity="0.1"
     id="path1320" />
  <rect
     x="-589.70392"
     y="487.06308"
     width="189.28999"
     height="14.5"
     transform="rotate(-83.17)"
     fill="#d6d6e3"
     id="rect1322" />
  <path
     d="m 364.13658,660.32377 a 1.72,1.72 0 0 1 -1.71,1.71 h -2.56 a 1.71,1.71 0 0 1 -1.71,-1.71 0.83,0.83 0 0 1 0,-0.2 1.71,1.71 0 0 1 1.69,-1.5 h 2.56 a 1.72,1.72 0 0 1 1.65,1.3 1.58,1.58 0 0 1 0.08,0.4 z"
     fill="#e3edf9"
     id="path1324" />
  <path
     d="m 371.80658,660.32377 a 1.72,1.72 0 0 1 -1.71,1.71 h -2.56 a 1.71,1.71 0 0 1 -1.71,-1.71 1.68,1.68 0 0 1 0.07,-0.47 1.61,1.61 0 0 1 0.43,-0.73 1.67,1.67 0 0 1 1.2,-0.5 h 2.56 a 1.72,1.72 0 0 1 1.57,1 1.76,1.76 0 0 1 0.15,0.7 z"
     fill="#e3edf9"
     id="path1326" />
  <path
     d="m 378.62658,660.32377 a 1.72,1.72 0 0 1 -1.71,1.71 h -2.56 a 1.71,1.71 0 0 1 -1.71,-1.71 1.62,1.62 0 0 1 0.15,-0.71 1.74,1.74 0 0 1 1.55,-1 h 2.56 a 1.7,1.7 0 0 1 1.71,1.71 z"
     fill="#e3edf9"
     id="path1328" />
  <path
     d="m 386.30658,660.32377 a 1.72,1.72 0 0 1 -1.71,1.71 h -2.56 a 1.71,1.71 0 0 1 -1.4,-2.69 l 0.2,-0.22 a 1.67,1.67 0 0 1 1.2,-0.5 h 2.56 a 1.72,1.72 0 0 1 1.24,0.55 1.65,1.65 0 0 1 0.47,1.15 z"
     fill="#e3edf9"
     id="path1330" />
  <path
     d="m 364.08658,659.91377 a 1.58,1.58 0 0 1 0.05,0.41 1.72,1.72 0 0 1 -1.71,1.71 h -2.56 a 1.71,1.71 0 0 1 -1.71,-1.71 0.83,0.83 0 0 1 0,-0.2 z"
     opacity="0.1"
     id="path1332" />
  <path
     d="m 371.66658,659.64377 a 1.76,1.76 0 0 1 0.14,0.67 1.72,1.72 0 0 1 -1.71,1.71 h -2.56 a 1.71,1.71 0 0 1 -1.71,-1.71 1.68,1.68 0 0 1 0.07,-0.47 z"
     opacity="0.1"
     id="path1334" />
  <path
     d="m 378.37658,659.41377 a 1.72,1.72 0 0 1 0.26,0.9 1.72,1.72 0 0 1 -1.71,1.71 h -2.56 a 1.71,1.71 0 0 1 -1.71,-1.71 1.62,1.62 0 0 1 0.15,-0.71 z"
     opacity="0.1"
     id="path1336" />
  <path
     d="m 386.30658,660.32377 a 1.72,1.72 0 0 1 -1.71,1.71 h -2.56 a 1.71,1.71 0 0 1 -1.4,-2.69 l 5.2,-0.18 a 1.65,1.65 0 0 1 0.47,1.16 z"
     opacity="0.1"
     id="path1338" />
  <path
     d="m 401.64658,667.14377 h -49.45 v -2.25 a 3.85,3.85 0 0 1 3.72,-3.85 l 39.66,-1.37 a 5.88,5.88 0 0 1 6.08,5.87 z"
     fill="#d6d6e3"
     id="path1340" />
  <path
     d="m 645.61658,660.25377 c -0.06,3.55 2.5,6.46 5.67,6.46 h 59.88 v -6.24 h -49.86 c -2.15,0 -3.49,-2.6 -2.41,-4.68 l 45.16,-91.85 a 4,4 0 0 1 3.5,-2.26 h 22.35 v -10.5 h -28.19 a 2.8,2.8 0 0 0 -2.41,1.57 l -51.77,100 a 17,17 0 0 0 -1.92,7.5 z"
     fill="#535461"
     id="path1342" />
  <path
     d="m 755.54658,643.59377 0.82,1.38 7.67,-5.12 -23.73,-182.47 h -6.11 c 0,0 -0.25,0.84 -0.66,2.44 -4.1,15.77 -24.23,105.08 22.01,183.77 z"
     fill="#535461"
     id="path1344" />
  <path
     d="m 733.53658,459.82377 22,183.77 0.82,1.38 7.67,-5.12 -23.72,-182.47 h -6.11 c 0,0 -0.25,0.87 -0.66,2.44 z"
     opacity="0.1"
     id="path1346" />
  <rect
     x="674.495"
     y="541.25629"
     width="14.5"
     height="189.28999"
     transform="rotate(-6.83)"
     fill="#d6d6e3"
     id="rect1348" />
  <path
     d="m 820.30658,660.32377 a 1.72,1.72 0 0 0 1.71,1.71 h 2.56 a 1.71,1.71 0 0 0 1.71,-1.71 0.83,0.83 0 0 0 0,-0.2 1.71,1.71 0 0 0 -1.69,-1.5 h -2.56 a 1.72,1.72 0 0 0 -1.65,1.3 1.58,1.58 0 0 0 -0.08,0.4 z"
     fill="#e3edf9"
     id="path1350" />
  <path
     d="m 812.63658,660.32377 a 1.72,1.72 0 0 0 1.71,1.71 h 2.56 a 1.71,1.71 0 0 0 1.71,-1.71 1.68,1.68 0 0 0 -0.07,-0.47 1.61,1.61 0 0 0 -0.43,-0.73 1.67,1.67 0 0 0 -1.2,-0.5 h -2.61 a 1.72,1.72 0 0 0 -1.57,1 1.76,1.76 0 0 0 -0.1,0.7 z"
     fill="#e3edf9"
     id="path1352" />
  <path
     d="m 805.81658,660.32377 a 1.72,1.72 0 0 0 1.71,1.71 h 2.56 a 1.71,1.71 0 0 0 1.71,-1.71 1.62,1.62 0 0 0 -0.15,-0.71 1.74,1.74 0 0 0 -1.55,-1 h -2.56 a 1.7,1.7 0 0 0 -1.71,1.71 z"
     fill="#e3edf9"
     id="path1354" />
  <path
     d="m 798.13658,660.32377 a 1.72,1.72 0 0 0 1.71,1.71 h 2.56 a 1.71,1.71 0 0 0 1.4,-2.69 l -0.2,-0.22 a 1.67,1.67 0 0 0 -1.2,-0.5 h -2.56 a 1.72,1.72 0 0 0 -1.24,0.55 1.65,1.65 0 0 0 -0.47,1.15 z"
     fill="#e3edf9"
     id="path1356" />
  <path
     d="m 820.35658,659.91377 a 1.58,1.58 0 0 0 -0.05,0.41 1.72,1.72 0 0 0 1.71,1.71 h 2.56 a 1.71,1.71 0 0 0 1.71,-1.71 0.83,0.83 0 0 0 0,-0.2 z"
     opacity="0.1"
     id="path1358" />
  <path
     d="m 812.77658,659.64377 a 1.76,1.76 0 0 0 -0.14,0.67 1.72,1.72 0 0 0 1.71,1.71 h 2.56 a 1.71,1.71 0 0 0 1.71,-1.71 1.68,1.68 0 0 0 -0.07,-0.47 z"
     opacity="0.1"
     id="path1360" />
  <path
     d="m 806.06658,659.41377 a 1.72,1.72 0 0 0 -0.26,0.9 1.72,1.72 0 0 0 1.71,1.71 h 2.56 a 1.71,1.71 0 0 0 1.71,-1.71 1.62,1.62 0 0 0 -0.15,-0.71 z"
     opacity="0.1"
     id="path1362" />
  <path
     d="m 798.13658,660.32377 a 1.72,1.72 0 0 0 1.71,1.71 h 2.56 a 1.71,1.71 0 0 0 1.4,-2.69 l -5.2,-0.18 a 1.65,1.65 0 0 0 -0.47,1.16 z"
     opacity="0.1"
     id="path1364" />
  <path
     d="m 782.79658,667.14377 h 49.45 v -2.25 a 3.85,3.85 0 0 0 -3.72,-3.85 l -39.66,-1.37 a 5.88,5.88 0 0 0 -6.08,5.87 z"
     fill="#d6d6e3"
     id="path1366" />
  <path
     style="fill:url(#linearGradient560)"
     d="m 989.77658,694.25377 c 23.07002,-39.13 14.71002,-118.06 15.64002,-119.57 0.83,-1.33 -2.35,-38.5 -23.55002,-47.58 -3.83,-7.59 -7.6,-16.14 -7.6,-16.14 a 6.73,6.73 0 0 1 -1.22,0.91 q -0.25,-0.68 -0.49,-1.38 c -0.27,-0.79 -0.52,-1.6 -0.77,-2.41 a 15.53,15.53 0 0 0 1.81,0.46 7.54,7.54 0 0 0 4.84,-0.43 5.39,5.39 0 0 0 1.39,-1.07 c 1.67,-1.11 2.59,-3.11 3.37,-5 l 6.17,-14.78 c 2.78,-6.67 5.58,-13.38 7.06,-20.45 a 57.58,57.58 0 0 0 -2.46,-31.86 c -1.46,-3.88 -3.48,-7.76 -6.91,-10.08 -6.87,-4.66 -16.43,-1.44 -24.28,-4.17 -2.58,-0.9 -4.91,-2.42 -7.49,-3.34 -5.57,-2 -11.86,-0.93 -17.22,1.56 -5.36,2.49 -9.7,6.45 -14.39,10 -2.31,1.77 -6,3.6 -8.72,6 -2.64,2.06 -4.67,4.55 -4.28,7.83 0.44,3.75 4.39,6 8.07,6.88 0.61,0.14 1.24,0.25 1.86,0.36 a 36,36 0 0 0 15.37,59.8 84.36,84.36 0 0 1 4.86,10.93 q 0.27,0.77 0.53,1.55 c -6.06,1.72 -10.8,3.15 -11.75,3.94 -2.87,2.38 3.14,23.22 3.14,23.22 -1.53,1.94 -3.09,4.15 -4.67,6.52 a 140.55,140.55 0 0 0 -22.16,60.57 c -1,7.91 -2.3,16 -3.95,23.69 l -71.67,-14.37 -0.15,1.77 -1.71,-0.42 v 0 l -5.38,-1.33 -0.21,1.21 -0.82,-0.39 c -13.33,-6.25 -35.79,-14.23 -51,-6 -16.05,8.64 18.59,20.12 40.82,26.23 -7.37,0.36 -14.42,2.13 -20,6.27 -16.12,12.08 29.47,18.37 51,20.6 l 0.87,0.09 v 0.46 l 7.46,0.69 1.75,0.16 0.17,2.66 c 0,0 10.68,1.75 24.95,3.87 -16.29,4.07 -36.42,6.89 -50.4,8.54 -14.82,1.74 -27.44,12.06 -31.42,26.45 a 23.52,23.52 0 0 0 -0.36,12.72 c 4.16,14.53 -0.92,121.42 -2.07,144.44 l -26.35,15.17 c 0,0 -41,5 -13.69,14.61 a 56.16,56.16 0 0 0 7.53,2 c -3.6,2.32 -3.29,5.35 7.32,9.07 27.33,9.58 90.86,-0.42 90.86,-0.42 0,0 -1.39,-11.26 -3.65,-20.62 l 0.7,0.06 c 0,0 -6.56,-24.41 3.39,-36.72 9.95,-12.31 -1.67,-106 -1.67,-106 0,0 17.42,-7.21 69.49,-7.68 42,10.78 62.47,-27.81 62.18,-47.76 -0.09,-0.45 -0.11,-0.91 -0.14,-1.32 z"
     fill="url(#07a0b5f0-40d7-4714-acbe-80fa7c137a96)"
     id="path1368" />
  <path
     d="m 834.55658,633.61377 -4.45,18 c 0,0 -4,-0.9 -10,-2.44 -20.32,-5.26 -63.18,-17.89 -46,-27.16 14.81,-8 36.62,-0.22 49.57,5.85 4.74,2.23 8.3,4.23 9.89,5.17 0.67,0.38 0.99,0.58 0.99,0.58 z"
     fill="#f8b9bf"
     id="path1370" />
  <path
     d="m 833.30658,638.69377 -3.2,13 c 0,0 -4,-0.9 -10,-2.44 l 3.61,-21.31 c 4.74,2.23 8.3,4.23 9.89,5.17 z"
     opacity="0.1"
     id="path1372" />
  <polygon
     transform="translate(0.00658126,231.99377)"
     points="824.75,395.1 834.68,397.55 833.31,420.93 820.89,417.86 "
     fill="#d9dfe8"
     id="polygon1374" />
  <polygon
     transform="translate(0.00658126,231.99377)"
     points="829.97,396.39 834.68,397.55 833.31,420.93 827.95,419.61 "
     opacity="0.1"
     id="polygon1376" />
  <path
     d="m 953.15658,558.65377 c 0,0 -23.85,-13.78 -34.45,25.75 -10.6,39.53 -11.6,57.74 -11.6,57.74 l -75.32,-15.06 -2.39,27.51 c 0,0 80.53,26 90.66,24.11 10.13,-1.89 43,-57 43,-57 0,0 29.88,-42.71 -9.9,-63.05 z"
     fill="#504f5b"
     id="path1378" />
  <g
     transform="translate(0.00658126,231.99377)"
     opacity="0.1"
     id="g1390">
    <path
       d="m 874.25,420.36 -4.45,18 c 0,0 -4,-0.9 -10,-2.44 -20.32,-5.26 -63.18,-17.89 -46,-27.16 14.81,-8 36.62,-0.22 49.57,5.85 4.74,2.23 8.3,4.23 9.89,5.17 0.67,0.38 0.99,0.58 0.99,0.58 z"
       transform="translate(-39.7,-18.74)"
       id="path1380" />
    <path
       d="m 873,425.44 -3.2,13 c 0,0 -4,-0.9 -10,-2.44 l 3.61,-21.31 c 4.74,2.23 8.3,4.23 9.89,5.17 z"
       transform="translate(-39.7,-18.74)"
       opacity="0.1"
       id="path1382" />
    <polygon
       points="824.75,395.1 834.68,397.55 833.31,420.93 820.89,417.86 "
       id="polygon1384" />
    <polygon
       points="829.97,396.39 834.68,397.55 833.31,420.93 827.95,419.61 "
       opacity="0.1"
       id="polygon1386" />
    <path
       d="m 992.85,346.4 c 0,0 -23.85,-13.78 -34.45,25.75 -10.6,39.53 -11.6,57.74 -11.6,57.74 l -75.32,-15.06 -2.39,27.51 c 0,0 80.53,26 90.66,24.11 10.13,-1.89 43,-57 43,-57 0,0 29.88,-42.71 -9.9,-63.05 z"
       transform="translate(-39.7,-18.74)"
       id="path1388" />
  </g>
  <path
     d="m 801.45658,864.95377 -30.75,17.71 c 0,0 -39.84,4.88 -13.3,14.18 26.54,9.3 88.24,-0.41 88.24,-0.41 0,0 -3.43,-27.72 -8.21,-31.59 -4.78,-3.87 -35.98,0.11 -35.98,0.11 z"
     fill="#68739d"
     id="path1392" />
  <path
     d="m 921.30658,666.25377 c 0,0 -15.3,8 -42.48,14.91 -15.93,4 -35.87,6.84 -49.65,8.46 a 35.81,35.81 0 0 0 -30.52,25.63 22.84,22.84 0 0 0 -0.35,12.4 c 4.53,15.83 -2.23,144.51 -2.23,144.51 l 46.7,4.32 c 0,0 -6.37,-23.71 3.3,-35.66 9.67,-11.95 -1.62,-102.91 -1.62,-102.91 0,0 16.92,-7 67.48,-7.46 46.84,12 66.14,-39.27 58.91,-53.64 -7.23,-14.37 -49.54,-10.56 -49.54,-10.56 z"
     fill="#6394e2"
     id="path1394" />
  <g
     transform="translate(0.00658126,231.99377)"
     opacity="0.1"
     id="g1400">
    <path
       d="m 841.15,651.7 -30.75,17.71 c 0,0 -39.84,4.88 -13.3,14.18 26.54,9.3 88.24,-0.41 88.24,-0.41 0,0 -3.43,-27.72 -8.21,-31.59 -4.78,-3.87 -35.98,0.11 -35.98,0.11 z"
       transform="translate(-39.7,-18.74)"
       id="path1396" />
    <path
       d="m 961,453 c 0,0 -15.3,8 -42.48,14.91 -15.93,4 -35.87,6.84 -49.65,8.46 A 35.81,35.81 0 0 0 838.35,502 22.84,22.84 0 0 0 838,514.4 c 4.53,15.83 -2.23,144.51 -2.23,144.51 l 46.7,4.32 c 0,0 -6.37,-23.71 3.3,-35.66 9.67,-11.95 -1.62,-102.91 -1.62,-102.91 0,0 16.92,-7 67.48,-7.46 46.84,12 66.14,-39.27 58.91,-53.64 C 1003.31,449.19 961,453 961,453 Z"
       transform="translate(-39.7,-18.74)"
       id="path1398" />
  </g>
  <path
     d="m 815.87658,875.70377 -30.75,17.71 c 0,0 -39.82,4.84 -13.3,14.18 26.52,9.34 88.24,-0.41 88.24,-0.41 0,0 -3.43,-27.72 -8.21,-31.59 -4.78,-3.87 -35.98,0.11 -35.98,0.11 z"
     fill="#68739d"
     id="path1402" />
  <path
     d="m 926.30658,741.20377 c -50.56,0.46 -67.48,7.46 -67.48,7.46 0,0 11.29,91 1.62,102.91 -9.67,11.91 -3.3,35.66 -3.3,35.66 l -46.7,-4.32 c 0,0 0.08,-1.52 0.21,-4.24 1.12,-22.36 6.05,-126.16 2,-140.27 a 22.84,22.84 0 0 1 0.35,-12.36 35.82,35.82 0 0 1 30.51,-25.69 c 13.77,-1.61 33.71,-4.41 49.64,-8.46 l 0.78,-0.2 c 26.7,-6.86 41.7,-14.71 41.7,-14.71 0,0 42.31,-3.8 49.54,10.57 a 17,17 0 0 1 1.48,7.25 c 0.36,19.39 -19.54,56.87 -60.35,46.4 z"
     fill="#6394e2"
     id="path1404" />
  <path
     d="m 855.87658,656.04377 -1.71,18.5 c 0,0 -4.11,-0.29 -10.22,-0.93 -20.87,-2.17 -65.14,-8.27 -49.49,-20 13.46,-10.08 36.18,-5.68 49.89,-1.6 5,1.5 8.84,2.95 10.55,3.64 0.63,0.24 0.98,0.39 0.98,0.39 z"
     fill="#f8b9bf"
     id="path1406" />
  <path
     d="m 980.08658,535.09377 c 0,0 -6.26,4.9 -13.91,10.28 -8.39,1.9 -18.13,3.47 -25.15,4.49 2.51,-8 1,-17 -1.83,-24.89 a 93.69,93.69 0 0 0 -12.55,-23.08 l 42.32,-13.21 c -3.32,8.41 -1.82,18 1,26.34 a 86.85,86.85 0 0 0 10.12,20.07 z"
     fill="#f8b9bf"
     id="path1408" />
  <path
     d="m 855.39658,661.25377 -1.23,13.29 c 0,0 -4.11,-0.29 -10.22,-0.93 l 0.4,-21.61 c 5,1.5 8.84,2.95 10.55,3.64 z"
     opacity="0.1"
     id="path1410" />
  <polygon
     transform="translate(0.00658126,231.99377)"
     points="845.2,419.07 855.39,420.01 857.52,443.33 844.78,442.15 "
     fill="#d9dfe8"
     id="polygon1412" />
  <path
     d="m 980.08658,535.09377 c 0,0 -6.26,4.9 -13.91,10.28 -8.39,1.9 -18.13,3.47 -25.15,4.49 2.51,-8 1,-17 -1.83,-24.89 10.34,-3 25.13,-6.88 30.78,-10 a 86.85,86.85 0 0 0 10.11,20.12 z"
     opacity="0.1"
     id="path1414" />
  <path
     d="m 971.62658,515.47377 c 0,0 7.08,16.07 11.54,23.33 4.46,7.26 -51.82,14 -51.82,14 0,0 -5.84,-20.23 -3.05,-22.55 2.79,-2.32 38.62,-10.08 43.33,-14.78 z"
     fill="#d9dfe8"
     id="path1416" />
  <path
     d="m 986.73658,694.81377 a 50.63,50.63 0 0 1 -8.76,11.34 c -24.86,23.62 -65.61,-1 -84,-14.46 26.7,-6.86 41.7,-14.71 41.7,-14.71 0,0 42.31,-3.8 49.54,10.57 a 17,17 0 0 1 1.52,7.26 z"
     opacity="0.1"
     id="path1418" />
  <path
     d="m 978.13658,704.46377 c -28.26,26.84 -77,-8.7 -90.14,-19.17 -2.13,-1.7 -3.32,-2.75 -3.32,-2.75 5.19,-4.86 9.75,-15.16 13.36,-27.76 a 243.61,243.61 0 0 0 7.27,-36.78 136.5,136.5 0 0 1 21.52,-58.83 c 1.53,-2.3 3,-4.45 4.53,-6.33 10.67,-13.57 28.6,-22.19 28.6,-22.19 37.84,-11.06 42.93002,45.07 41.92002,46.69 -1.01,1.62 9.11,95.91 -23.74002,127.12 z"
     fill="#504f5b"
     id="path1420" />
  <path
     d="m 981.79658,627.73377 c 0,0 -24.33,59.4 -34.06,62.79 -5.57,1.93 -35.32,-1.73 -59.74,-5.22 -2.13,-1.7 -3.32,-2.75 -3.32,-2.75 5.19,-4.86 9.75,-15.16 13.36,-27.76 l 31.45,1.5 c 0,0 -1.75,-18.14 2.87,-58.82 4.62,-40.68 30.23,-30.6 30.23,-30.6 42.37002,14.19 19.21,60.86 19.21,60.86 z"
     opacity="0.1"
     id="path1422" />
  <polygon
     transform="translate(0.00658126,231.99377)"
     points="850.56,419.57 855.39,420.01 857.52,443.33 852.02,442.82 "
     opacity="0.1"
     id="polygon1424" />
  <path
     d="m 961.97658,564.25377 c 0,0 -25.61,-10.07 -30.23,30.6 -4.62,40.67 -2.87,58.82 -2.87,58.82 l -76.73,-3.67 1.73,27.56 c 0,0 83.51,13.71 93.24,10.33 9.73,-3.38 34.06,-62.79 34.06,-62.79 0,0 23.13002,-46.67 -19.2,-60.85 z"
     fill="#504f5b"
     id="path1426" />
  <path
     d="m 963.69658,504.03377 c -1.12,-6.08 5.23,-6 7.51,-11.72 l -42.32,13.21 a 93.4,93.4 0 0 1 7.84,12.47 35.11,35.11 0 0 0 6.73,1.3 c 10.09,0.96 13.24,-8.97 20.24,-15.26 z"
     opacity="0.1"
     id="path1428" />
  <circle
     cx="-391.88693"
     cy="984.64343"
     r="34.959999"
     transform="rotate(-84.72)"
     fill="#f8b9bf"
     id="circle1430" />
  <path
     d="m 909.90658,449.25377 c 0.43,3.64 4.27,5.86 7.84,6.68 3.57,0.82 7.44,0.86 10.57,2.77 5,3.08 6.35,9.92 5.72,15.8 -0.35,3.32 -0.85,7.39 1.87,9.32 a 7.25,7.25 0 0 0 2.8,1 26.26,26.26 0 0 0 8.62,0.3 c 1.68,-0.22 3.41,-0.6 5,-0.13 2.62,0.76 4.17,3.52 4.68,6.19 0.51,2.67 0.23,5.45 0.64,8.14 a 16.9,16.9 0 0 0 13.32,13.74 7.33,7.33 0 0 0 4.7,-0.42 c 1.9,-1 2.87,-3.13 3.69,-5.12 l 6,-14.36 c 2.7,-6.47 5.42,-13 6.86,-19.86 a 55.92,55.92 0 0 0 -2.39,-30.94 c -1.42,-3.76 -3.38,-7.53 -6.71,-9.79 -6.67,-4.53 -16,-1.4 -23.58,-4 -2.51,-0.87 -4.77,-2.35 -7.27,-3.24 -5.41,-1.93 -11.52,-0.91 -16.73,1.52 -5.21,2.43 -9.42,6.26 -14,9.75 -3.97,3.09 -12.38,6.36 -11.63,12.65 z"
     opacity="0.1"
     id="path1432" />
  <path
     d="m 910.82658,448.48377 c 0.43,3.64 4.27,5.86 7.84,6.68 3.57,0.82 7.44,0.86 10.57,2.77 5,3.08 6.35,9.92 5.72,15.8 -0.35,3.32 -0.85,7.39 1.87,9.32 a 7.25,7.25 0 0 0 2.8,1 26.26,26.26 0 0 0 8.62,0.3 c 1.68,-0.22 3.41,-0.6 5,-0.13 2.62,0.76 4.17,3.52 4.68,6.19 0.51,2.67 0.23,5.45 0.64,8.14 a 16.9,16.9 0 0 0 13.32,13.74 7.33,7.33 0 0 0 4.7,-0.42 c 1.9,-1 2.87,-3.13 3.69,-5.12 l 6,-14.36 c 2.7,-6.47 5.42,-13 6.86,-19.86 a 55.92,55.92 0 0 0 -2.39,-30.94 c -1.42,-3.76 -3.38,-7.53 -6.71,-9.79 -6.67,-4.53 -16,-1.4 -23.58,-4 -2.51,-0.87 -4.77,-2.35 -7.27,-3.24 -5.41,-1.93 -11.52,-0.91 -16.73,1.52 -5.21,2.43 -9.42,6.26 -14,9.75 -3.96,3.09 -12.37,6.36 -11.63,12.65 z"
     fill="#b96b6b"
     id="path1434" />
  <path
     d="m 939.78658,586.59377 c 0,0 -13.35,51.86 -26.64,56.66 -13.29,4.8 -7.42,6.16 -7.42,6.16"
     opacity="0.1"
     id="path1436" />
  <rect
     x="925.90662"
     y="776.57379"
     width="14.51"
     height="95.370003"
     fill="#d6d6e3"
     id="rect1438" />
  <rect
     x="925.90662"
     y="776.57379"
     width="14.51"
     height="7.0700002"
     opacity="0.1"
     id="rect1440" />
  <path
     d="m 896.87658,776.07377 v 2 a 4.69,4.69 0 0 0 4.69,4.69 h 63.18 a 4.69,4.69 0 0 0 4.69,-4.69 v -2 a 4.69,4.69 0 0 0 -4.69,-4.69 h -63.18 a 4.69,4.69 0 0 0 -4.69,4.69 z"
     fill="#d6d6e3"
     id="path1442" />
  <path
     d="m 897.95658,773.09377 h 70.41 a 4.67,4.67 0 0 0 -3.62,-1.71 h -63.18 a 4.67,4.67 0 0 0 -3.61,1.71 z"
     opacity="0.1"
     id="path1444" />
  <rect
     x="873.56659"
     y="866.75378"
     width="119.21"
     height="11.4"
     rx="5.5"
     ry="5.5"
     fill="#d6d6e3"
     id="rect1446" />
  <circle
     cx="986.03662"
     cy="885.41376"
     r="7.2600002"
     fill="#535461"
     id="circle1448" />
  <circle
     cx="880.29657"
     cy="885.41376"
     r="7.2600002"
     fill="#535461"
     id="circle1450" />
  <circle
     cx="933.16656"
     cy="885.41376"
     r="7.2600002"
     fill="#535461"
     id="circle1452" />
  <rect
     x="917.74658"
     y="659.43378"
     width="114.03"
     height="17.620001"
     rx="8.5"
     ry="8.5"
     fill="#d6d6e3"
     id="rect1454" />
  <path
     d="m 940.41658,866.75377 c 0,0 -5.7,5.63 -14.51,0"
     opacity="0.1"
     id="path1456" />
  <path
     d="m 1031.7766,668.42377 v 1.39 a 7.25,7.25 0 0 1 -7.25,7.25 h -99.53002 a 7.25,7.25 0 0 1 -7.25,-7.25 v -1.39 z"
     opacity="0.1"
     id="path1458" />
  <rect
     x="822.44659"
     y="684.62378"
     width="19.610001"
     height="249.86"
     fill="#d6d6e3"
     id="rect1460" />
  <rect
     x="822.44659"
     y="684.62378"
     width="19.610001"
     height="16.200001"
     opacity="0.1"
     id="rect1462" />
  <rect
     x="232.94658"
     y="783.3938"
     width="14.51"
     height="95.370003"
     fill="#d6d6e3"
     id="rect1464" />
  <rect
     x="232.94658"
     y="783.3938"
     width="14.51"
     height="7.0700002"
     opacity="0.1"
     id="rect1466" />
  <path
     d="m 276.47658,782.90377 v 2 a 4.69,4.69 0 0 1 -4.69,4.69 h -63.18 a 4.69,4.69 0 0 1 -4.69,-4.69 v -2 a 4.69,4.69 0 0 1 4.69,-4.65 h 63.18 a 4.69,4.69 0 0 1 4.69,4.69 z"
     fill="#d6d6e3"
     id="path1468" />
  <path
     d="m 275.40658,779.91377 h -70.42 a 4.67,4.67 0 0 1 3.62,-1.66 h 63.18 a 4.67,4.67 0 0 1 3.62,1.66 z"
     opacity="0.1"
     id="path1470" />
  <rect
     x="180.59657"
     y="873.57379"
     width="119.21"
     height="11.4"
     rx="5.5"
     ry="5.5"
     fill="#d6d6e3"
     id="rect1472" />
  <circle
     cx="187.33658"
     cy="892.23376"
     r="7.2600002"
     fill="#535461"
     id="circle1474" />
  <circle
     cx="293.06659"
     cy="892.23376"
     r="7.2600002"
     fill="#535461"
     id="circle1476" />
  <circle
     cx="240.19658"
     cy="892.23376"
     r="7.2600002"
     fill="#535461"
     id="circle1478" />
  <path
     d="m 232.94658,873.57377 c 0,0 5.7,5.63 14.51,0"
     opacity="0.1"
     id="path1480" />
  <path
     d="m 603.11658,586.47377 c 0,0 -16.28,-29.59 -10.33,-55.31 a 51.17,51.17 0 0 0 -2.85,-32.24 86.06,86.06 0 0 0 -7.63,-13.74"
     fill="none"
     stroke="#535461"
     stroke-miterlimit="10"
     stroke-width="2"
     id="path1482" />
  <path
     d="m 585.91658,468.94377 c 0.85,3.88 -3.7,16.67 -3.7,16.67 0,0 -9.49,-9.7 -10.35,-13.58 a 7.19,7.19 0 1 1 14,-3.09 z"
     fill="#504f5b"
     id="path1484" />
  <path
     d="m 602.24658,487.87377 c -1.39,3.72 -12.16,12 -12.16,12 0,0 -2.7,-13.3 -1.3,-17 a 7.19,7.19 0 1 1 13.47,5 z"
     fill="#504f5b"
     id="path1486" />
  <path
     d="m 609.80658,524.69377 c -3.08,2.51 -16.55,4.2 -16.55,4.2 0,0 4.39,-12.84 7.47,-15.35 a 7.19,7.19 0 1 1 9.08,11.15 z"
     fill="#504f5b"
     id="path1488" />
  <path
     d="m 609.25658,553.83377 c -2.61,3 -15.6,6.94 -15.6,6.94 0,0 2.15,-13.4 4.76,-16.39 a 7.19,7.19 0 1 1 10.83,9.45 z"
     fill="#504f5b"
     id="path1490" />
  <path
     d="m 575.50658,503.84377 c 3.38,2.09 16.95,2 16.95,2 0,0 -6,-12.17 -9.38,-14.26 a 7.19,7.19 0 1 0 -7.57,12.22 z"
     fill="#504f5b"
     id="path1492" />
  <path
     d="m 575.30658,537.94377 c 3.85,1 16.78,-3.12 16.78,-3.12 0,0 -9.37,-9.82 -13.22,-10.8 a 7.19,7.19 0 0 0 -3.56,13.92 z"
     fill="#504f5b"
     id="path1494" />
  <path
     d="m 579.63658,571.10377 c 3.62,1.62 17.07,-0.24 17.07,-0.24 0,0 -7.58,-11.26 -11.2,-12.88 a 7.1912064,7.1912064 0 0 0 -5.87,13.13 z"
     fill="#504f5b"
     id="path1496" />
  <path
     d="m 585.91658,468.94377 c 0.85,3.88 -3.7,16.67 -3.7,16.67 0,0 -9.49,-9.7 -10.35,-13.58 a 7.19,7.19 0 1 1 14,-3.09 z"
     fill="#504f5b"
     id="path1498" />
  <path
     d="m 602.24658,487.87377 c -1.39,3.72 -12.16,12 -12.16,12 0,0 -2.7,-13.3 -1.3,-17 a 7.19,7.19 0 1 1 13.47,5 z"
     fill="#504f5b"
     id="path1500" />
  <path
     d="m 609.80658,524.69377 c -3.08,2.51 -16.55,4.2 -16.55,4.2 0,0 4.39,-12.84 7.47,-15.35 a 7.19,7.19 0 1 1 9.08,11.15 z"
     fill="#504f5b"
     id="path1502" />
  <path
     d="m 609.25658,553.83377 c -2.61,3 -15.6,6.94 -15.6,6.94 0,0 2.15,-13.4 4.76,-16.39 a 7.19,7.19 0 1 1 10.83,9.45 z"
     fill="#504f5b"
     id="path1504" />
  <path
     d="m 575.50658,503.84377 c 3.38,2.09 16.95,2 16.95,2 0,0 -6,-12.17 -9.38,-14.26 a 7.19,7.19 0 1 0 -7.57,12.22 z"
     fill="#504f5b"
     id="path1506" />
  <path
     d="m 575.30658,537.94377 c 3.85,1 16.78,-3.12 16.78,-3.12 0,0 -9.37,-9.82 -13.22,-10.8 a 7.19,7.19 0 0 0 -3.56,13.92 z"
     fill="#504f5b"
     id="path1508" />
  <path
     d="m 579.63658,571.10377 c 3.62,1.62 17.07,-0.24 17.07,-0.24 0,0 -7.58,-11.26 -11.2,-12.88 a 7.1912064,7.1912064 0 0 0 -5.87,13.13 z"
     fill="#504f5b"
     id="path1510" />
  <path
     d="m 596.49658,668.54377 v 0 a 17.14,17.14 0 0 1 -17.11,-18.22 l 4.79,-75.9 h 24.64 l 4.79,75.9 a 17.14,17.14 0 0 1 -17.11,18.22 z"
     fill="#504f5b"
     id="path1512" />
  <rect
     x="83.606583"
     y="295.41376"
     width="14"
     height="58"
     fill="#504f5b"
     opacity="0.1"
     id="rect1514" />
  <rect
     x="101.60658"
     y="295.41376"
     width="14"
     height="58"
     fill="#504f5b"
     opacity="0.1"
     id="rect1516" />
  <rect
     x="119.60658"
     y="295.41376"
     width="14"
     height="58"
     fill="#504f5b"
     opacity="0.1"
     id="rect1518" />
  <rect
     x="137.60658"
     y="295.41376"
     width="14"
     height="58"
     fill="#504f5b"
     opacity="0.1"
     id="rect1520" />
  <rect
     x="173.60658"
     y="295.41376"
     width="14"
     height="58"
     fill="#504f5b"
     opacity="0.1"
     id="rect1522" />
  <rect
     x="191.60658"
     y="295.41376"
     width="14"
     height="58"
     fill="#504f5b"
     opacity="0.1"
     id="rect1524" />
  <rect
     x="83.606583"
     y="306.41376"
     width="14"
     height="3"
     fill="#504f5b"
     opacity="0.1"
     id="rect1526" />
  <rect
     x="83.606583"
     y="342.41376"
     width="14"
     height="3"
     fill="#504f5b"
     opacity="0.1"
     id="rect1528" />
  <rect
     x="101.60658"
     y="306.41376"
     width="14"
     height="3"
     fill="#504f5b"
     opacity="0.1"
     id="rect1530" />
  <rect
     x="101.60658"
     y="342.41376"
     width="14"
     height="3"
     fill="#504f5b"
     opacity="0.1"
     id="rect1532" />
  <rect
     x="119.60658"
     y="306.41376"
     width="14"
     height="3"
     fill="#504f5b"
     opacity="0.1"
     id="rect1534" />
  <rect
     x="119.60658"
     y="342.41376"
     width="14"
     height="3"
     fill="#504f5b"
     opacity="0.1"
     id="rect1536" />
  <rect
     x="137.60658"
     y="306.41376"
     width="14"
     height="3"
     fill="#504f5b"
     opacity="0.1"
     id="rect1538" />
  <rect
     x="137.60658"
     y="342.41376"
     width="14"
     height="3"
     fill="#504f5b"
     opacity="0.1"
     id="rect1540" />
  <rect
     x="155.60658"
     y="306.41376"
     width="14"
     height="3"
     fill="#504f5b"
     opacity="0.1"
     id="rect1542" />
  <rect
     x="155.60658"
     y="342.41376"
     width="14"
     height="3"
     fill="#504f5b"
     opacity="0.1"
     id="rect1544" />
  <rect
     x="173.60658"
     y="306.41376"
     width="14"
     height="3"
     fill="#504f5b"
     opacity="0.1"
     id="rect1546" />
  <rect
     x="173.60658"
     y="342.41376"
     width="14"
     height="3"
     fill="#504f5b"
     opacity="0.1"
     id="rect1548" />
  <rect
     x="191.60658"
     y="306.41376"
     width="14"
     height="3"
     fill="#504f5b"
     opacity="0.1"
     id="rect1550" />
  <rect
     x="191.60658"
     y="342.41376"
     width="14"
     height="3"
     fill="#504f5b"
     opacity="0.1"
     id="rect1552" />
  <rect
     x="155.60658"
     y="295.41376"
     width="14"
     height="58"
     fill="#504f5b"
     opacity="0.1"
     id="rect1554" />
  <rect
     x="60.545132"
     y="359.745"
     width="14"
     height="58"
     transform="rotate(-24.84)"
     fill="#504f5b"
     opacity="0.1"
     id="rect1556" />
  <rect
     x="60.544579"
     y="370.75537"
     width="14"
     height="3"
     transform="rotate(-24.84)"
     fill="#504f5b"
     opacity="0.1"
     id="rect1558" />
  <rect
     x="60.539104"
     y="406.74884"
     width="14"
     height="3"
     transform="rotate(-24.84)"
     fill="#504f5b"
     opacity="0.1"
     id="rect1560" />
  <path
     style="fill:url(#81276d2b-ddf3-474d-b794-9223ea4701e2)"
     d="m 389.14658,893.46377 -25.41,-16.21 c -0.13,-22.83 -0.49,-128.82 4.26,-143 a 23.29,23.29 0 0 0 0.2,-12.61 c -3.3,-14.41 -15.34,-25.17 -29.93,-27.54 -13.76,-2.24 -33.56,-5.91 -49.5,-10.65 14.21,-1.47 24.86,-2.74 24.86,-2.74 l 0.28,-2.63 9.15,-0.44 v -0.39 l 0.87,-0.05 c 21.37,-1.27 66.75,-5.5 51.33,-18.16 -5.29,-4.34 -12.19,-6.39 -19.47,-7.08 22.26,-5.08 57.05,-14.92 41.54,-24.17 -14.74,-8.78 -37.31,-1.88 -50.78,3.73 l -0.83,0.35 -0.15,-1.21 -5.38,1.08 v 0 l -1.71,0.34 -0.08,-1.76 -75.49,11.66 a 257.66,257.66 0 0 0 -3.08,-25.81 c 1.69,-11.26 9.55,-27.68 6.78,-36.49 -3.22,-10.23 -16.44,-13.58 -22,-22.82 -1.46,-2.41 -2.91,-4.67 -4.33,-6.65 a 70,70 0 0 0 -10.65,-11.51 48.6,48.6 0 0 1 3.92,-17.25 83.57,83.57 0 0 1 5.28,-10.6 35.6,35.6 0 0 0 26.44,-41 c 4.78,2.05 10.59,2.26 13.58,-1.74 l -1.42,-0.55 c 0.14,-0.15 0.28,-0.3 0.4,-0.47 -2.91,-1.11 -6,-2.37 -8.28,-4.39 a 9.7,9.7 0 0 1 -1.45,-2.15 c -1.38,-2.8 -1.22,-6.16 -2.54,-9 a 10.41,10.41 0 0 0 -2.59,-3.38 17.83,17.83 0 0 0 -8.46,-4.84 c -3.61,-1.05 -7.41,-1.58 -10.87,-3 a 36.75,36.75 0 0 0 -39.11,-11 l -1.25,0.43 a 16.31,16.31 0 0 0 -31.81,-7.2 16.27,16.27 0 0 1 4.36,-9.74 c -0.26,0.22 -0.53,0.43 -0.78,0.66 a 16.32,16.32 0 0 0 -0.71,23.07 l 0.29,0.28 a 16.39,16.39 0 0 0 4.09,3.58 16.32,16.32 0 0 1 -10.76,-13.37 c 0,0.34 0,0.68 0,1 a 16.32,16.32 0 0 0 17.35,15.34 l 0.45,-0.05 -0.24,0.33 a 36.71,36.71 0 0 0 3.3,45.45 17,17 0 0 0 2.62,4.2 13.61,13.61 0 0 0 1.21,1.22 15.51,15.51 0 0 0 10.46,4.82 q 1,1.19 2.13,2.29 a 59.52,59.52 0 0 1 -2.58,8.24 87.34,87.34 0 0 1 -7.92,15.27 c -21.6,6.14 -23.5,42.82 -22.72,44.21 0.93,1.66 -3.22,59.26 12.78,128.84 -0.66,19.89 10.94,52.78 52.12,44.11 51.5,2.75 68.39,10.64 68.39,10.64 0,0 -4.89,89.57 2.09,102.61 4.37,8.17 1.27,20.17 -2,28.64 a 31.47,31.47 0 0 0 -2.88,6.64 c -1,2.11 -1.73,3.39 -1.73,3.39 h 0.7 c -2.64,9.17 -4.51,20.24 -4.51,20.24 0,0 62.43,12.67 89.89,4.38 10.66,-3.22 11.1,-6.2 7.64,-8.66 a 55.62,55.62 0 0 0 7.54,-1.65 c 27.48,-8.29 -12.9,-15.08 -12.9,-15.08 z"
     fill="url(#81276d2b-ddf3-474d-b794-9223ea4701e2)"
     id="path1562" />
  <path
     d="m 253.30658,468.25377 a 36,36 0 1 1 -36,-36 36,36 0 0 1 36,36 z"
     fill="#fa595f"
     id="path1564" />
  <path
     d="m 334.39658,637.38377 3.65,18.22 c 0,0 4.06,-0.73 10.07,-2 20.53,-4.35 63.91,-15.09 47.11,-25.11 -14.45,-8.61 -36.58,-1.84 -49.78,3.66 -4.84,2 -8.48,3.86 -10.11,4.73 -0.61,0.31 -0.94,0.5 -0.94,0.5 z"
     fill="#f8b9bf"
     id="path1566" />
  <path
     d="m 335.42658,642.52377 2.62,13.08 c 0,0 4.06,-0.73 10.07,-2 l -2.67,-21.45 c -4.84,2 -8.48,3.86 -10.11,4.73 z"
     opacity="0.1"
     id="path1568" />
  <polygon
     transform="translate(0.00658126,231.99377)"
     points="344.49,399.32 334.45,401.33 334.79,424.74 347.33,422.23 "
     fill="#d9dfe8"
     id="polygon1570" />
  <polygon
     transform="translate(0.00658126,231.99377)"
     points="339.21,400.38 334.45,401.33 334.79,424.74 340.2,423.65 "
     opacity="0.1"
     id="polygon1572" />
  <path
     d="m 219.21658,557.25377 c 0,0 24.41,-12.72 33.28,27.25 8.87,39.97 9,58.19 9,58.19 l 75.92,-11.73 1.18,27.59 c 0,0 -81.6,22.43 -91.63,20.09 -10.03,-2.34 -40.48,-58.85 -40.48,-58.85 0,0 -27.9,-43.95 12.73,-62.54 z"
     fill="#504f5b"
     id="path1574" />
  <g
     transform="translate(0.00658126,231.99377)"
     opacity="0.1"
     id="g1586">
    <path
       d="m 374.09,424.13 3.65,18.22 c 0,0 4.06,-0.73 10.07,-2 20.53,-4.35 63.91,-15.09 47.11,-25.11 -14.45,-8.61 -36.58,-1.84 -49.78,3.66 -4.84,2 -8.48,3.86 -10.11,4.73 -0.61,0.31 -0.94,0.5 -0.94,0.5 z"
       transform="translate(-39.7,-18.74)"
       id="path1576" />
    <path
       d="m 375.12,429.27 2.62,13.08 c 0,0 4.06,-0.73 10.07,-2 l -2.67,-21.45 c -4.84,2 -8.48,3.86 -10.11,4.73 z"
       transform="translate(-39.7,-18.74)"
       opacity="0.1"
       id="path1578" />
    <polygon
       points="344.49,399.32 334.45,401.33 334.79,424.74 347.33,422.23 "
       id="polygon1580" />
    <polygon
       points="339.21,400.38 334.45,401.33 334.79,424.74 340.2,423.65 "
       opacity="0.1"
       id="polygon1582" />
    <path
       d="m 260.91,346 c 0,0 24.41,-12.72 33.28,27.25 8.87,39.97 9,58.19 9,58.19 l 75.92,-11.73 1.18,27.59 c 0,0 -81.6,22.43 -91.63,20.09 -10.03,-2.34 -40.48,-58.85 -40.48,-58.85 0,0 -27.9,-43.95 12.73,-62.54 z"
       transform="translate(-39.7,-18.74)"
       id="path1584" />
  </g>
  <path
     d="m 357.30658,869.96377 29.94,19 c 0,0 39.59,6.63 12.66,14.76 -26.93,8.13 -88.13,-4.3 -88.13,-4.3 0,0 4.65,-27.54 9.6,-31.19 4.95,-3.65 35.93,1.73 35.93,1.73 z"
     fill="#f37291"
     id="path1588" />
  <path
     d="m 246.30658,666.15377 c 0,0 14.93,8.67 41.78,16.77 15.74,4.75 35.54,8.42 49.22,10.65 a 35.81,35.81 0 0 1 29.35,27 22.84,22.84 0 0 1 -0.19,12.36 c -5.22,15.62 -4.16,144.47 -4.16,144.47 l -46.84,2.25 c 0,0 7.41,-23.41 -1.72,-35.77 -9.13,-12.36 6.16,-102.73 6.16,-102.73 0,0 -16.59,-7.74 -67.09,-10.43 -47.33,10 -64.34,-42.15 -56.48,-56.19 7.86,-14.04 49.97,-8.38 49.97,-8.38 z"
     fill="#96a2d0"
     id="path1590" />
  <g
     transform="translate(0.00658126,231.99377)"
     opacity="0.1"
     id="g1596">
    <path
       d="m 397,656.71 29.94,19 c 0,0 39.59,6.63 12.66,14.76 -26.93,8.13 -88.13,-4.3 -88.13,-4.3 0,0 4.65,-27.54 9.6,-31.19 4.95,-3.65 35.93,1.73 35.93,1.73 z"
       transform="translate(-39.7,-18.74)"
       id="path1592" />
    <path
       d="m 286,452.9 c 0,0 14.93,8.67 41.78,16.77 15.74,4.75 35.54,8.42 49.22,10.65 a 35.81,35.81 0 0 1 29.35,27 22.84,22.84 0 0 1 -0.19,12.36 C 400.94,535.3 402,664.15 402,664.15 l -46.84,2.25 c 0,0 7.41,-23.41 -1.72,-35.77 -9.13,-12.36 6.16,-102.73 6.16,-102.73 0,0 -16.59,-7.74 -67.09,-10.43 -47.33,10 -64.34,-42.15 -56.48,-56.19 7.86,-14.04 49.97,-8.38 49.97,-8.38 z"
       transform="translate(-39.7,-18.74)"
       id="path1594" />
  </g>
  <path
     d="m 342.38658,880.07377 29.94,19 c 0,0 39.59,6.63 12.66,14.76 -26.93,8.13 -88.13,-4.3 -88.13,-4.3 0,0 4.65,-27.54 9.6,-31.19 4.95,-3.65 35.93,1.73 35.93,1.73 z"
     fill="#f37291"
     id="path1598" />
  <path
     d="m 237.94658,740.82377 c 50.5,2.69 67.09,10.43 67.09,10.43 0,0 -4.79,87.82 2,100.6 7.25,13.56 -6.48,37.9 -6.48,37.9 l 46.84,-2.25 c 0,0 0,-1.52 0,-4.24 -0.14,-22.38 -0.48,-126.3 4.17,-140.23 a 22.84,22.84 0 0 0 0.19,-12.36 35.82,35.82 0 0 0 -29.35,-27 c -13.69,-2.22 -33.48,-5.89 -49.22,-10.64 l -0.77,-0.24 c -26.37,-8 -41,-16.53 -41,-16.53 0,0 -31.19,-2.16 -39,11.88 -1,1.82 -5.31,5.4 -5.49,8.29 -1.17,19.34 9.84,53.06 51.02,44.39 z"
     fill="#96a2d0"
     id="path1600" />
  <path
     d="m 312.11658,658.85377 0.89,18.56 c 0,0 4.12,-0.11 10.26,-0.48 20.95,-1.25 65.45,-5.39 50.33,-17.8 -13,-10.67 -35.9,-7.27 -49.77,-3.8 -5.09,1.28 -9,2.56 -10.7,3.17 -0.66,0.22 -1.01,0.35 -1.01,0.35 z"
     fill="#f8b9bf"
     id="path1602" />
  <path
     d="m 193.30658,532.54377 c 0,0 6,5.17 13.44,10.89 8.3,2.26 18,4.27 24.93,5.6 -2.15,-8.15 -0.24,-17 2.93,-24.79 a 93.69,93.69 0 0 1 13.56,-22.51 l -41.7,-15.07 c 2.95,8.55 1,18.1 -2.17,26.27 a 86.85,86.85 0 0 1 -10.99,19.61 z"
     fill="#f8b9bf"
     id="path1604" />
  <path
     d="m 312.36658,664.08377 0.64,13.33 c 0,0 4.12,-0.11 10.26,-0.48 l 0.56,-21.61 c -5.09,1.28 -9,2.56 -10.7,3.17 z"
     opacity="0.1"
     id="path1606" />
  <polygon
     transform="translate(0.00658126,231.99377)"
     points="322.99,422.36 312.77,422.85 309.62,446.05 322.39,445.44 "
     fill="#d9dfe8"
     id="polygon1608" />
  <path
     d="m 187.83658,701.83377 c 27,28.07 77.35,-5.29 90.89,-15.17 2.2,-1.61 3.43,-2.6 3.43,-2.6 -5,-5.09 -13,-9.8 -16.07,-22.55 a 277,277 0 0 1 -5.94,-39.52 c -0.83,-10.55 10.07,-30.64 6.92,-40.66 -3.15,-10.02 -16.12,-13.31 -21.57,-22.38 -1.43,-2.36 -2.85,-4.58 -4.25,-6.52 -10.06,-14 -27.59,-23.43 -27.59,-23.43 -37.35,-12.75 -40.28,40.59 -39.35,42.25 0.93,1.66 -3.34,60.46 13.53,130.58 z"
     fill="#504f5b"
     id="path1610" />
  <path
     d="m 187.55658,625.01377 c 0,0 21.69,60.42 31.26,64.23 5.48,2.18 35.37,-0.17 59.91,-2.58 2.2,-1.61 3.43,-2.6 3.43,-2.6 -5,-5.09 -9.07,-15.58 -12.13,-28.32 l -31.49,0.11 c 0,0 2.55,-18 -0.27,-58.89 -2.82,-40.89 -28.85,-31.9 -28.85,-31.9 -42.93,12.31 -21.86,59.95 -21.86,59.95 z"
     opacity="0.1"
     id="path1612" />
  <polygon
     transform="translate(0.00658126,231.99377)"
     points="317.62,422.62 312.77,422.85 309.62,446.05 315.13,445.79 "
     opacity="0.1"
     id="polygon1614" />
  <path
     d="m 210.15658,562.46377 c 0,0 26,-8.93 28.85,31.9 2.85,40.83 0.3,58.89 0.3,58.89 l 76.82,-0.28 -2.95,27.46 c 0,0 -84,10 -93.6,6.21 -9.6,-3.79 -31.27,-64.22 -31.27,-64.22 0,0 -21.09,-47.65 21.85,-59.96 z"
     fill="#504f5b"
     id="path1616" />
  <path
     d="m 211.10658,502.25377 c 1.39,-6 -5,-6.19 -7,-12 l 41.72,15 a 93.4,93.4 0 0 0 -8.38,12.11 35.11,35.11 0 0 1 -6.78,1 c -10.14,0.5 -12.85,-9.53 -19.56,-16.11 z"
     opacity="0.1"
     id="path1618" />
  <circle
     cx="208.07562"
     cy="490.4892"
     r="34.959999"
     transform="rotate(-2.75)"
     fill="#f8b9bf"
     id="circle1620" />
  <path
     d="m 213.30658,588.39377 c 0,0 11.06,52.39 24.12,57.74 13.06,5.35 7.14,6.49 7.14,6.49"
     opacity="0.1"
     id="path1622" />
  <path
     d="m 258.88658,617.98377 c 0,0 -9.24,2.89 -20,-10.92"
     opacity="0.1"
     id="path1624" />
  <circle
     cx="189.30658"
     cy="431.25375"
     r="16"
     fill="#fa595f"
     id="circle1626" />
  <path
     d="m 178.06658,439.70377 a 16,16 0 0 1 0,-21.89 c -0.26,0.21 -0.52,0.42 -0.76,0.65 a 16.002412,16.002412 0 0 0 21.92,23.32 c 0.25,-0.23 0.47,-0.48 0.69,-0.72 a 16,16 0 0 1 -21.85,-1.36 z"
     fill="#fa595f"
     id="path1628" />
  <path
     d="m 187.20658,445.74377 a 16,16 0 0 1 -16.84,-14 c 0,0.33 0,0.66 0,1 a 16.001278,16.001278 0 1 0 31.94,-2 c 0,-0.34 -0.07,-0.66 -0.11,-1 a 16,16 0 0 1 -14.99,16 z"
     fill="#fa595f"
     id="path1630" />
  <path
     d="m 244.25658,445.16377 c 3.73,1.84 8,2.35 12,3.51 4,1.16 8.08,3.28 9.84,7.06 1.29,2.78 1.14,6.07 2.49,8.82 1.94,4 6.42,5.84 10.54,7.41 -3.54,4.75 -11.14,3.46 -16.1,0.23 -4.96,-3.23 -9.23,-8 -15,-9.25 a 14.08,14.08 0 0 0 -14.81,6.59 c -1.58,2.77 -2.14,6 -2.92,9.08 -2,8.12 -6,16.2 -13,20.81 -7,4.61 -17.43,4.58 -22.92,-1.73 -3.2,-3.68 -4.27,-8.69 -5.22,-13.47 a 27.37,27.37 0 0 1 -0.77,-6.81 c 0.32,-5.74 4.14,-10.63 8,-14.89 4.55,-5 9.39,-9.8 14.23,-14.57 4.18,-4.12 9,-11.1 15.3,-11.59 7.26,-0.58 12.39,5.89 18.34,8.8 z"
     opacity="0.1"
     id="path1632" />
  <path
     d="m 243.25658,444.16377 c 3.73,1.84 8,2.35 12,3.51 4,1.16 8.08,3.28 9.84,7.06 1.29,2.78 1.14,6.07 2.49,8.82 1.94,4 6.42,5.84 10.54,7.41 -3.54,4.75 -11.14,3.46 -16.1,0.23 -4.96,-3.23 -9.23,-8 -15,-9.25 a 14.08,14.08 0 0 0 -14.81,6.59 c -1.58,2.77 -2.14,6 -2.92,9.08 -2,8.12 -6,16.2 -13,20.81 -7,4.61 -17.43,4.58 -22.92,-1.73 -3.2,-3.68 -4.27,-8.69 -5.22,-13.47 a 27.37,27.37 0 0 1 -0.77,-6.81 c 0.32,-5.74 4.14,-10.63 8,-14.89 4.55,-5 9.39,-9.8 14.23,-14.57 4.18,-4.12 9,-11.1 15.3,-11.59 7.26,-0.58 12.39,5.89 18.34,8.8 z"
     fill="#fa595f"
     id="path1634" />
  <rect
     x="141.58658"
     y="666.25378"
     width="114.03"
     height="17.620001"
     rx="8.5"
     ry="8.5"
     fill="#d6d6e3"
     id="rect1636" />
  <path
     d="m 141.58658,675.25377 v 1.39 a 7.25,7.25 0 0 0 7.25,7.25 h 99.53 a 7.25,7.25 0 0 0 7.25,-7.25 v -1.39 z"
     opacity="0.1"
     id="path1638" />
  <rect
     x="342.39661"
     y="684.62378"
     width="19.610001"
     height="249.83"
     fill="#d6d6e3"
     id="rect1640" />
  <rect
     x="342.39661"
     y="684.62378"
     width="19.610001"
     height="16.200001"
     opacity="0.1"
     id="rect1642" />
  <rect
     x="333.0166"
     y="666.71375"
     width="518.41998"
     height="32.400002"
     fill="#d6d6e3"
     id="rect1644" />
  <g
     transform="translate(559.14017,195.27616)"
     id="g1685">
    <rect
       x="44"
       y="5"
       width="4"
       height="2"
       id="rect1677" />
    <rect
       x="49"
       y="5"
       width="4"
       height="2"
       id="rect1679" />
    <rect
       x="54"
       y="5"
       width="4"
       height="2"
       id="rect1681" />
    <path
       inkscape:connector-curvature="0"
       d="m 62.707,61.293 -17.2,-17.2 A 21.989,21.989 0 0 0 55,26 21.67,21.67 0 0 0 51.42,14 H 58 a 3,3 0 0 0 3,-3 V 5 A 3,3 0 0 0 58,2 H 8 A 3,3 0 0 0 5,5 v 6 a 3,3 0 0 0 3,3 h 6.58 A 21.67,21.67 0 0 0 11,26 21.965,21.965 0 0 0 19.351,43.234 L 1.293,61.293 2.707,62.707 20.993,44.42 a 21.924,21.924 0 0 0 22.77,0.756 l 17.53,17.531 z M 53,26 A 19.993,19.993 0 0 1 44.062,42.648 L 37.874,36.46 A 0.974,0.974 0 0 0 38,36 v -5 h 5 a 3,3 0 0 0 3,-3 V 22 A 3,3 0 0 0 43,19 H 33 V 14 H 48.962 A 19.7,19.7 0 0 1 53,26 Z M 43,21 a 1,1 0 0 1 1,1 v 6 a 1,1 0 0 1 -1,1 H 21 a 1,1 0 0 1 -1,-1 v -6 a 1,1 0 0 1 1,-1 z M 28,35 v -4 h 8 v 4 z M 7,11 V 5 A 1,1 0 0 1 8,4 h 50 a 1,1 0 0 1 1,1 v 6 a 1,1 0 0 1 -1,1 H 8 A 1,1 0 0 1 7,11 Z m 6,15 A 19.7,19.7 0 0 1 17.038,14 H 31 v 5 H 21 a 3,3 0 0 0 -3,3 v 6 a 3,3 0 0 0 3,3 h 5 v 5 a 0.974,0.974 0 0 0 0.126,0.46 L 20.785,41.8 A 19.961,19.961 0 0 1 13,26 Z M 33,46 A 19.851,19.851 0 0 1 22.453,42.961 L 28.414,37 h 7.172 l 6.7,6.7 A 19.867,19.867 0 0 1 33,46 Z"
       id="path1683" />
  </g>
  <rect
     style="opacity:1;fill:#ececec;fill-opacity:1;fill-rule:nonzero;stroke:#808080;stroke-width:3.77953;stroke-linecap:round;stroke-linejoin:round;stroke-miterlimit:4;stroke-dasharray:none;stroke-dashoffset:0;stroke-opacity:1;paint-order:stroke fill markers"
     id="rect4323-92"
     width="347.37946"
     height="82.60157"
     x="689.10736"
     y="16.599619"
     ry="1.2435695"
     rx="1.2435695" />
  <g
     transform="matrix(0.33123783,0,0,0.34014436,697.61072,28.210559)"
     id="g2728"
     style="stroke-width:2.97919">
    <path
       inkscape:connector-curvature="0"
       d="m 80.416,90.581 c -1.883,-0.715 -4.424,-1.075 -7.621,-1.075 h -1.297 v 24.664 h 1.466 c 3.989,0 7.037,-0.621 9.145,-1.866 3.761,-2.224 5.644,-5.674 5.644,-10.352 0,-2.528 -0.678,-4.848 -2.031,-6.96 -1.356,-2.109 -3.125,-3.581 -5.306,-4.411 z"
       id="path2722"
       style="stroke-width:2.97919" />
    <path
       inkscape:connector-curvature="0"
       d="m 118.063,95.179 c 0,-1.74 -0.613,-3.12 -1.834,-4.142 -1.224,-1.021 -2.852,-1.532 -4.883,-1.532 h -4.46 v 11.515 h 4.46 c 2.068,0 3.705,-0.521 4.909,-1.561 1.205,-1.038 1.808,-2.464 1.808,-4.28 z"
       id="path2724"
       style="stroke-width:2.97919" />
    <path
       inkscape:connector-curvature="0"
       d="m 81.166,10.691 c -39.138,0 -70.865,31.728 -70.865,70.866 0,39.138 31.727,70.865 70.865,70.865 39.138,0 70.867,-31.727 70.867,-70.865 0,-39.138 -31.729,-70.866 -70.867,-70.866 z M 57.613,120.663 H 50.614 V 104.858 H 37.18 v 15.805 H 30.182 V 83.016 H 37.18 V 98.367 H 50.615 V 83.016 h 6.999 v 37.647 z m 33.949,-7.959 c -2.088,3.198 -4.825,5.381 -8.211,6.548 -2.71,0.94 -6.097,1.411 -10.159,1.411 H 64.498 V 83.016 h 8.58 c 6.809,0 11.947,1.466 15.408,4.402 1.882,1.616 3.388,3.744 4.517,6.377 1.128,2.633 1.693,5.343 1.693,8.127 -0.001,3.991 -1.044,7.585 -3.134,10.782 z m 25.373,7.959 -10.049,-14.394 v 14.394 H 99.888 V 83.016 h 11.515 c 4.93,0 8.542,1.372 10.836,4.119 1.844,2.22 2.766,4.74 2.766,7.563 0,2.86 -0.79,5.383 -2.37,7.564 -1.58,2.183 -4.064,3.688 -7.45,4.514 l 10.158,13.887 z M 82.907,20.142 c 33.138,0.924 59.719,28.057 59.719,61.415 0,0.151 -0.01,0.301 -0.014,0.453 C 111.202,77.264 86.567,51.898 82.907,20.142 Z"
       id="path2726"
       style="stroke-width:2.97919" />
  </g>
  <path
     style="fill:none;stroke:#000000;stroke-width:2.135;stroke-linecap:round;stroke-linejoin:round;stroke-miterlimit:4;stroke-dasharray:none;stroke-opacity:1;marker-start:url(#marker4467);marker-end:url(#marker4471)"
     d="M 624.62425,221.95823 794.35349,112.19998"
     id="path4463"
     inkscape:connector-curvature="0" />
  <path
     style="fill:none;stroke:#000000;stroke-width:2.13543;stroke-linecap:round;stroke-linejoin:round;stroke-miterlimit:4;stroke-dasharray:none;stroke-opacity:1;marker-start:url(#marker4467-1);marker-end:url(#marker4471-8)"
     d="m 558.10113,193.9905 -160.677,-91.65379"
     id="path4463-6"
     inkscape:connector-curvature="0" />
  <rect
     style="opacity:1;fill:#ececec;fill-opacity:1;fill-rule:nonzero;stroke:#808080;stroke-width:3.77953;stroke-linecap:round;stroke-linejoin:round;stroke-miterlimit:4;stroke-dasharray:none;stroke-dashoffset:0;stroke-opacity:1;paint-order:stroke fill markers"
     id="rect4323-4"
     width="421.65253"
     height="82.60157"
     x="150.01733"
     y="1.889765"
     ry="1.2435695"
     rx="1.2435695" />
  <g
     id="g5773"
     transform="matrix(1.0661991,0,0,1.0634034,-63.746841,203.17825)"
     style="stroke-width:0.939143">
    <path
       style="stroke-width:0.939143"
       id="path5194"
       d="m 257.96181,-148.50856 c 0.59335,0 1.07492,-0.50281 1.07492,-1.12235 0,-0.61953 -0.48157,-1.12235 -1.07492,-1.12235 h -9.06004 v -6.73298 h 9.06004 c 0.59335,0 1.07492,-0.50281 1.07492,-1.12235 0,-0.61954 -0.48157,-1.12234 -1.07492,-1.12234 h -9.06004 v -2.40577 c 0,-2.03369 -1.58283,-3.68804 -3.52845,-3.68804 h -2.30197 v -9.45467 c 0,-0.61953 -0.48156,-1.12235 -1.07492,-1.12235 -0.59336,0 -1.07493,0.50282 -1.07493,1.12235 v 9.45467 h -6.44903 v -9.45467 c 0,-0.61953 -0.48157,-1.12235 -1.07493,-1.12235 -0.59336,0 -1.07493,0.50282 -1.07493,1.12235 v 9.45467 h -6.4485 v -9.45467 c 0,-0.61953 -0.48157,-1.12235 -1.07493,-1.12235 -0.59335,0 -1.07493,0.50282 -1.07493,1.12235 v 9.45467 h -2.30195 c -1.94778,0 -3.53168,1.65435 -3.53168,3.68804 v 2.40577 h -9.05735 c -0.59336,0 -1.07493,0.5028 -1.07493,1.12234 0,0.61954 0.48157,1.12235 1.07493,1.12235 h 9.05735 v 6.73298 h -9.05735 c -0.59336,0 -1.07493,0.50282 -1.07493,1.12235 0,0.62009 0.48157,1.12235 1.07493,1.12235 h 9.05735 v 6.73073 h -9.05735 c -0.59336,0 -1.07493,0.50281 -1.07493,1.12235 0,0.61954 0.48157,1.12235 1.07493,1.12235 h 9.05735 v 2.40239 c 0,2.03314 1.58445,3.68692 3.53168,3.68692 h 2.30195 v 9.4586 c 0,0.61953 0.48158,1.12235 1.07493,1.12235 0.59336,0 1.07493,-0.50282 1.07493,-1.12235 v -9.45804 h 6.4485 v 9.4586 c 0,0.61954 0.48157,1.12235 1.07493,1.12235 0.59336,0 1.07493,-0.50281 1.07493,-1.12235 v -9.4586 h 6.44849 v 9.4586 c 0,0.61954 0.48157,1.12235 1.07493,1.12235 0.59336,0 1.07493,-0.50281 1.07493,-1.12235 v -9.4586 h 2.30196 c 1.94562,0 3.52845,-1.65379 3.52845,-3.68692 v -2.40239 h 9.06004 c 0.59336,0 1.07492,-0.50281 1.07492,-1.12235 0,-0.61954 -0.48156,-1.12235 -1.07492,-1.12235 h -9.0595 v -6.73129 z m -11.2099,11.37782 c 0,0.79518 -0.61808,1.44222 -1.37859,1.44222 H 221.4223 c -0.76213,0 -1.38183,-0.64704 -1.38183,-1.44222 v -25.00596 c 0,-0.79574 0.6197,-1.44333 1.38183,-1.44333 h 23.95102 c 0.76051,0 1.37859,0.64759 1.37859,1.44333 z"
       inkscape:connector-curvature="0" />
    <path
       style="stroke-width:0.939143"
       id="path5196"
       d="m 240.35018,-158.21521 c -1.42805,0 -2.69485,0.7228 -3.49245,1.8328 l -7.01283,-1.23402 c -0.41923,-1.80193 -1.97304,-3.14539 -3.82621,-3.14539 -2.17297,0 -3.94123,1.84571 -3.94123,4.11454 0,1.98319 1.35065,3.64258 3.14094,4.02979 l 1.52533,4.72847 c -1.09966,0.97868 -1.80051,2.43269 -1.80051,4.05617 0,2.93943 2.29067,5.33116 5.10592,5.33116 2.81523,0 5.10591,-2.39173 5.10591,-5.33116 0,-0.97252 -0.2553,-1.88218 -0.69226,-2.66839 l 3.9079,-3.09207 c 0.59498,0.31706 1.26573,0.5 1.97895,0.5 2.40784,0 4.36689,-2.04604 4.36689,-4.56066 0,-2.51463 -1.95851,-4.56124 -4.36635,-4.56124 z m -16.12232,1.56793 c 0,-1.03088 0.80351,-1.86984 1.79137,-1.86984 0.98786,0 1.79137,0.83896 1.79137,1.86984 0,1.03143 -0.80351,1.8704 -1.79137,1.8704 -0.98786,0 -1.79137,-0.83897 -1.79137,-1.8704 z m 3.19845,3.83899 c 1.0975,-0.44051 1.95959,-1.37655 2.33152,-2.54773 l 6.26576,1.10271 c -0.0247,0.19641 -0.0419,0.39507 -0.0419,0.59821 0,0.94221 0.27518,1.81821 0.74546,2.54549 l -3.71656,2.94056 c -0.8363,-0.62459 -1.85695,-0.99608 -2.96089,-0.99608 -0.47943,0 -0.94218,0.0747 -1.38237,0.2037 z m 2.62336,12.06134 c -1.63012,0 -2.95605,-1.38498 -2.95605,-3.08646 0,-1.70149 1.32593,-3.08646 2.95605,-3.08646 1.63013,0 2.95606,1.38497 2.95606,3.08646 0,1.70148 -1.32593,3.08646 -2.95606,3.08646 z m 10.30051,-10.59162 c -1.22273,0 -2.21812,-1.03929 -2.21812,-2.31597 0,-1.27667 0.99539,-2.31596 2.21812,-2.31596 1.22219,0 2.21703,1.03929 2.21703,2.31596 0,1.27668 -0.99484,2.31597 -2.21703,2.31597 z"
       inkscape:connector-curvature="0" />
  </g>
  <flowRoot
     transform="translate(0.00658126,231.99377)"
     xml:space="preserve"
     id="flowRoot5783"
     style="font-style:normal;font-weight:normal;font-size:18.6667px;line-height:1.25;font-family:sans-serif;letter-spacing:0px;word-spacing:0px;fill:#000000;fill-opacity:1;stroke:none"><flowRegion
       id="flowRegion5785"><rect
         id="rect5787"
         width="43.206013"
         height="35.204899"
         x="-452.86301"
         y="86.412025" /></flowRegion><flowPara
       id="flowPara5789" /></flowRoot>
  <flowRoot
     transform="translate(0.00658126,231.99377)"
     xml:space="preserve"
     id="flowRoot1345"
     style="font-style:normal;font-variant:normal;font-weight:600;font-stretch:normal;font-size:18.6667px;line-height:1.25;font-family:'Segoe UI';-inkscape-font-specification:'Segoe UI Semi-Bold';letter-spacing:0px;word-spacing:0px;fill:#000000;fill-opacity:1;stroke:none"><flowRegion
       id="flowRegion1347"
       style="font-style:normal;font-variant:normal;font-weight:600;font-stretch:normal;font-family:'Segoe UI';-inkscape-font-specification:'Segoe UI Semi-Bold'"><rect
         id="rect1349"
         width="320.04453"
         height="128.01781"
         x="-340.84744"
         y="443.26169"
         style="-inkscape-font-specification:'Segoe UI Semi-Bold';font-family:'Segoe UI';font-weight:600;font-style:normal;font-stretch:normal;font-variant:normal;" /></flowRegion><flowPara
       id="flowPara1351" /></flowRoot>
  <text
     xml:space="preserve"
     style="font-style:normal;font-weight:normal;line-height:1.25;font-family:sans-serif;letter-spacing:0px;word-spacing:0px;baseline-shift:baseline;fill:#000000;fill-opacity:1;stroke:none"
     x="764.13043"
     y="39.521221"
     id="text1355-8"><tspan
       sodipodi:role="line"
       x="764.13043"
       y="39.521221"
       style="font-style:normal;font-variant:normal;font-weight:600;font-stretch:normal;font-size:17.3333px;font-family:'Segoe UI';-inkscape-font-specification:'Segoe UI Semi-Bold';baseline-shift:baseline"
       id="tspan1473">Low dynamic range images from </tspan><tspan
       sodipodi:role="line"
       x="764.13043"
       y="61.187847"
       style="font-style:normal;font-variant:normal;font-weight:600;font-stretch:normal;font-size:17.3333px;font-family:'Segoe UI';-inkscape-font-specification:'Segoe UI Semi-Bold';baseline-shift:baseline"
       id="tspan1477">multiple exposures are merged to </tspan><tspan
       sodipodi:role="line"
       x="764.13043"
       y="82.854469"
       style="font-style:normal;font-variant:normal;font-weight:600;font-stretch:normal;font-size:17.3333px;font-family:'Segoe UI';-inkscape-font-specification:'Segoe UI Semi-Bold';baseline-shift:baseline"
       id="tspan1479">generate HDR images.</tspan></text>
  <text
     xml:space="preserve"
     style="font-style:normal;font-weight:normal;font-size:18.6667px;line-height:1.25;font-family:sans-serif;letter-spacing:0px;word-spacing:0px;fill:#000000;fill-opacity:1;stroke:none"
     x="561.24463"
     y="-119.6161"
     id="text1526" />
  <path
     style="fill:none;stroke:#000000;stroke-width:2.135;stroke-linecap:round;stroke-linejoin:round;stroke-miterlimit:4;stroke-dasharray:17.08, 17.08;stroke-dashoffset:0;stroke-opacity:1"
     d="M 591.11538,261.25436 250.8606,415.63042"
     id="path1636"
     sodipodi:nodetypes="cc" />
  <path
     id="path1636-0"
     d="M 916.99372,398.93989 591.14097,261.36618"
     style="fill:none;stroke:#000000;stroke-width:2.135;stroke-linecap:round;stroke-linejoin:round;stroke-miterlimit:4;stroke-dasharray:17.08, 17.08;stroke-dashoffset:0;stroke-opacity:1"
     sodipodi:nodetypes="cc" />
  <text
     id="text1355-8-6"
     y="345.62668"
     x="595.41882"
     style="font-style:normal;font-weight:normal;line-height:1.25;font-family:sans-serif;text-align:center;letter-spacing:0px;word-spacing:0px;baseline-shift:baseline;text-anchor:middle;fill:#000000;fill-opacity:1;stroke:none"
     xml:space="preserve"><tspan
       style="font-style:normal;font-variant:normal;font-weight:600;font-stretch:normal;font-size:17.3333px;font-family:'Segoe UI';-inkscape-font-specification:'Segoe UI Semi-Bold';text-align:center;baseline-shift:baseline;text-anchor:middle"
       y="345.62668"
       x="595.41882"
       sodipodi:role="line"
       id="tspan1712">Ceiling-based camera captures </tspan><tspan
       style="font-style:normal;font-variant:normal;font-weight:600;font-stretch:normal;font-size:17.3333px;font-family:'Segoe UI';-inkscape-font-specification:'Segoe UI Semi-Bold';text-align:center;baseline-shift:baseline;text-anchor:middle"
       y="367.2933"
       x="597.80554"
       sodipodi:role="line"
       id="tspan1740">user's direct  task area. </tspan></text>
  <g
     id="g1734"
     transform="matrix(0,0.34894858,-0.571163,0,1056.5143,-223.11335)"
     style="stroke-width:2.23997">
    <path
       style="fill:none;stroke:#000000;stroke-width:4.78231;stroke-linecap:round;stroke-linejoin:round;stroke-miterlimit:4;stroke-dasharray:38.2584, 38.2584;stroke-dashoffset:0;stroke-opacity:1"
       d="M 2058.8478,268.3968 1736.2415,395.75804"
       id="path1636-1"
       sodipodi:nodetypes="cc" />
    <path
       id="path1636-0-2"
       d="M 2360.8177,400.66099 2058.8478,268.3968"
       style="fill:none;stroke:#000000;stroke-width:4.78231;stroke-linecap:round;stroke-linejoin:round;stroke-miterlimit:4;stroke-dasharray:38.2584, 38.2584;stroke-dashoffset:0;stroke-opacity:1"
       sodipodi:nodetypes="cc" />
  </g>
  <path
     style="fill:none;stroke:#000000;stroke-width:2.135;stroke-linecap:butt;stroke-linejoin:miter;stroke-miterlimit:4;stroke-dasharray:none;stroke-opacity:1"
     d="m 875.8839,524.87413 c -7.71273,-0.76791 -15.10624,-4.40709 -20.41916,-10.05057 -4.07309,-4.32651 -6.92316,-9.79222 -8.13904,-15.60862 -1.21588,-5.81639 -0.79394,-11.9661 1.20495,-17.56192 1.9989,-5.59582 5.56877,-10.62105 10.19461,-14.35071 4.62585,-3.72967 10.29384,-6.15262 16.18629,-6.91933"
     id="path1850"
     inkscape:path-effect="#path-effect1852"
     inkscape:original-d="m 875.8839,524.87413 c -6.48141,-3.35092 -13.61191,-6.70111 -20.41916,-10.05057 -6.80724,-3.34945 12.9654,-36.29446 19.44681,-54.44058" />
  <path
     inkscape:connector-curvature="0"
     id="path4500-5"
     d="M 826.3357,580.06575 605.61014,759.43569"
     style="fill:none;stroke:#000000;stroke-width:2.13543;stroke-linecap:butt;stroke-linejoin:miter;stroke-miterlimit:4;stroke-dasharray:none;stroke-opacity:1;marker-start:url(#marker4504-9);marker-end:url(#marker4508-3)" />
  <text
     xml:space="preserve"
     style="font-style:normal;font-weight:normal;line-height:1.25;font-family:sans-serif;text-align:center;letter-spacing:0px;word-spacing:0px;baseline-shift:baseline;text-anchor:middle;fill:#000000;fill-opacity:1;stroke:none"
     x="597.73938"
     y="785.34283"
     id="text1355-8-6-5"><tspan
       id="tspan1740-7"
       sodipodi:role="line"
       x="597.73938"
       y="785.34283"
       style="font-style:normal;font-variant:normal;font-weight:600;font-stretch:normal;font-size:17.3333px;font-family:'Segoe UI';-inkscape-font-specification:'Segoe UI Semi-Bold';text-align:center;baseline-shift:baseline;text-anchor:middle">Vertical Visual Field (VVF)</tspan></text>
  <text
     id="text1563"
     y="25.568399"
     x="226.0672"
     style="font-style:normal;font-variant:normal;font-weight:normal;font-stretch:normal;font-size:17.3333px;line-height:1.25;font-family:'Segoe UI';-inkscape-font-specification:'Segoe UI';letter-spacing:0px;word-spacing:0px;fill:#000000;fill-opacity:1;stroke:none"
     xml:space="preserve"><tspan
       style="font-style:normal;font-variant:normal;font-weight:600;font-stretch:normal;font-size:17.3333px;font-family:'Segoe UI';-inkscape-font-specification:'Segoe UI Semi-Bold'"
       y="25.568399"
       x="226.0672"
       id="tspan1561"
       sodipodi:role="line">On-device LumNet model can processes </tspan><tspan
       id="tspan1565"
       style="font-style:normal;font-variant:normal;font-weight:600;font-stretch:normal;font-size:17.3333px;font-family:'Segoe UI';-inkscape-font-specification:'Segoe UI Semi-Bold'"
       y="47.235023"
       x="226.0672"
       sodipodi:role="line">ceiling-based images locally to estimate </tspan><tspan
       id="tspan1567"
       style="font-style:normal;font-variant:normal;font-weight:600;font-stretch:normal;font-size:17.3333px;font-family:'Segoe UI';-inkscape-font-specification:'Segoe UI Semi-Bold'"
       y="68.901649"
       x="226.0672"
       sodipodi:role="line">luminance for adaptive lighting experience.</tspan></text>
</svg>
