<?xml version="1.0" ?><!DOCTYPE svg  PUBLIC '-//W3C//DTD SVG 1.1//EN'  'http://www.w3.org/Graphics/SVG/1.1/DTD/svg11.dtd'><svg id="Icon_Set" style="enable-background:new 0 0 256 256;" version="1.1" viewBox="0 0 256 256" xml:space="preserve" xmlns="http://www.w3.org/2000/svg" xmlns:xlink="http://www.w3.org/1999/xlink"><style type="text/css">
	.st0{fill:#4C4372;}
	.st1{fill:#F0C48A;}
	.st2{fill:#FD919E;}
	.st3{fill:#D3E6F8;}
	.st4{fill:#A4CFF2;}
	.st5{fill:#FFFFFF;}
	.st6{fill:#7BABF1;}
	.st7{fill:#E8677D;}
</style><g><g><g><circle class="st1" cx="128" cy="128" r="103.5"/></g></g><g><g><path class="st2" d="M183.895,74.421c-21.036-0.526-38.34,15.964-39.137,36.686l0,0c-0.018,0.495-0.031,0.992-0.031,1.491     c0,0.5,0.013,0.997,0.031,1.492v9.088l-9.22,14.525c-0.945,1.489,0.124,3.436,1.889,3.436h7.331v17.645     c0,3.998,3.241,7.24,7.239,7.24h20.044v15.568h38.032v-36.649c0-3.308,1.145-6.494,3.158-9.118     c4.915-6.405,7.847-14.412,7.874-23.104C221.171,92.057,204.553,74.938,183.895,74.421z"/></g><g><g><path class="st7" d="M187.727,74.71c15.134,5.14,24.111,19.558,24.059,36.306c-0.028,8.691-2.959,16.697-7.875,23.103      c-2.013,2.624-3.157,5.811-3.157,9.118v38.355h9.319v-36.649c0-3.308,1.145-6.494,3.158-9.118      c4.915-6.405,7.847-14.412,7.874-23.104C221.167,93.352,206.569,77.098,187.727,74.71z"/></g></g><g><path class="st0" d="M210.073,184.592h-38.032c-1.657,0-3-1.343-3-3v-12.568h-17.044c-5.646,0-10.239-4.594-10.239-10.24v-14.645     h-4.331c-1.911,0-3.669-1.04-4.59-2.714c-0.92-1.674-0.855-3.717,0.168-5.329l8.753-13.79v-8.16     c-0.019-0.514-0.031-1.029-0.031-1.548c0-0.537,0.014-1.071,0.033-1.604c0.867-22.548,19.528-40.126,42.21-39.572     c22.201,0.555,40.206,19.086,40.136,41.309c-0.028,9.099-2.966,17.716-8.494,24.92c-1.66,2.164-2.538,4.686-2.538,7.292v36.649     C213.073,183.249,211.73,184.592,210.073,184.592z M175.041,178.592h32.032v-33.649c0-3.883,1.342-7.77,3.778-10.944     c4.721-6.152,7.229-13.514,7.254-21.287c0.061-18.985-15.32-34.816-34.286-35.291c-19.377-0.506-35.323,14.541-36.063,33.802     c-0.018,0.455-0.029,0.914-0.029,1.376s0.012,0.922,0.029,1.38c0.001,0.037,0.002,0.075,0.002,0.112v9.088     c0,0.569-0.162,1.127-0.467,1.607l-8.477,13.354h5.943c1.657,0,3,1.343,3,3v17.645c0,2.338,1.901,4.24,4.239,4.24h20.044     c1.657,0,3,1.343,3,3V178.592z"/></g></g><g><g><path class="st3" d="M72.105,74.421c21.036-0.526,38.34,15.964,39.137,36.686l0,0c0.018,0.495,0.031,0.992,0.031,1.491     c0,0.5-0.013,0.997-0.031,1.492v9.088l9.22,14.525c0.945,1.489-0.125,3.436-1.889,3.436h-7.331v17.645     c0,3.998-3.241,7.24-7.239,7.24H83.958v15.568H45.926v-36.649c0-3.308-1.144-6.494-3.157-9.118     c-4.915-6.405-7.847-14.412-7.874-23.104C34.829,92.057,51.447,74.938,72.105,74.421z"/></g><g><path class="st0" d="M83.958,184.592H45.926c-1.657,0-3-1.343-3-3v-36.649c0-2.607-0.877-5.129-2.537-7.292     c-5.528-7.204-8.466-15.821-8.494-24.92c-0.07-22.223,17.935-40.754,40.136-41.309c22.732-0.559,41.343,17.024,42.21,39.569     c0.02,0.535,0.033,1.069,0.033,1.606c0,0.519-0.013,1.034-0.031,1.548v8.16l8.753,13.79c1.023,1.612,1.088,3.654,0.167,5.329     c-0.92,1.674-2.679,2.714-4.589,2.714h-4.331v14.645c0,5.646-4.594,10.24-10.239,10.24H86.958v12.568     C86.958,183.249,85.615,184.592,83.958,184.592z M48.926,178.592h32.032v-12.568c0-1.657,1.343-3,3-3h20.045     c2.338,0,4.239-1.902,4.239-4.24v-17.645c0-1.657,1.343-3,3-3h5.943l-8.477-13.354c-0.305-0.48-0.467-1.038-0.467-1.607v-9.088     c0-0.037,0.001-0.075,0.002-0.112c0.018-0.458,0.029-0.918,0.029-1.38s-0.012-0.921-0.029-1.379     c-0.74-19.257-16.684-34.314-36.063-33.799c-18.966,0.475-34.347,16.306-34.286,35.291c0.024,7.773,2.533,15.135,7.254,21.287     c2.436,3.174,3.777,7.061,3.777,10.944V178.592z"/></g></g><g><path class="st0" d="M179.565,126.149H91.02c-1.657,0-3-1.343-3-3s1.343-3,3-3h88.546c5.897,0,10.695-4.798,10.695-10.695    s-4.798-10.695-10.695-10.695c-1.657,0-3-1.343-3-3s1.343-3,3-3c9.206,0,16.695,7.489,16.695,16.695    S188.771,126.149,179.565,126.149z"/></g><g><path class="st0" d="M76.436,126.149c-9.206,0-16.696-7.489-16.696-16.695s7.49-16.695,16.696-16.695h89.646c1.657,0,3,1.343,3,3    s-1.343,3-3,3H76.436c-5.898,0-10.696,4.798-10.696,10.695s4.798,10.695,10.696,10.695c1.657,0,3,1.343,3,3    S78.093,126.149,76.436,126.149z"/></g><g><path class="st0" d="M162.415,104.77c-0.45,0-0.902-0.102-1.322-0.307c-1.027-0.505-1.678-1.549-1.678-2.693V89.748    c0-1.144,0.65-2.188,1.678-2.692c1.025-0.504,2.251-0.382,3.156,0.318l7.779,6.011c0.734,0.568,1.165,1.445,1.165,2.374    c0,0.93-0.431,1.806-1.166,2.374l-7.778,6.011C163.714,104.558,163.066,104.77,162.415,104.77z"/></g><g><polygon class="st0" points="162.415,95.759 162.415,89.748 166.305,92.753 170.193,95.759 166.305,98.764 162.415,101.77   "/></g><g><path class="st0" d="M95.683,132.16c-0.651,0-1.299-0.212-1.834-0.626l-7.778-6.011c-0.735-0.568-1.166-1.445-1.166-2.374    s0.431-1.806,1.166-2.374l7.778-6.011c0.905-0.7,2.129-0.821,3.156-0.319c1.027,0.505,1.678,1.549,1.678,2.693v12.021    c0,1.145-0.65,2.188-1.678,2.693C96.586,132.059,96.133,132.16,95.683,132.16z"/></g><g><polygon class="st0" points="95.683,123.149 95.683,129.16 91.793,126.154 87.904,123.149 91.793,120.145 95.683,117.139   "/></g></g></svg>